%FSLAX45Y45*%
G04 Gerber Fmt 4.5, Leading zero omitted, Abs format (unit mm)*
G04 Created by KiCad (PCBNEW (6.0.1)) date 2022-01-17 15:22:59*
%MOMM*%
%LPD*%
G01*
G04 APERTURE LIST*
%TA.AperFunction,Profile*%
%ADD10C,0.050000*%
%TD*%
%ADD11C,0.200000*%
G04 APERTURE END LIST*
D10*
X6400000Y0D02*
X500000Y0D01*
X500000Y0D02*
G75*
G03*
X0Y-500000I0J-500000D01*
G01*
X0Y-500000D02*
X0Y-3800000D01*
X6900000Y-3800000D02*
X6900000Y-500000D01*
X6400000Y-4300000D02*
G75*
G03*
X6900000Y-3800000I0J500000D01*
G01*
X500000Y-4300000D02*
X6400000Y-4300000D01*
X6900000Y-500000D02*
G75*
G03*
X6400000Y0I-500000J0D01*
G01*
X0Y-3800000D02*
G75*
G03*
X500000Y-4300000I500000J0D01*
G01*
D11*
X255119Y-4612976D02*
X255119Y-4412976D01*
X302738Y-4412976D01*
X331310Y-4422500D01*
X350357Y-4441548D01*
X359881Y-4460595D01*
X369405Y-4498690D01*
X369405Y-4527262D01*
X359881Y-4565357D01*
X350357Y-4584405D01*
X331310Y-4603452D01*
X302738Y-4612976D01*
X255119Y-4612976D01*
X455119Y-4612976D02*
X455119Y-4479643D01*
X455119Y-4517738D02*
X464643Y-4498690D01*
X474167Y-4489167D01*
X493214Y-4479643D01*
X512262Y-4479643D01*
X578929Y-4612976D02*
X578929Y-4479643D01*
X578929Y-4412976D02*
X569405Y-4422500D01*
X578929Y-4432024D01*
X588452Y-4422500D01*
X578929Y-4412976D01*
X578929Y-4432024D01*
X702738Y-4612976D02*
X683690Y-4603452D01*
X674167Y-4584405D01*
X674167Y-4412976D01*
X807500Y-4612976D02*
X788452Y-4603452D01*
X778928Y-4584405D01*
X778928Y-4412976D01*
X1036071Y-4612976D02*
X1036071Y-4412976D01*
X1102738Y-4555833D01*
X1169405Y-4412976D01*
X1169405Y-4612976D01*
X1350357Y-4612976D02*
X1350357Y-4508214D01*
X1340833Y-4489167D01*
X1321786Y-4479643D01*
X1283690Y-4479643D01*
X1264643Y-4489167D01*
X1350357Y-4603452D02*
X1331310Y-4612976D01*
X1283690Y-4612976D01*
X1264643Y-4603452D01*
X1255119Y-4584405D01*
X1255119Y-4565357D01*
X1264643Y-4546310D01*
X1283690Y-4536786D01*
X1331310Y-4536786D01*
X1350357Y-4527262D01*
X1445595Y-4479643D02*
X1445595Y-4679643D01*
X1445595Y-4489167D02*
X1464643Y-4479643D01*
X1502738Y-4479643D01*
X1521786Y-4489167D01*
X1531309Y-4498690D01*
X1540833Y-4517738D01*
X1540833Y-4574881D01*
X1531309Y-4593929D01*
X1521786Y-4603452D01*
X1502738Y-4612976D01*
X1464643Y-4612976D01*
X1445595Y-4603452D01*
X1626548Y-4593929D02*
X1636071Y-4603452D01*
X1626548Y-4612976D01*
X1617024Y-4603452D01*
X1626548Y-4593929D01*
X1626548Y-4612976D01*
X1626548Y-4489167D02*
X1636071Y-4498690D01*
X1626548Y-4508214D01*
X1617024Y-4498690D01*
X1626548Y-4489167D01*
X1626548Y-4508214D01*
M02*
