M48
; DRILL file {KiCad (6.0.1)} date Mon Jan 17 15:22:57 2022
; FORMAT={-:-/ absolute / metric / decimal}
; #@! TF.CreationDate,2022-01-17T15:22:57+02:00
; #@! TF.GenerationSoftware,Kicad,Pcbnew,(6.0.1)
; #@! TF.FileFunction,Plated,1,2,PTH
FMAT,2
METRIC
; #@! TA.AperFunction,Plated,PTH,ViaDrill
T1C0.600
; #@! TA.AperFunction,Plated,PTH,ComponentDrill
T2C0.600
; #@! TA.AperFunction,Plated,PTH,ComponentDrill
T3C0.700
; #@! TA.AperFunction,Plated,PTH,ComponentDrill
T4C0.800
; #@! TA.AperFunction,Plated,PTH,ComponentDrill
T5C0.900
; #@! TA.AperFunction,Plated,PTH,ComponentDrill
T6C1.000
; #@! TA.AperFunction,Plated,PTH,ComponentDrill
T7C1.016
; #@! TA.AperFunction,Plated,PTH,ComponentDrill
T8C1.020
; #@! TA.AperFunction,Plated,PTH,ComponentDrill
T9C4.300
%
G90
G05
T1
X7.747Y-32.004
X9.5Y-41.5
X21.184Y-23.444
X21.336Y-28.702
X24.0Y-5.75
X24.0Y-7.25
X24.0Y-8.75
X25.984Y-4.013
X26.695Y-24.765
X27.0Y-40.005
X31.0Y-9.347
X32.512Y-31.496
X33.909Y-31.496
X34.0Y-34.25
X34.036Y-15.875
X34.925Y-20.955
X34.925Y-22.479
X37.75Y-8.75
X37.75Y-10.25
X37.75Y-11.75
X38.75Y-9.5
X38.75Y-11.0
X39.0Y-28.5
X39.033Y-29.718
X43.0Y-28.5
X43.0Y-29.75
X43.205Y-8.75
X43.205Y-10.25
X43.25Y-11.75
X43.688Y-23.876
X44.25Y-9.5
X44.25Y-11.0
X44.25Y-12.5
X45.72Y-29.693
X45.847Y-20.701
X48.489Y-26.137
X58.852Y-32.918
X59.25Y-41.5
T2
X1.775Y-5.0
X1.775Y-38.0
X2.72Y-2.72
X2.72Y-7.28
X2.72Y-35.72
X2.72Y-40.28
X5.0Y-1.775
X5.0Y-8.225
X5.0Y-34.775
X5.0Y-41.225
X7.28Y-2.72
X7.28Y-7.28
X7.28Y-35.72
X7.28Y-40.28
X8.225Y-5.0
X8.225Y-38.0
X60.775Y-5.0
X60.775Y-38.0
X61.72Y-2.72
X61.72Y-7.28
X61.72Y-35.72
X61.72Y-40.28
X64.0Y-1.775
X64.0Y-8.225
X64.0Y-34.775
X64.0Y-41.225
X66.28Y-2.72
X66.28Y-7.28
X66.28Y-35.72
X66.28Y-40.28
X67.225Y-5.0
X67.225Y-38.0
T3
X11.25Y-23.42
X11.25Y-28.5
X13.75Y-23.42
X13.75Y-28.5
X16.25Y-23.42
X16.25Y-28.5
X18.75Y-23.42
X18.75Y-28.5
X19.92Y-38.75
X24.0Y-23.42
X24.0Y-28.5
X25.0Y-38.75
X29.0Y-23.42
X29.0Y-28.5
X44.0Y-39.0
X47.5Y-23.42
X47.5Y-28.5
X49.08Y-39.0
X50.0Y-23.42
X50.0Y-28.5
X52.5Y-23.5
X52.5Y-28.58
X55.0Y-23.5
X55.0Y-28.58
X60.25Y-23.67
X60.25Y-28.75
X65.25Y-23.67
X65.25Y-28.75
T4
X2.0Y-20.5
X4.293Y-12.654
X4.293Y-16.154
X7.0Y-20.5
X24.0Y-14.25
X28.88Y-36.474
X29.0Y-14.25
X31.42Y-36.474
X33.96Y-36.474
X36.0Y-35.75
X37.236Y-17.988
X37.236Y-21.488
X38.54Y-35.75
X41.0Y-26.5
X41.0Y-29.0
X41.08Y-35.75
X43.25Y-16.75
X43.25Y-21.75
X61.5Y-14.5
X66.5Y-14.5
T5
X11.25Y-18.3
X11.25Y-31.0
X11.42Y-35.5
X11.42Y-38.04
X13.79Y-18.3
X13.79Y-31.0
X13.96Y-35.5
X13.96Y-38.04
X16.33Y-18.3
X16.33Y-31.0
X16.5Y-35.5
X16.5Y-38.04
X18.87Y-18.3
X18.87Y-31.0
X20.0Y-35.5
X21.41Y-18.3
X21.41Y-31.0
X22.54Y-35.5
X23.95Y-18.3
X23.95Y-31.0
X25.08Y-35.5
X26.49Y-18.3
X26.49Y-31.0
X29.03Y-18.3
X29.03Y-31.0
X44.0Y-35.75
X46.54Y-35.75
X47.47Y-18.55
X47.47Y-31.25
X49.08Y-35.75
X50.01Y-18.55
X50.01Y-31.25
X52.55Y-18.55
X52.55Y-31.25
X52.67Y-35.75
X52.67Y-38.29
X55.09Y-18.55
X55.09Y-31.25
X55.21Y-35.75
X55.21Y-38.29
X57.63Y-18.55
X57.63Y-31.25
X57.75Y-35.75
X57.75Y-38.29
X60.17Y-18.55
X60.17Y-31.25
X62.71Y-18.55
X62.71Y-31.25
X65.25Y-18.55
X65.25Y-31.25
T6
X12.0Y-13.0
X14.54Y-13.0
X17.08Y-13.0
X19.62Y-13.0
X49.38Y-13.0
X51.92Y-13.0
X54.46Y-13.0
X57.0Y-13.0
T7
X28.09Y-4.0
X28.09Y-6.54
X30.63Y-4.0
X30.63Y-6.54
X33.17Y-4.0
X33.17Y-6.54
X35.71Y-4.0
X35.71Y-6.54
X38.25Y-4.0
X38.25Y-6.54
X40.79Y-4.0
X40.79Y-6.54
T8
X3.988Y-23.876
X3.988Y-26.416
X3.988Y-28.956
T9
X5.0Y-5.0
X5.0Y-38.0
X64.0Y-5.0
X64.0Y-38.0
T0
M30
