%TF.GenerationSoftware,KiCad,Pcbnew,(6.0.1)*%
%TF.CreationDate,2022-01-17T15:22:50+02:00*%
%TF.ProjectId,prusa_mk2_ext_drv,70727573-615f-46d6-9b32-5f6578745f64,rev?*%
%TF.SameCoordinates,Original*%
%TF.FileFunction,Soldermask,Top*%
%TF.FilePolarity,Negative*%
%FSLAX46Y46*%
G04 Gerber Fmt 4.6, Leading zero omitted, Abs format (unit mm)*
G04 Created by KiCad (PCBNEW (6.0.1)) date 2022-01-17 15:22:50*
%MOMM*%
%LPD*%
G01*
G04 APERTURE LIST*
%ADD10R,2.000000X2.000000*%
%ADD11C,2.000000*%
%ADD12R,1.600000X1.600000*%
%ADD13C,1.600000*%
%ADD14R,1.520000X1.520000*%
%ADD15C,1.520000*%
%ADD16C,1.400000*%
%ADD17O,1.400000X1.400000*%
%ADD18C,0.700000*%
%ADD19C,8.600000*%
%ADD20R,1.300000X1.300000*%
%ADD21C,1.300000*%
%ADD22R,1.727200X1.727200*%
%ADD23O,1.727200X1.727200*%
%ADD24R,2.030000X1.730000*%
%ADD25O,2.030000X1.730000*%
G04 APERTURE END LIST*
D10*
%TO.C,CN4*%
X12000000Y-13000000D03*
D11*
X14540000Y-13000000D03*
X17080000Y-13000000D03*
X19620000Y-13000000D03*
%TD*%
D12*
%TO.C,CP1*%
X41000000Y-26500000D03*
D13*
X41000000Y-29000000D03*
%TD*%
D10*
%TO.C,J1*%
X49080000Y-35750000D03*
D11*
X46540000Y-35750000D03*
X44000000Y-35750000D03*
%TD*%
%TO.C,MD1*%
X47470000Y-31250000D03*
X50010000Y-31250000D03*
X52550000Y-31250000D03*
X55090000Y-31250000D03*
X57630000Y-31250000D03*
X60170000Y-31250000D03*
X62710000Y-31250000D03*
X65250000Y-31250000D03*
X65250000Y-18550000D03*
X62710000Y-18550000D03*
X60170000Y-18550000D03*
X57630000Y-18550000D03*
X55090000Y-18550000D03*
X52550000Y-18550000D03*
X50010000Y-18550000D03*
X47470000Y-18550000D03*
%TD*%
%TO.C,MD2*%
X11250000Y-31000000D03*
X13790000Y-31000000D03*
X16330000Y-31000000D03*
X18870000Y-31000000D03*
X21410000Y-31000000D03*
X23950000Y-31000000D03*
X26490000Y-31000000D03*
X29030000Y-31000000D03*
X29030000Y-18300000D03*
X26490000Y-18300000D03*
X23950000Y-18300000D03*
X21410000Y-18300000D03*
X18870000Y-18300000D03*
X16330000Y-18300000D03*
X13790000Y-18300000D03*
X11250000Y-18300000D03*
%TD*%
D14*
%TO.C,Q1*%
X41080000Y-35750000D03*
D15*
X38540000Y-35750000D03*
X36000000Y-35750000D03*
%TD*%
D14*
%TO.C,Q2*%
X28879800Y-36474400D03*
D15*
X31419800Y-36474400D03*
X33959800Y-36474400D03*
%TD*%
D16*
%TO.C,R2*%
X11250000Y-23420000D03*
D17*
X11250000Y-28500000D03*
%TD*%
D16*
%TO.C,R4*%
X25000000Y-38750000D03*
D17*
X19920000Y-38750000D03*
%TD*%
D16*
%TO.C,R6*%
X29000000Y-28500000D03*
D17*
X29000000Y-23420000D03*
%TD*%
D16*
%TO.C,R11*%
X16250000Y-28500000D03*
D17*
X16250000Y-23420000D03*
%TD*%
D18*
%TO.C,REF\u002A\u002A*%
X5000000Y-1775000D03*
X1775000Y-5000000D03*
X2719581Y-2719581D03*
X7280419Y-7280419D03*
X2719581Y-7280419D03*
X8225000Y-5000000D03*
X5000000Y-8225000D03*
X7280419Y-2719581D03*
D19*
X5000000Y-5000000D03*
%TD*%
D18*
%TO.C,REF\u002A\u002A*%
X61719581Y-7280419D03*
X61719581Y-2719581D03*
X66280419Y-2719581D03*
X64000000Y-1775000D03*
X64000000Y-8225000D03*
X60775000Y-5000000D03*
X66280419Y-7280419D03*
X67225000Y-5000000D03*
D19*
X64000000Y-5000000D03*
%TD*%
D18*
%TO.C,REF\u002A\u002A*%
X8225000Y-38000000D03*
X7280419Y-40280419D03*
X5000000Y-34775000D03*
X1775000Y-38000000D03*
X5000000Y-41225000D03*
X7280419Y-35719581D03*
X2719581Y-35719581D03*
X2719581Y-40280419D03*
D19*
X5000000Y-38000000D03*
%TD*%
D18*
%TO.C,REF\u002A\u002A*%
X64000000Y-41225000D03*
X67225000Y-38000000D03*
X66280419Y-40280419D03*
X60775000Y-38000000D03*
X61719581Y-40280419D03*
X64000000Y-34775000D03*
X66280419Y-35719581D03*
X61719581Y-35719581D03*
D19*
X64000000Y-38000000D03*
%TD*%
D10*
%TO.C,J4*%
X16500000Y-35500000D03*
D11*
X16500000Y-38040000D03*
X13960000Y-35500000D03*
X13960000Y-38040000D03*
X11420000Y-35500000D03*
X11420000Y-38040000D03*
%TD*%
D16*
%TO.C,R3*%
X44000000Y-39000000D03*
D17*
X49080000Y-39000000D03*
%TD*%
D16*
%TO.C,R10*%
X13750000Y-28500000D03*
D17*
X13750000Y-23420000D03*
%TD*%
D16*
%TO.C,R12*%
X18750000Y-28500000D03*
D17*
X18750000Y-23420000D03*
%TD*%
D10*
%TO.C,J2*%
X20000000Y-35500000D03*
D11*
X22540000Y-35500000D03*
X25080000Y-35500000D03*
%TD*%
D16*
%TO.C,R8*%
X52500000Y-28580000D03*
D17*
X52500000Y-23500000D03*
%TD*%
D10*
%TO.C,J3*%
X57750000Y-35750000D03*
D11*
X57750000Y-38290000D03*
X55210000Y-35750000D03*
X55210000Y-38290000D03*
X52670000Y-35750000D03*
X52670000Y-38290000D03*
%TD*%
D16*
%TO.C,R7*%
X50000000Y-28500000D03*
D17*
X50000000Y-23420000D03*
%TD*%
D16*
%TO.C,R9*%
X55000000Y-28580000D03*
D17*
X55000000Y-23500000D03*
%TD*%
D16*
%TO.C,R1*%
X47500000Y-23420000D03*
D17*
X47500000Y-28500000D03*
%TD*%
D16*
%TO.C,R5*%
X65250000Y-28750000D03*
D17*
X65250000Y-23670000D03*
%TD*%
D12*
%TO.C,CP3*%
X4292600Y-16154400D03*
D13*
X4292600Y-12654400D03*
%TD*%
D20*
%TO.C,C2*%
X29000000Y-14250000D03*
D21*
X24000000Y-14250000D03*
%TD*%
D20*
%TO.C,C4*%
X66500000Y-14500000D03*
D21*
X61500000Y-14500000D03*
%TD*%
D10*
%TO.C,CN3*%
X49380000Y-13000000D03*
D11*
X51920000Y-13000000D03*
X54460000Y-13000000D03*
X57000000Y-13000000D03*
%TD*%
D22*
%TO.C,CN2*%
X28090000Y-6540000D03*
D23*
X28090000Y-4000000D03*
X30630000Y-6540000D03*
X30630000Y-4000000D03*
X33170000Y-6540000D03*
X33170000Y-4000000D03*
X35710000Y-6540000D03*
X35710000Y-4000000D03*
X38250000Y-6540000D03*
X38250000Y-4000000D03*
X40790000Y-6540000D03*
X40790000Y-4000000D03*
%TD*%
D16*
%TO.C,R13*%
X60250000Y-23670000D03*
D17*
X60250000Y-28750000D03*
%TD*%
D16*
%TO.C,R14*%
X24000000Y-23420000D03*
D17*
X24000000Y-28500000D03*
%TD*%
D20*
%TO.C,C1*%
X43250000Y-21750000D03*
D21*
X43250000Y-16750000D03*
%TD*%
D24*
%TO.C,CN1*%
X3987800Y-23876000D03*
D25*
X3987800Y-26416000D03*
X3987800Y-28956000D03*
%TD*%
D12*
%TO.C,CP2*%
X37236400Y-17988400D03*
D13*
X37236400Y-21488400D03*
%TD*%
D20*
%TO.C,C3*%
X2000000Y-20500000D03*
D21*
X7000000Y-20500000D03*
%TD*%
M02*
