%TF.GenerationSoftware,KiCad,Pcbnew,(6.0.1)*%
%TF.CreationDate,2022-01-17T15:22:50+02:00*%
%TF.ProjectId,prusa_mk2_ext_drv,70727573-615f-46d6-9b32-5f6578745f64,rev?*%
%TF.SameCoordinates,Original*%
%TF.FileFunction,Copper,L2,Bot*%
%TF.FilePolarity,Positive*%
%FSLAX46Y46*%
G04 Gerber Fmt 4.6, Leading zero omitted, Abs format (unit mm)*
G04 Created by KiCad (PCBNEW (6.0.1)) date 2022-01-17 15:22:50*
%MOMM*%
%LPD*%
G01*
G04 APERTURE LIST*
%TA.AperFunction,ComponentPad*%
%ADD10R,2.000000X2.000000*%
%TD*%
%TA.AperFunction,ComponentPad*%
%ADD11C,2.000000*%
%TD*%
%TA.AperFunction,ComponentPad*%
%ADD12R,1.600000X1.600000*%
%TD*%
%TA.AperFunction,ComponentPad*%
%ADD13C,1.600000*%
%TD*%
%TA.AperFunction,ComponentPad*%
%ADD14R,1.520000X1.520000*%
%TD*%
%TA.AperFunction,ComponentPad*%
%ADD15C,1.520000*%
%TD*%
%TA.AperFunction,ComponentPad*%
%ADD16C,1.400000*%
%TD*%
%TA.AperFunction,ComponentPad*%
%ADD17O,1.400000X1.400000*%
%TD*%
%TA.AperFunction,ComponentPad*%
%ADD18C,0.700000*%
%TD*%
%TA.AperFunction,ComponentPad*%
%ADD19C,8.600000*%
%TD*%
%TA.AperFunction,ComponentPad*%
%ADD20R,1.300000X1.300000*%
%TD*%
%TA.AperFunction,ComponentPad*%
%ADD21C,1.300000*%
%TD*%
%TA.AperFunction,ComponentPad*%
%ADD22R,1.727200X1.727200*%
%TD*%
%TA.AperFunction,ComponentPad*%
%ADD23O,1.727200X1.727200*%
%TD*%
%TA.AperFunction,ComponentPad*%
%ADD24R,2.030000X1.730000*%
%TD*%
%TA.AperFunction,ComponentPad*%
%ADD25O,2.030000X1.730000*%
%TD*%
%TA.AperFunction,ViaPad*%
%ADD26C,1.200000*%
%TD*%
%TA.AperFunction,Conductor*%
%ADD27C,1.500000*%
%TD*%
%TA.AperFunction,Conductor*%
%ADD28C,0.300000*%
%TD*%
%TA.AperFunction,Conductor*%
%ADD29C,1.000000*%
%TD*%
G04 APERTURE END LIST*
D10*
%TO.P,CN4,1*%
%TO.N,Net-(CN4-Pad1)*%
X12000000Y-13000000D03*
D11*
%TO.P,CN4,2*%
%TO.N,Net-(CN4-Pad2)*%
X14540000Y-13000000D03*
%TO.P,CN4,3*%
%TO.N,Net-(CN4-Pad3)*%
X17080000Y-13000000D03*
%TO.P,CN4,4*%
%TO.N,Net-(CN4-Pad4)*%
X19620000Y-13000000D03*
%TD*%
D12*
%TO.P,CP1,1*%
%TO.N,+5V*%
X41000000Y-26500000D03*
D13*
%TO.P,CP1,2*%
%TO.N,GND*%
X41000000Y-29000000D03*
%TD*%
D10*
%TO.P,J1,1*%
%TO.N,Net-(CN2-Pad3)*%
X49080000Y-35750000D03*
D11*
%TO.P,J1,2*%
%TO.N,Net-(J1-Pad2)*%
X46540000Y-35750000D03*
%TO.P,J1,3*%
%TO.N,Net-(J1-Pad3)*%
X44000000Y-35750000D03*
%TD*%
%TO.P,MD1,1*%
%TO.N,Net-(CN2-Pad1)*%
X47470000Y-31250000D03*
%TO.P,MD1,2*%
%TO.N,Net-(J3-Pad5)*%
X50010000Y-31250000D03*
%TO.P,MD1,3*%
%TO.N,Net-(J3-Pad3)*%
X52550000Y-31250000D03*
%TO.P,MD1,4*%
%TO.N,Net-(J3-Pad1)*%
X55090000Y-31250000D03*
%TO.P,MD1,5*%
%TO.N,Net-(MD1-Pad5)*%
X57630000Y-31250000D03*
%TO.P,MD1,6*%
X60170000Y-31250000D03*
%TO.P,MD1,7*%
%TO.N,Net-(CN2-Pad2)*%
X62710000Y-31250000D03*
%TO.P,MD1,8*%
%TO.N,Net-(J1-Pad2)*%
X65250000Y-31250000D03*
%TO.P,MD1,9*%
%TO.N,GND*%
X65250000Y-18550000D03*
%TO.P,MD1,10*%
%TO.N,+5V*%
X62710000Y-18550000D03*
%TO.P,MD1,11*%
%TO.N,Net-(CN3-Pad1)*%
X60170000Y-18550000D03*
%TO.P,MD1,12*%
%TO.N,Net-(CN3-Pad2)*%
X57630000Y-18550000D03*
%TO.P,MD1,13*%
%TO.N,Net-(CN3-Pad3)*%
X55090000Y-18550000D03*
%TO.P,MD1,14*%
%TO.N,Net-(CN3-Pad4)*%
X52550000Y-18550000D03*
%TO.P,MD1,15*%
%TO.N,GND*%
X50010000Y-18550000D03*
%TO.P,MD1,16*%
%TO.N,+12V*%
X47470000Y-18550000D03*
%TD*%
%TO.P,MD2,1*%
%TO.N,Net-(CN2-Pad4)*%
X11250000Y-31000000D03*
%TO.P,MD2,2*%
%TO.N,Net-(J4-Pad5)*%
X13790000Y-31000000D03*
%TO.P,MD2,3*%
%TO.N,Net-(J4-Pad3)*%
X16330000Y-31000000D03*
%TO.P,MD2,4*%
%TO.N,Net-(J4-Pad1)*%
X18870000Y-31000000D03*
%TO.P,MD2,5*%
%TO.N,Net-(MD2-Pad5)*%
X21410000Y-31000000D03*
%TO.P,MD2,6*%
X23950000Y-31000000D03*
%TO.P,MD2,7*%
%TO.N,Net-(CN2-Pad5)*%
X26490000Y-31000000D03*
%TO.P,MD2,8*%
%TO.N,Net-(J2-Pad2)*%
X29030000Y-31000000D03*
%TO.P,MD2,9*%
%TO.N,GND*%
X29030000Y-18300000D03*
%TO.P,MD2,10*%
%TO.N,+5V*%
X26490000Y-18300000D03*
%TO.P,MD2,11*%
%TO.N,Net-(CN4-Pad1)*%
X23950000Y-18300000D03*
%TO.P,MD2,12*%
%TO.N,Net-(CN4-Pad2)*%
X21410000Y-18300000D03*
%TO.P,MD2,13*%
%TO.N,Net-(CN4-Pad3)*%
X18870000Y-18300000D03*
%TO.P,MD2,14*%
%TO.N,Net-(CN4-Pad4)*%
X16330000Y-18300000D03*
%TO.P,MD2,15*%
%TO.N,GND*%
X13790000Y-18300000D03*
%TO.P,MD2,16*%
%TO.N,+12V*%
X11250000Y-18300000D03*
%TD*%
D14*
%TO.P,Q1,1*%
%TO.N,Net-(J1-Pad3)*%
X41080000Y-35750000D03*
D15*
%TO.P,Q1,2*%
%TO.N,Net-(Q1-Pad2)*%
X38540000Y-35750000D03*
%TO.P,Q1,3*%
%TO.N,GND*%
X36000000Y-35750000D03*
%TD*%
D14*
%TO.P,Q2,1*%
%TO.N,Net-(J2-Pad3)*%
X28879800Y-36474400D03*
D15*
%TO.P,Q2,2*%
%TO.N,Net-(Q2-Pad2)*%
X31419800Y-36474400D03*
%TO.P,Q2,3*%
%TO.N,GND*%
X33959800Y-36474400D03*
%TD*%
D16*
%TO.P,R2,1*%
%TO.N,+5V*%
X11250000Y-23420000D03*
D17*
%TO.P,R2,2*%
%TO.N,Net-(CN2-Pad4)*%
X11250000Y-28500000D03*
%TD*%
D16*
%TO.P,R4,1*%
%TO.N,Net-(Q2-Pad2)*%
X25000000Y-38750000D03*
D17*
%TO.P,R4,2*%
%TO.N,Net-(CN2-Pad6)*%
X19920000Y-38750000D03*
%TD*%
D16*
%TO.P,R6,1*%
%TO.N,Net-(J2-Pad2)*%
X29000000Y-28500000D03*
D17*
%TO.P,R6,2*%
%TO.N,+5V*%
X29000000Y-23420000D03*
%TD*%
D16*
%TO.P,R11,1*%
%TO.N,Net-(J4-Pad3)*%
X16250000Y-28500000D03*
D17*
%TO.P,R11,2*%
%TO.N,GND*%
X16250000Y-23420000D03*
%TD*%
D18*
%TO.P,REF\u002A\u002A,*%
%TO.N,*%
X5000000Y-1775000D03*
X1775000Y-5000000D03*
X2719581Y-2719581D03*
X7280419Y-7280419D03*
X2719581Y-7280419D03*
X8225000Y-5000000D03*
X5000000Y-8225000D03*
X7280419Y-2719581D03*
D19*
%TO.P,REF\u002A\u002A,1*%
%TO.N,N/C*%
X5000000Y-5000000D03*
%TD*%
D18*
%TO.P,REF\u002A\u002A,*%
%TO.N,*%
X61719581Y-7280419D03*
X61719581Y-2719581D03*
X66280419Y-2719581D03*
X64000000Y-1775000D03*
X64000000Y-8225000D03*
X60775000Y-5000000D03*
X66280419Y-7280419D03*
X67225000Y-5000000D03*
D19*
%TO.P,REF\u002A\u002A,1*%
%TO.N,N/C*%
X64000000Y-5000000D03*
%TD*%
D18*
%TO.P,REF\u002A\u002A,*%
%TO.N,*%
X8225000Y-38000000D03*
X7280419Y-40280419D03*
X5000000Y-34775000D03*
X1775000Y-38000000D03*
X5000000Y-41225000D03*
X7280419Y-35719581D03*
X2719581Y-35719581D03*
X2719581Y-40280419D03*
D19*
%TO.P,REF\u002A\u002A,1*%
%TO.N,N/C*%
X5000000Y-38000000D03*
%TD*%
D18*
%TO.P,REF\u002A\u002A,*%
%TO.N,*%
X64000000Y-41225000D03*
X67225000Y-38000000D03*
X66280419Y-40280419D03*
X60775000Y-38000000D03*
X61719581Y-40280419D03*
X64000000Y-34775000D03*
X66280419Y-35719581D03*
X61719581Y-35719581D03*
D19*
%TO.P,REF\u002A\u002A,1*%
%TO.N,N/C*%
X64000000Y-38000000D03*
%TD*%
D10*
%TO.P,J4,1*%
%TO.N,Net-(J4-Pad1)*%
X16500000Y-35500000D03*
D11*
%TO.P,J4,2*%
%TO.N,+5V*%
X16500000Y-38040000D03*
%TO.P,J4,3*%
%TO.N,Net-(J4-Pad3)*%
X13960000Y-35500000D03*
%TO.P,J4,4*%
%TO.N,+5V*%
X13960000Y-38040000D03*
%TO.P,J4,5*%
%TO.N,Net-(J4-Pad5)*%
X11420000Y-35500000D03*
%TO.P,J4,6*%
%TO.N,+5V*%
X11420000Y-38040000D03*
%TD*%
D16*
%TO.P,R3,1*%
%TO.N,Net-(Q1-Pad2)*%
X44000000Y-39000000D03*
D17*
%TO.P,R3,2*%
%TO.N,Net-(CN2-Pad3)*%
X49080000Y-39000000D03*
%TD*%
D16*
%TO.P,R10,1*%
%TO.N,Net-(J4-Pad5)*%
X13750000Y-28500000D03*
D17*
%TO.P,R10,2*%
%TO.N,GND*%
X13750000Y-23420000D03*
%TD*%
D16*
%TO.P,R12,1*%
%TO.N,Net-(J4-Pad1)*%
X18750000Y-28500000D03*
D17*
%TO.P,R12,2*%
%TO.N,GND*%
X18750000Y-23420000D03*
%TD*%
D10*
%TO.P,J2,1*%
%TO.N,Net-(CN2-Pad6)*%
X20000000Y-35500000D03*
D11*
%TO.P,J2,2*%
%TO.N,Net-(J2-Pad2)*%
X22540000Y-35500000D03*
%TO.P,J2,3*%
%TO.N,Net-(J2-Pad3)*%
X25080000Y-35500000D03*
%TD*%
D16*
%TO.P,R8,1*%
%TO.N,Net-(J3-Pad3)*%
X52500000Y-28580000D03*
D17*
%TO.P,R8,2*%
%TO.N,GND*%
X52500000Y-23500000D03*
%TD*%
D10*
%TO.P,J3,1*%
%TO.N,Net-(J3-Pad1)*%
X57750000Y-35750000D03*
D11*
%TO.P,J3,2*%
%TO.N,+5V*%
X57750000Y-38290000D03*
%TO.P,J3,3*%
%TO.N,Net-(J3-Pad3)*%
X55210000Y-35750000D03*
%TO.P,J3,4*%
%TO.N,+5V*%
X55210000Y-38290000D03*
%TO.P,J3,5*%
%TO.N,Net-(J3-Pad5)*%
X52670000Y-35750000D03*
%TO.P,J3,6*%
%TO.N,+5V*%
X52670000Y-38290000D03*
%TD*%
D16*
%TO.P,R7,1*%
%TO.N,Net-(J3-Pad5)*%
X50000000Y-28500000D03*
D17*
%TO.P,R7,2*%
%TO.N,GND*%
X50000000Y-23420000D03*
%TD*%
D16*
%TO.P,R9,1*%
%TO.N,Net-(J3-Pad1)*%
X55000000Y-28580000D03*
D17*
%TO.P,R9,2*%
%TO.N,GND*%
X55000000Y-23500000D03*
%TD*%
D16*
%TO.P,R1,1*%
%TO.N,+5V*%
X47500000Y-23420000D03*
D17*
%TO.P,R1,2*%
%TO.N,Net-(CN2-Pad1)*%
X47500000Y-28500000D03*
%TD*%
D16*
%TO.P,R5,1*%
%TO.N,Net-(J1-Pad2)*%
X65250000Y-28750000D03*
D17*
%TO.P,R5,2*%
%TO.N,+5V*%
X65250000Y-23670000D03*
%TD*%
D12*
%TO.P,CP3,1*%
%TO.N,+12V*%
X4292600Y-16154400D03*
D13*
%TO.P,CP3,2*%
%TO.N,GND*%
X4292600Y-12654400D03*
%TD*%
D20*
%TO.P,C2,1*%
%TO.N,GND*%
X29000000Y-14250000D03*
D21*
%TO.P,C2,2*%
%TO.N,+5V*%
X24000000Y-14250000D03*
%TD*%
D20*
%TO.P,C4,1*%
%TO.N,GND*%
X66500000Y-14500000D03*
D21*
%TO.P,C4,2*%
%TO.N,+5V*%
X61500000Y-14500000D03*
%TD*%
D10*
%TO.P,CN3,1*%
%TO.N,Net-(CN3-Pad1)*%
X49380000Y-13000000D03*
D11*
%TO.P,CN3,2*%
%TO.N,Net-(CN3-Pad2)*%
X51920000Y-13000000D03*
%TO.P,CN3,3*%
%TO.N,Net-(CN3-Pad3)*%
X54460000Y-13000000D03*
%TO.P,CN3,4*%
%TO.N,Net-(CN3-Pad4)*%
X57000000Y-13000000D03*
%TD*%
D22*
%TO.P,CN2,1*%
%TO.N,Net-(CN2-Pad1)*%
X28090000Y-6540000D03*
D23*
%TO.P,CN2,2*%
%TO.N,Net-(CN2-Pad2)*%
X28090000Y-4000000D03*
%TO.P,CN2,3*%
%TO.N,Net-(CN2-Pad3)*%
X30630000Y-6540000D03*
%TO.P,CN2,4*%
%TO.N,Net-(CN2-Pad4)*%
X30630000Y-4000000D03*
%TO.P,CN2,5*%
%TO.N,Net-(CN2-Pad5)*%
X33170000Y-6540000D03*
%TO.P,CN2,6*%
%TO.N,Net-(CN2-Pad6)*%
X33170000Y-4000000D03*
%TO.P,CN2,7*%
%TO.N,+5V*%
X35710000Y-6540000D03*
%TO.P,CN2,8*%
%TO.N,GND*%
X35710000Y-4000000D03*
%TO.P,CN2,9*%
%TO.N,+12V*%
X38250000Y-6540000D03*
%TO.P,CN2,10*%
%TO.N,GND*%
X38250000Y-4000000D03*
%TO.P,CN2,11*%
%TO.N,+12V*%
X40790000Y-6540000D03*
%TO.P,CN2,12*%
%TO.N,GND*%
X40790000Y-4000000D03*
%TD*%
D16*
%TO.P,R13,1*%
%TO.N,+5V*%
X60250000Y-23670000D03*
D17*
%TO.P,R13,2*%
%TO.N,Net-(MD1-Pad5)*%
X60250000Y-28750000D03*
%TD*%
D16*
%TO.P,R14,1*%
%TO.N,+5V*%
X24000000Y-23420000D03*
D17*
%TO.P,R14,2*%
%TO.N,Net-(MD2-Pad5)*%
X24000000Y-28500000D03*
%TD*%
D20*
%TO.P,C1,1*%
%TO.N,GND*%
X43250000Y-21750000D03*
D21*
%TO.P,C1,2*%
%TO.N,+12V*%
X43250000Y-16750000D03*
%TD*%
D24*
%TO.P,CN1,1*%
%TO.N,GND*%
X3987800Y-23876000D03*
D25*
%TO.P,CN1,2*%
%TO.N,+12V*%
X3987800Y-26416000D03*
%TO.P,CN1,3*%
%TO.N,Net-(CN1-Pad3)*%
X3987800Y-28956000D03*
%TD*%
D12*
%TO.P,CP2,1*%
%TO.N,+12V*%
X37236400Y-17988400D03*
D13*
%TO.P,CP2,2*%
%TO.N,GND*%
X37236400Y-21488400D03*
%TD*%
D20*
%TO.P,C3,1*%
%TO.N,GND*%
X2000000Y-20500000D03*
D21*
%TO.P,C3,2*%
%TO.N,+12V*%
X7000000Y-20500000D03*
%TD*%
D26*
%TO.N,GND*%
X24000000Y-7250000D03*
X43000000Y-28500000D03*
X38750000Y-11000000D03*
X24000000Y-5750000D03*
X34925000Y-20955000D03*
X43205400Y-8750000D03*
X9500000Y-41500000D03*
X21183600Y-23444200D03*
X7747000Y-32004000D03*
X39032577Y-29718000D03*
X27000200Y-40005000D03*
X31000000Y-9347200D03*
X45847000Y-20701000D03*
X21336000Y-28702000D03*
X43688000Y-23876000D03*
X34925000Y-22479000D03*
X39000000Y-28500000D03*
X34036000Y-15875000D03*
X44250000Y-11000000D03*
X33909000Y-31496000D03*
X43000000Y-29750000D03*
X44250000Y-9500000D03*
X37750000Y-10250000D03*
X24000000Y-8750000D03*
X38750000Y-9500000D03*
X43250000Y-11750000D03*
X37750000Y-11750000D03*
X59250000Y-41500000D03*
X37750000Y-8750000D03*
X32512000Y-31496000D03*
X43205400Y-10250000D03*
X48488600Y-26136600D03*
X44250000Y-12500000D03*
X26695400Y-24765000D03*
X34000000Y-34250000D03*
%TO.N,Net-(CN2-Pad2)*%
X58851800Y-32918400D03*
%TO.N,Net-(CN2-Pad3)*%
X45720000Y-29692600D03*
%TO.N,Net-(CN2-Pad5)*%
X25984200Y-4013200D03*
%TD*%
D27*
%TO.N,+12V*%
X11250000Y-20038400D02*
X11252200Y-20853400D01*
X7353400Y-20853400D02*
X7000000Y-20500000D01*
X45050000Y-18550000D02*
X43250000Y-16750000D01*
X31597600Y-20904200D02*
X34501800Y-18000000D01*
X6502800Y-26416000D02*
X7000000Y-25918800D01*
X7000000Y-20500000D02*
X5564800Y-20500000D01*
X40790000Y-6540000D02*
X40790000Y-12600800D01*
X42016800Y-17983200D02*
X37998400Y-17983200D01*
X11250000Y-18300000D02*
X11250000Y-20038400D01*
X37250000Y-16140800D02*
X37250000Y-18000000D01*
X3987800Y-26416000D02*
X6502800Y-26416000D01*
X37998400Y-17983200D02*
X37266800Y-17983200D01*
X34501800Y-18000000D02*
X37250000Y-18000000D01*
X4292600Y-19227800D02*
X4292600Y-16154400D01*
X38250000Y-6540000D02*
X40790000Y-6540000D01*
X37236400Y-17988400D02*
X37993200Y-17988400D01*
X47470000Y-18550000D02*
X45050000Y-18550000D01*
X5564800Y-20500000D02*
X4292600Y-19227800D01*
X37266800Y-17983200D02*
X37250000Y-18000000D01*
X7000000Y-25918800D02*
X7000000Y-20500000D01*
X40790000Y-12600800D02*
X37250000Y-16140800D01*
X13182600Y-20904200D02*
X31597600Y-20904200D01*
X37993200Y-17988400D02*
X37998400Y-17983200D01*
X11252200Y-20853400D02*
X7353400Y-20853400D01*
X11252200Y-20853400D02*
X13182600Y-20904200D01*
X43250000Y-16750000D02*
X42016800Y-17983200D01*
%TO.N,+5V*%
X60250000Y-21182400D02*
X60325000Y-21107400D01*
X62710000Y-15710000D02*
X61500000Y-14500000D01*
X35237600Y-26500000D02*
X41000000Y-26500000D01*
X24000000Y-14250000D02*
X25349800Y-14250000D01*
X62687400Y-21107400D02*
X62280800Y-21107400D01*
X60250000Y-23670000D02*
X60250000Y-21182400D01*
X44420000Y-26500000D02*
X47500000Y-23420000D01*
X25349800Y-14250000D02*
X26490000Y-15390200D01*
X62710000Y-20678200D02*
X62710000Y-18550000D01*
X32157600Y-23420000D02*
X35237600Y-26500000D01*
X48234600Y-21107400D02*
X60325000Y-21107400D01*
X60325000Y-21107400D02*
X62280800Y-21107400D01*
X62280800Y-21107400D02*
X62710000Y-20678200D01*
X47500000Y-23420000D02*
X47500000Y-21842000D01*
X47500000Y-21842000D02*
X48234600Y-21107400D01*
X29000000Y-23420000D02*
X32157600Y-23420000D01*
X65250000Y-23670000D02*
X62687400Y-21107400D01*
X62710000Y-18550000D02*
X62710000Y-15710000D01*
X26490000Y-15390200D02*
X26490000Y-18300000D01*
X41000000Y-26500000D02*
X44420000Y-26500000D01*
D28*
%TO.N,Net-(CN2-Pad1)*%
X47500000Y-31220000D02*
X47470000Y-31250000D01*
X47500000Y-28500000D02*
X47500000Y-31220000D01*
%TO.N,Net-(CN2-Pad2)*%
X61041600Y-32918400D02*
X62710000Y-31250000D01*
X58851800Y-32918400D02*
X61041600Y-32918400D01*
%TO.N,Net-(CN2-Pad3)*%
X48539400Y-33045400D02*
X49080000Y-33586000D01*
X45720000Y-32080200D02*
X46685200Y-33045400D01*
X45720000Y-29692600D02*
X45720000Y-32080200D01*
X49080000Y-39000000D02*
X49080000Y-35750000D01*
X49080000Y-33586000D02*
X49080000Y-35750000D01*
X46685200Y-33045400D02*
X48539400Y-33045400D01*
%TO.N,Net-(CN2-Pad4)*%
X11250000Y-31000000D02*
X11250000Y-28500000D01*
%TO.N,Net-(CN2-Pad5)*%
X33170000Y-6540000D02*
X31810600Y-7899400D01*
X26670000Y-4699000D02*
X25984200Y-4013200D01*
X26670000Y-7657202D02*
X26670000Y-4699000D01*
X26912198Y-7899400D02*
X26670000Y-7657202D01*
X31810600Y-7899400D02*
X26912198Y-7899400D01*
%TO.N,Net-(CN2-Pad6)*%
X19920000Y-35580000D02*
X20000000Y-35500000D01*
X19920000Y-38750000D02*
X19920000Y-35580000D01*
D29*
%TO.N,Net-(CN3-Pad2)*%
X53035200Y-10033000D02*
X58674000Y-10033000D01*
X51920000Y-13000000D02*
X51920000Y-11224400D01*
X51920000Y-11224400D02*
X53035200Y-10033000D01*
X57630000Y-15572800D02*
X57630000Y-18550000D01*
X59740800Y-13843000D02*
X57630000Y-15572800D01*
X59766200Y-11049000D02*
X59740800Y-13843000D01*
X58674000Y-10033000D02*
X59766200Y-11049000D01*
%TO.N,Net-(CN3-Pad3)*%
X54460000Y-13000000D02*
X54460000Y-15394800D01*
X55090000Y-16024800D02*
X55090000Y-18550000D01*
X54460000Y-15394800D02*
X55090000Y-16024800D01*
%TO.N,Net-(CN4-Pad3)*%
X17080000Y-13000000D02*
X17080000Y-14717800D01*
X18870000Y-16507800D02*
X18870000Y-18300000D01*
X17080000Y-14717800D02*
X18870000Y-16507800D01*
%TO.N,Net-(CN4-Pad2)*%
X20980400Y-9677400D02*
X21996400Y-10693400D01*
X21996400Y-10693400D02*
X21996400Y-15976600D01*
X15697200Y-9677400D02*
X20980400Y-9677400D01*
X21996400Y-15976600D02*
X21410000Y-16563000D01*
X21410000Y-16563000D02*
X21410000Y-18300000D01*
X14540000Y-13000000D02*
X14540000Y-10834600D01*
X14540000Y-10834600D02*
X15697200Y-9677400D01*
D28*
%TO.N,Net-(J1-Pad2)*%
X65250000Y-28750000D02*
X65250000Y-31250000D01*
%TO.N,Net-(J1-Pad3)*%
X41080000Y-35750000D02*
X44000000Y-35750000D01*
%TO.N,Net-(J2-Pad3)*%
X26054400Y-36474400D02*
X25080000Y-35500000D01*
X28879800Y-36474400D02*
X26054400Y-36474400D01*
%TO.N,Net-(J2-Pad2)*%
X22540000Y-35500000D02*
X22540000Y-33213000D01*
X29000000Y-30970000D02*
X29030000Y-31000000D01*
X28994800Y-31000000D02*
X29030000Y-31000000D01*
X23215600Y-32537400D02*
X27457400Y-32537400D01*
X29000000Y-28500000D02*
X29000000Y-30970000D01*
X22540000Y-33213000D02*
X23215600Y-32537400D01*
X27457400Y-32537400D02*
X28994800Y-31000000D01*
%TO.N,Net-(J3-Pad1)*%
X56032400Y-33832800D02*
X57480200Y-33832800D01*
X57480200Y-33832800D02*
X57750000Y-34102600D01*
X55090000Y-32890400D02*
X55090000Y-31250000D01*
X55000000Y-28580000D02*
X55000000Y-31160000D01*
X56032400Y-33832800D02*
X55090000Y-32890400D01*
X55000000Y-31160000D02*
X55090000Y-31250000D01*
X57750000Y-35750000D02*
X57750000Y-34102600D01*
%TO.N,Net-(J3-Pad3)*%
X52550000Y-32865000D02*
X52550000Y-31250000D01*
X52500000Y-31200000D02*
X52550000Y-31250000D01*
X55210000Y-35750000D02*
X55210000Y-34204200D01*
X54787800Y-33782000D02*
X55210000Y-34204200D01*
X53467000Y-33782000D02*
X54787800Y-33782000D01*
X53467000Y-33782000D02*
X52550000Y-32865000D01*
X52500000Y-28580000D02*
X52500000Y-31200000D01*
%TO.N,Net-(J3-Pad5)*%
X50571400Y-33731200D02*
X50010000Y-33169800D01*
X50000000Y-31240000D02*
X50010000Y-31250000D01*
X50000000Y-28500000D02*
X50000000Y-31240000D01*
X52095400Y-33731200D02*
X50571400Y-33731200D01*
X52670000Y-34305800D02*
X52095400Y-33731200D01*
X52670000Y-35750000D02*
X52670000Y-34305800D01*
X50010000Y-33169800D02*
X50010000Y-31250000D01*
%TO.N,Net-(J4-Pad5)*%
X13081000Y-33451800D02*
X13790000Y-32742800D01*
X11420000Y-35500000D02*
X11420000Y-34071400D01*
X12039600Y-33451800D02*
X13081000Y-33451800D01*
X13790000Y-28540000D02*
X13750000Y-28500000D01*
X13790000Y-31000000D02*
X13790000Y-28540000D01*
X13790000Y-32742800D02*
X13790000Y-31000000D01*
X11420000Y-34071400D02*
X12039600Y-33451800D01*
%TO.N,Net-(J4-Pad3)*%
X16330000Y-31000000D02*
X16330000Y-28580000D01*
X14605000Y-33299400D02*
X15671800Y-33299400D01*
X16330000Y-32641200D02*
X16330000Y-31000000D01*
X13960000Y-33944400D02*
X14605000Y-33299400D01*
X13960000Y-35500000D02*
X13960000Y-33944400D01*
X15671800Y-33299400D02*
X16330000Y-32641200D01*
X16330000Y-28580000D02*
X16250000Y-28500000D01*
%TO.N,Net-(J4-Pad1)*%
X18870000Y-28620000D02*
X18750000Y-28500000D01*
X17043400Y-33248600D02*
X18237200Y-33248600D01*
X18237200Y-33248600D02*
X18870000Y-32615800D01*
X18870000Y-31000000D02*
X18870000Y-28620000D01*
X16500000Y-33792000D02*
X17043400Y-33248600D01*
X16500000Y-35500000D02*
X16500000Y-33792000D01*
X18870000Y-32615800D02*
X18870000Y-31000000D01*
%TO.N,Net-(MD1-Pad5)*%
X60250000Y-28750000D02*
X60250000Y-31170000D01*
X60250000Y-31170000D02*
X60170000Y-31250000D01*
X60170000Y-31250000D02*
X57630000Y-31250000D01*
%TO.N,Net-(MD2-Pad5)*%
X23950000Y-31000000D02*
X23950000Y-28550000D01*
X23950000Y-31000000D02*
X21410000Y-31000000D01*
X23950000Y-28550000D02*
X24000000Y-28500000D01*
%TO.N,Net-(Q1-Pad2)*%
X41960001Y-36960001D02*
X39750001Y-36960001D01*
X39750001Y-36960001D02*
X38540000Y-35750000D01*
X44000000Y-39000000D02*
X41960001Y-36960001D01*
%TO.N,Net-(Q2-Pad2)*%
X25000000Y-38750000D02*
X25954800Y-37795200D01*
X25954800Y-37795200D02*
X30099000Y-37795200D01*
X30099000Y-37795200D02*
X31419800Y-36474400D01*
%TD*%
%TA.AperFunction,Conductor*%
%TO.N,GND*%
G36*
X61577192Y-528002D02*
G01*
X61623685Y-581658D01*
X61633789Y-651932D01*
X61604295Y-716512D01*
X61571785Y-743284D01*
X61371534Y-858201D01*
X61369242Y-859803D01*
X61369234Y-859808D01*
X61271057Y-928425D01*
X61013758Y-1108254D01*
X60679626Y-1389121D01*
X60371785Y-1698578D01*
X60092671Y-2034176D01*
X59844495Y-2393257D01*
X59629222Y-2772977D01*
X59448556Y-3170331D01*
X59447631Y-3172965D01*
X59447627Y-3172975D01*
X59403769Y-3297865D01*
X59303928Y-3582172D01*
X59303236Y-3584897D01*
X59197813Y-4000000D01*
X59196482Y-4005239D01*
X59127070Y-4436183D01*
X59096242Y-4871591D01*
X59104241Y-5308015D01*
X59151004Y-5742001D01*
X59151550Y-5744744D01*
X59151551Y-5744753D01*
X59235615Y-6167373D01*
X59236160Y-6170111D01*
X59359036Y-6588957D01*
X59360056Y-6591553D01*
X59360057Y-6591556D01*
X59508242Y-6968711D01*
X59518658Y-6995222D01*
X59713764Y-7385689D01*
X59942807Y-7757266D01*
X60203974Y-8107011D01*
X60205835Y-8109089D01*
X60205836Y-8109090D01*
X60479585Y-8414724D01*
X60495198Y-8432156D01*
X60497235Y-8434059D01*
X60497242Y-8434066D01*
X60685691Y-8610105D01*
X60814172Y-8730125D01*
X60816368Y-8731838D01*
X60816372Y-8731841D01*
X60859906Y-8765792D01*
X61158372Y-8998560D01*
X61208308Y-9030803D01*
X61522727Y-9233821D01*
X61522735Y-9233826D01*
X61525071Y-9235334D01*
X61911366Y-9438574D01*
X61913959Y-9439656D01*
X62311614Y-9605592D01*
X62311619Y-9605594D01*
X62314198Y-9606670D01*
X62316863Y-9607513D01*
X62316869Y-9607515D01*
X62543094Y-9679060D01*
X62730379Y-9738290D01*
X62733109Y-9738893D01*
X62733110Y-9738893D01*
X63117157Y-9823683D01*
X63156612Y-9832394D01*
X63159386Y-9832752D01*
X63159387Y-9832752D01*
X63586752Y-9887878D01*
X63586762Y-9887879D01*
X63589523Y-9888235D01*
X63592310Y-9888345D01*
X63592316Y-9888345D01*
X63845621Y-9898297D01*
X64025685Y-9905372D01*
X64028476Y-9905233D01*
X64028482Y-9905233D01*
X64458839Y-9883808D01*
X64458848Y-9883807D01*
X64461643Y-9883668D01*
X64464420Y-9883280D01*
X64464422Y-9883280D01*
X64539233Y-9872833D01*
X64893945Y-9823297D01*
X64896655Y-9822669D01*
X64896665Y-9822667D01*
X65316443Y-9725367D01*
X65319170Y-9724735D01*
X65537089Y-9653298D01*
X65731296Y-9589634D01*
X65731302Y-9589632D01*
X65733949Y-9588764D01*
X66042628Y-9456145D01*
X66132426Y-9417565D01*
X66132428Y-9417564D01*
X66135000Y-9416459D01*
X66519145Y-9209185D01*
X66883345Y-8968584D01*
X67224714Y-8696559D01*
X67540551Y-8395266D01*
X67542388Y-8393172D01*
X67542396Y-8393163D01*
X67826505Y-8069198D01*
X67828354Y-8067090D01*
X67830006Y-8064829D01*
X67830013Y-8064820D01*
X68084186Y-7716898D01*
X68084189Y-7716893D01*
X68085844Y-7714628D01*
X68087288Y-7712230D01*
X68087295Y-7712219D01*
X68258054Y-7428589D01*
X68310326Y-7380545D01*
X68380274Y-7368389D01*
X68445690Y-7395979D01*
X68485805Y-7454556D01*
X68492000Y-7493578D01*
X68492000Y-35504640D01*
X68471998Y-35572761D01*
X68418342Y-35619254D01*
X68348068Y-35629358D01*
X68283488Y-35599864D01*
X68254800Y-35563890D01*
X68223635Y-35505400D01*
X68222318Y-35502928D01*
X68217186Y-35495070D01*
X67985167Y-35139833D01*
X67985164Y-35139829D01*
X67983626Y-35137474D01*
X67737773Y-34825611D01*
X67715122Y-34796878D01*
X67715120Y-34796876D01*
X67713393Y-34794685D01*
X67413758Y-34477275D01*
X67411667Y-34475422D01*
X67411659Y-34475414D01*
X67089193Y-34189619D01*
X67089191Y-34189617D01*
X67087093Y-34187758D01*
X67063773Y-34170533D01*
X66902841Y-34051667D01*
X66735985Y-33928425D01*
X66517894Y-33795563D01*
X66365602Y-33702786D01*
X66365595Y-33702782D01*
X66363213Y-33701331D01*
X66343035Y-33691380D01*
X66095105Y-33569115D01*
X65971730Y-33508273D01*
X65969134Y-33507268D01*
X65969121Y-33507263D01*
X65662178Y-33388517D01*
X65564635Y-33350780D01*
X65284702Y-33270246D01*
X65147833Y-33230870D01*
X65147827Y-33230869D01*
X65145152Y-33230099D01*
X65142415Y-33229570D01*
X65142409Y-33229568D01*
X64921030Y-33186737D01*
X64716601Y-33147185D01*
X64282377Y-33102695D01*
X64279587Y-33102658D01*
X64279579Y-33102658D01*
X64007264Y-33099094D01*
X63845916Y-33096982D01*
X63843116Y-33097195D01*
X63843115Y-33097195D01*
X63460291Y-33126315D01*
X63410676Y-33130089D01*
X62980102Y-33201757D01*
X62916869Y-33218169D01*
X62560321Y-33310710D01*
X62560310Y-33310713D01*
X62557603Y-33311416D01*
X62295015Y-33405177D01*
X62149168Y-33457254D01*
X62149163Y-33457256D01*
X62146525Y-33458198D01*
X62143985Y-33459369D01*
X62143980Y-33459371D01*
X62024095Y-33514639D01*
X61750123Y-33640942D01*
X61747694Y-33642336D01*
X61747690Y-33642338D01*
X61707669Y-33665305D01*
X61638630Y-33681863D01*
X61571599Y-33658468D01*
X61527858Y-33602546D01*
X61521294Y-33531854D01*
X61553480Y-33469370D01*
X61578981Y-33442450D01*
X61581360Y-33440007D01*
X62188673Y-32832694D01*
X62250985Y-32798668D01*
X62307180Y-32799270D01*
X62375816Y-32815748D01*
X62454039Y-32834528D01*
X62454045Y-32834529D01*
X62458852Y-32835683D01*
X62710000Y-32855449D01*
X62961148Y-32835683D01*
X62965955Y-32834529D01*
X62965961Y-32834528D01*
X63135792Y-32793755D01*
X63206111Y-32776873D01*
X63210684Y-32774979D01*
X63434285Y-32682361D01*
X63434289Y-32682359D01*
X63438859Y-32680466D01*
X63653659Y-32548836D01*
X63657419Y-32545624D01*
X63657424Y-32545621D01*
X63841457Y-32388442D01*
X63841462Y-32388437D01*
X63845224Y-32385224D01*
X63872463Y-32353332D01*
X63884189Y-32339602D01*
X63943640Y-32300793D01*
X64014634Y-32300287D01*
X64075811Y-32339602D01*
X64087538Y-32353332D01*
X64114776Y-32385224D01*
X64118538Y-32388437D01*
X64118543Y-32388442D01*
X64302576Y-32545621D01*
X64302581Y-32545624D01*
X64306341Y-32548836D01*
X64521141Y-32680466D01*
X64525711Y-32682359D01*
X64525715Y-32682361D01*
X64749316Y-32774979D01*
X64753889Y-32776873D01*
X64824208Y-32793755D01*
X64994039Y-32834528D01*
X64994045Y-32834529D01*
X64998852Y-32835683D01*
X65250000Y-32855449D01*
X65501148Y-32835683D01*
X65505955Y-32834529D01*
X65505961Y-32834528D01*
X65675792Y-32793755D01*
X65746111Y-32776873D01*
X65750684Y-32774979D01*
X65974285Y-32682361D01*
X65974289Y-32682359D01*
X65978859Y-32680466D01*
X66193659Y-32548836D01*
X66197419Y-32545624D01*
X66197424Y-32545621D01*
X66381462Y-32388437D01*
X66385224Y-32385224D01*
X66424189Y-32339602D01*
X66545621Y-32197424D01*
X66545624Y-32197419D01*
X66548836Y-32193659D01*
X66680466Y-31978859D01*
X66695047Y-31943659D01*
X66774979Y-31750684D01*
X66774980Y-31750682D01*
X66776873Y-31746111D01*
X66835683Y-31501148D01*
X66855449Y-31250000D01*
X66835683Y-30998852D01*
X66776873Y-30753889D01*
X66750718Y-30690744D01*
X66682361Y-30525715D01*
X66682359Y-30525711D01*
X66680466Y-30521141D01*
X66548836Y-30306341D01*
X66545624Y-30302581D01*
X66545621Y-30302576D01*
X66388437Y-30118538D01*
X66385224Y-30114776D01*
X66351604Y-30086062D01*
X66197424Y-29954379D01*
X66197419Y-29954375D01*
X66193659Y-29951164D01*
X66189444Y-29948581D01*
X66189437Y-29948576D01*
X66140430Y-29918545D01*
X66092798Y-29865898D01*
X66081191Y-29795856D01*
X66109294Y-29730659D01*
X66117169Y-29722017D01*
X66250047Y-29589139D01*
X66380568Y-29402734D01*
X66394890Y-29372022D01*
X66474416Y-29201478D01*
X66474417Y-29201476D01*
X66476739Y-29196496D01*
X66505463Y-29089298D01*
X66534211Y-28982007D01*
X66534211Y-28982005D01*
X66535635Y-28976692D01*
X66555468Y-28750000D01*
X66535635Y-28523308D01*
X66491552Y-28358788D01*
X66478162Y-28308814D01*
X66478161Y-28308812D01*
X66476739Y-28303504D01*
X66468411Y-28285644D01*
X66382891Y-28102247D01*
X66382889Y-28102244D01*
X66380568Y-28097266D01*
X66250047Y-27910861D01*
X66089139Y-27749953D01*
X65902734Y-27619432D01*
X65897756Y-27617111D01*
X65897753Y-27617109D01*
X65701478Y-27525584D01*
X65701476Y-27525583D01*
X65696496Y-27523261D01*
X65691188Y-27521839D01*
X65691186Y-27521838D01*
X65482007Y-27465789D01*
X65482005Y-27465789D01*
X65476692Y-27464365D01*
X65250000Y-27444532D01*
X65023308Y-27464365D01*
X65017995Y-27465789D01*
X65017993Y-27465789D01*
X64808814Y-27521838D01*
X64808812Y-27521839D01*
X64803504Y-27523261D01*
X64798524Y-27525583D01*
X64798522Y-27525584D01*
X64602247Y-27617109D01*
X64602244Y-27617111D01*
X64597266Y-27619432D01*
X64410861Y-27749953D01*
X64249953Y-27910861D01*
X64119432Y-28097266D01*
X64117111Y-28102244D01*
X64117109Y-28102247D01*
X64031589Y-28285644D01*
X64023261Y-28303504D01*
X64021839Y-28308812D01*
X64021838Y-28308814D01*
X64008448Y-28358788D01*
X63964365Y-28523308D01*
X63944532Y-28750000D01*
X63964365Y-28976692D01*
X63965789Y-28982005D01*
X63965789Y-28982007D01*
X63994538Y-29089298D01*
X64023261Y-29196496D01*
X64025583Y-29201476D01*
X64025584Y-29201478D01*
X64105111Y-29372022D01*
X64119432Y-29402734D01*
X64249953Y-29589139D01*
X64382831Y-29722017D01*
X64416857Y-29784329D01*
X64411792Y-29855144D01*
X64369245Y-29911980D01*
X64359570Y-29918545D01*
X64310563Y-29948576D01*
X64310556Y-29948581D01*
X64306341Y-29951164D01*
X64302581Y-29954375D01*
X64302576Y-29954379D01*
X64118543Y-30111558D01*
X64118538Y-30111563D01*
X64114776Y-30114776D01*
X64111563Y-30118538D01*
X64111561Y-30118540D01*
X64075811Y-30160398D01*
X64016360Y-30199207D01*
X63945366Y-30199713D01*
X63884189Y-30160398D01*
X63848439Y-30118540D01*
X63848437Y-30118538D01*
X63845224Y-30114776D01*
X63841462Y-30111563D01*
X63841457Y-30111558D01*
X63657424Y-29954379D01*
X63657419Y-29954376D01*
X63653659Y-29951164D01*
X63438859Y-29819534D01*
X63434289Y-29817641D01*
X63434285Y-29817639D01*
X63210684Y-29725021D01*
X63210682Y-29725020D01*
X63206111Y-29723127D01*
X63091719Y-29695664D01*
X62965961Y-29665472D01*
X62965955Y-29665471D01*
X62961148Y-29664317D01*
X62710000Y-29644551D01*
X62458852Y-29664317D01*
X62454045Y-29665471D01*
X62454039Y-29665472D01*
X62328281Y-29695664D01*
X62213889Y-29723127D01*
X62209318Y-29725020D01*
X62209316Y-29725021D01*
X61985715Y-29817639D01*
X61985711Y-29817641D01*
X61981141Y-29819534D01*
X61766341Y-29951164D01*
X61762581Y-29954376D01*
X61762576Y-29954379D01*
X61578543Y-30111558D01*
X61578538Y-30111563D01*
X61574776Y-30114776D01*
X61571563Y-30118538D01*
X61571561Y-30118540D01*
X61535811Y-30160398D01*
X61476360Y-30199207D01*
X61405366Y-30199713D01*
X61344189Y-30160398D01*
X61308439Y-30118540D01*
X61308437Y-30118538D01*
X61305224Y-30114776D01*
X61301462Y-30111563D01*
X61301457Y-30111558D01*
X61117424Y-29954379D01*
X61117419Y-29954375D01*
X61113659Y-29951164D01*
X61109442Y-29948580D01*
X61105429Y-29945664D01*
X61106107Y-29944730D01*
X61062141Y-29896137D01*
X61050532Y-29826096D01*
X61078632Y-29760897D01*
X61089281Y-29750189D01*
X61089139Y-29750047D01*
X61250047Y-29589139D01*
X61380568Y-29402734D01*
X61394890Y-29372022D01*
X61474416Y-29201478D01*
X61474417Y-29201476D01*
X61476739Y-29196496D01*
X61505463Y-29089298D01*
X61534211Y-28982007D01*
X61534211Y-28982005D01*
X61535635Y-28976692D01*
X61555468Y-28750000D01*
X61535635Y-28523308D01*
X61491552Y-28358788D01*
X61478162Y-28308814D01*
X61478161Y-28308812D01*
X61476739Y-28303504D01*
X61468411Y-28285644D01*
X61382891Y-28102247D01*
X61382889Y-28102244D01*
X61380568Y-28097266D01*
X61250047Y-27910861D01*
X61089139Y-27749953D01*
X60902734Y-27619432D01*
X60897756Y-27617111D01*
X60897753Y-27617109D01*
X60701478Y-27525584D01*
X60701476Y-27525583D01*
X60696496Y-27523261D01*
X60691188Y-27521839D01*
X60691186Y-27521838D01*
X60482007Y-27465789D01*
X60482005Y-27465789D01*
X60476692Y-27464365D01*
X60250000Y-27444532D01*
X60023308Y-27464365D01*
X60017995Y-27465789D01*
X60017993Y-27465789D01*
X59808814Y-27521838D01*
X59808812Y-27521839D01*
X59803504Y-27523261D01*
X59798524Y-27525583D01*
X59798522Y-27525584D01*
X59602247Y-27617109D01*
X59602244Y-27617111D01*
X59597266Y-27619432D01*
X59410861Y-27749953D01*
X59249953Y-27910861D01*
X59119432Y-28097266D01*
X59117111Y-28102244D01*
X59117109Y-28102247D01*
X59031589Y-28285644D01*
X59023261Y-28303504D01*
X59021839Y-28308812D01*
X59021838Y-28308814D01*
X59008448Y-28358788D01*
X58964365Y-28523308D01*
X58944532Y-28750000D01*
X58964365Y-28976692D01*
X58965789Y-28982005D01*
X58965789Y-28982007D01*
X58994538Y-29089298D01*
X59023261Y-29196496D01*
X59025583Y-29201476D01*
X59025584Y-29201478D01*
X59105111Y-29372022D01*
X59119432Y-29402734D01*
X59249953Y-29589139D01*
X59352434Y-29691620D01*
X59386460Y-29753932D01*
X59381395Y-29824747D01*
X59338848Y-29881583D01*
X59329179Y-29888145D01*
X59226341Y-29951164D01*
X59222581Y-29954376D01*
X59222576Y-29954379D01*
X59038543Y-30111558D01*
X59038538Y-30111563D01*
X59034776Y-30114776D01*
X59031563Y-30118538D01*
X59031561Y-30118540D01*
X58995811Y-30160398D01*
X58936360Y-30199207D01*
X58865366Y-30199713D01*
X58804189Y-30160398D01*
X58768439Y-30118540D01*
X58768437Y-30118538D01*
X58765224Y-30114776D01*
X58761462Y-30111563D01*
X58761457Y-30111558D01*
X58577424Y-29954379D01*
X58577419Y-29954376D01*
X58573659Y-29951164D01*
X58358859Y-29819534D01*
X58354289Y-29817641D01*
X58354285Y-29817639D01*
X58130684Y-29725021D01*
X58130682Y-29725020D01*
X58126111Y-29723127D01*
X58011719Y-29695664D01*
X57885961Y-29665472D01*
X57885955Y-29665471D01*
X57881148Y-29664317D01*
X57630000Y-29644551D01*
X57378852Y-29664317D01*
X57374045Y-29665471D01*
X57374039Y-29665472D01*
X57248281Y-29695664D01*
X57133889Y-29723127D01*
X57129318Y-29725020D01*
X57129316Y-29725021D01*
X56905715Y-29817639D01*
X56905711Y-29817641D01*
X56901141Y-29819534D01*
X56686341Y-29951164D01*
X56682581Y-29954376D01*
X56682576Y-29954379D01*
X56498543Y-30111558D01*
X56498538Y-30111563D01*
X56494776Y-30114776D01*
X56491563Y-30118538D01*
X56491561Y-30118540D01*
X56455811Y-30160398D01*
X56396360Y-30199207D01*
X56325366Y-30199713D01*
X56264189Y-30160398D01*
X56228439Y-30118540D01*
X56228437Y-30118538D01*
X56225224Y-30114776D01*
X56221462Y-30111563D01*
X56221457Y-30111558D01*
X56037424Y-29954379D01*
X56037419Y-29954376D01*
X56033659Y-29951164D01*
X55818859Y-29819534D01*
X55818398Y-29819343D01*
X55767682Y-29771445D01*
X55750500Y-29707926D01*
X55750500Y-29707704D01*
X55770502Y-29639583D01*
X55804230Y-29604490D01*
X55808958Y-29601180D01*
X55839139Y-29580047D01*
X56000047Y-29419139D01*
X56130568Y-29232734D01*
X56135332Y-29222519D01*
X56224416Y-29031478D01*
X56224417Y-29031476D01*
X56226739Y-29026496D01*
X56236406Y-28990420D01*
X56284211Y-28812007D01*
X56284211Y-28812005D01*
X56285635Y-28806692D01*
X56305468Y-28580000D01*
X56285635Y-28353308D01*
X56267505Y-28285644D01*
X56228162Y-28138814D01*
X56228161Y-28138812D01*
X56226739Y-28133504D01*
X56187111Y-28048522D01*
X56132891Y-27932247D01*
X56132889Y-27932244D01*
X56130568Y-27927266D01*
X56000047Y-27740861D01*
X55839139Y-27579953D01*
X55652734Y-27449432D01*
X55647756Y-27447111D01*
X55647753Y-27447109D01*
X55451478Y-27355584D01*
X55451476Y-27355583D01*
X55446496Y-27353261D01*
X55441188Y-27351839D01*
X55441186Y-27351838D01*
X55232007Y-27295789D01*
X55232005Y-27295789D01*
X55226692Y-27294365D01*
X55000000Y-27274532D01*
X54773308Y-27294365D01*
X54767995Y-27295789D01*
X54767993Y-27295789D01*
X54558814Y-27351838D01*
X54558812Y-27351839D01*
X54553504Y-27353261D01*
X54548524Y-27355583D01*
X54548522Y-27355584D01*
X54352247Y-27447109D01*
X54352244Y-27447111D01*
X54347266Y-27449432D01*
X54160861Y-27579953D01*
X53999953Y-27740861D01*
X53869432Y-27927266D01*
X53867109Y-27932247D01*
X53867107Y-27932251D01*
X53864195Y-27938496D01*
X53817278Y-27991782D01*
X53749001Y-28011243D01*
X53681041Y-27990702D01*
X53635805Y-27938496D01*
X53632893Y-27932251D01*
X53632891Y-27932247D01*
X53630568Y-27927266D01*
X53500047Y-27740861D01*
X53339139Y-27579953D01*
X53152734Y-27449432D01*
X53147756Y-27447111D01*
X53147753Y-27447109D01*
X52951478Y-27355584D01*
X52951476Y-27355583D01*
X52946496Y-27353261D01*
X52941188Y-27351839D01*
X52941186Y-27351838D01*
X52732007Y-27295789D01*
X52732005Y-27295789D01*
X52726692Y-27294365D01*
X52500000Y-27274532D01*
X52273308Y-27294365D01*
X52267995Y-27295789D01*
X52267993Y-27295789D01*
X52058814Y-27351838D01*
X52058812Y-27351839D01*
X52053504Y-27353261D01*
X52048524Y-27355583D01*
X52048522Y-27355584D01*
X51852247Y-27447109D01*
X51852244Y-27447111D01*
X51847266Y-27449432D01*
X51660861Y-27579953D01*
X51499953Y-27740861D01*
X51373619Y-27921286D01*
X51318166Y-27965612D01*
X51247546Y-27972921D01*
X51184186Y-27940891D01*
X51156215Y-27902264D01*
X51132894Y-27852252D01*
X51132889Y-27852243D01*
X51130568Y-27847266D01*
X51000047Y-27660861D01*
X50839139Y-27499953D01*
X50652734Y-27369432D01*
X50647756Y-27367111D01*
X50647753Y-27367109D01*
X50451478Y-27275584D01*
X50451476Y-27275583D01*
X50446496Y-27273261D01*
X50441188Y-27271839D01*
X50441186Y-27271838D01*
X50232007Y-27215789D01*
X50232005Y-27215789D01*
X50226692Y-27214365D01*
X50000000Y-27194532D01*
X49773308Y-27214365D01*
X49767995Y-27215789D01*
X49767993Y-27215789D01*
X49558814Y-27271838D01*
X49558812Y-27271839D01*
X49553504Y-27273261D01*
X49548524Y-27275583D01*
X49548522Y-27275584D01*
X49352247Y-27367109D01*
X49352244Y-27367111D01*
X49347266Y-27369432D01*
X49160861Y-27499953D01*
X48999953Y-27660861D01*
X48869432Y-27847266D01*
X48867109Y-27852247D01*
X48867107Y-27852251D01*
X48864195Y-27858496D01*
X48817278Y-27911782D01*
X48749001Y-27931243D01*
X48681041Y-27910702D01*
X48635805Y-27858496D01*
X48632893Y-27852251D01*
X48632891Y-27852247D01*
X48630568Y-27847266D01*
X48500047Y-27660861D01*
X48339139Y-27499953D01*
X48152734Y-27369432D01*
X48147756Y-27367111D01*
X48147753Y-27367109D01*
X47951478Y-27275584D01*
X47951476Y-27275583D01*
X47946496Y-27273261D01*
X47941188Y-27271839D01*
X47941186Y-27271838D01*
X47732007Y-27215789D01*
X47732005Y-27215789D01*
X47726692Y-27214365D01*
X47500000Y-27194532D01*
X47273308Y-27214365D01*
X47267995Y-27215789D01*
X47267993Y-27215789D01*
X47058814Y-27271838D01*
X47058812Y-27271839D01*
X47053504Y-27273261D01*
X47048524Y-27275583D01*
X47048522Y-27275584D01*
X46852247Y-27367109D01*
X46852244Y-27367111D01*
X46847266Y-27369432D01*
X46660861Y-27499953D01*
X46499953Y-27660861D01*
X46369432Y-27847266D01*
X46367111Y-27852244D01*
X46367109Y-27852247D01*
X46292968Y-28011243D01*
X46273261Y-28053504D01*
X46271839Y-28058812D01*
X46271838Y-28058814D01*
X46242513Y-28168257D01*
X46214365Y-28273308D01*
X46213098Y-28287789D01*
X46201374Y-28421791D01*
X46175510Y-28487909D01*
X46118007Y-28529549D01*
X46051272Y-28534388D01*
X45851691Y-28494689D01*
X45851688Y-28494689D01*
X45846024Y-28493562D01*
X45840249Y-28493486D01*
X45840245Y-28493486D01*
X45729504Y-28492037D01*
X45625406Y-28490674D01*
X45619709Y-28491653D01*
X45619708Y-28491653D01*
X45413654Y-28527059D01*
X45413653Y-28527059D01*
X45407957Y-28528038D01*
X45200957Y-28604404D01*
X45011341Y-28717214D01*
X44845457Y-28862690D01*
X44708863Y-29035960D01*
X44606131Y-29231220D01*
X44540703Y-29441933D01*
X44514770Y-29661040D01*
X44529200Y-29881204D01*
X44530621Y-29886800D01*
X44530622Y-29886805D01*
X44578054Y-30073566D01*
X44583511Y-30095052D01*
X44675883Y-30295421D01*
X44803222Y-30475602D01*
X44807356Y-30479629D01*
X44931422Y-30600490D01*
X44966259Y-30662352D01*
X44969500Y-30690744D01*
X44969500Y-32013746D01*
X44968067Y-32032696D01*
X44964852Y-32053830D01*
X44965445Y-32061122D01*
X44965445Y-32061125D01*
X44969085Y-32105875D01*
X44969500Y-32116089D01*
X44969500Y-32124022D01*
X44969925Y-32127666D01*
X44972754Y-32151936D01*
X44973187Y-32156311D01*
X44979039Y-32228259D01*
X44981294Y-32235221D01*
X44982452Y-32241016D01*
X44983809Y-32246758D01*
X44984657Y-32254028D01*
X45009306Y-32321936D01*
X45010723Y-32326064D01*
X45029556Y-32384197D01*
X45032973Y-32394746D01*
X45036768Y-32401000D01*
X45039231Y-32406379D01*
X45041873Y-32411655D01*
X45044369Y-32418531D01*
X45081550Y-32475242D01*
X45083948Y-32478899D01*
X45086295Y-32482619D01*
X45120848Y-32539561D01*
X45120853Y-32539568D01*
X45123761Y-32544360D01*
X45127473Y-32548562D01*
X45127474Y-32548564D01*
X45131085Y-32552652D01*
X45131060Y-32552674D01*
X45133806Y-32555769D01*
X45136309Y-32558763D01*
X45140323Y-32564885D01*
X45145636Y-32569918D01*
X45195932Y-32617564D01*
X45198375Y-32619942D01*
X46107529Y-33529097D01*
X46119914Y-33543509D01*
X46132583Y-33560724D01*
X46170077Y-33592578D01*
X46172381Y-33594535D01*
X46179897Y-33601465D01*
X46185503Y-33607071D01*
X46188364Y-33609334D01*
X46188369Y-33609339D01*
X46207554Y-33624517D01*
X46210955Y-33627306D01*
X46255784Y-33665391D01*
X46265955Y-33674032D01*
X46272476Y-33677362D01*
X46277420Y-33680659D01*
X46282409Y-33683740D01*
X46288149Y-33688281D01*
X46353543Y-33718844D01*
X46357489Y-33720772D01*
X46421816Y-33753619D01*
X46428925Y-33755358D01*
X46434460Y-33757417D01*
X46440068Y-33759283D01*
X46446693Y-33762379D01*
X46453853Y-33763868D01*
X46453855Y-33763869D01*
X46517393Y-33777085D01*
X46521682Y-33778056D01*
X46538297Y-33782121D01*
X46591806Y-33795215D01*
X46597406Y-33795562D01*
X46597410Y-33795563D01*
X46602848Y-33795900D01*
X46602846Y-33795932D01*
X46606976Y-33796179D01*
X46610856Y-33796525D01*
X46618031Y-33798018D01*
X46625352Y-33797820D01*
X46625353Y-33797820D01*
X46694600Y-33795946D01*
X46698008Y-33795900D01*
X48176342Y-33795900D01*
X48244463Y-33815902D01*
X48265439Y-33832806D01*
X48292597Y-33859965D01*
X48326621Y-33922278D01*
X48329500Y-33949059D01*
X48329500Y-34023501D01*
X48309498Y-34091622D01*
X48255842Y-34138115D01*
X48203500Y-34149501D01*
X48040640Y-34149501D01*
X48036556Y-34150039D01*
X48036550Y-34150039D01*
X47931425Y-34163878D01*
X47931423Y-34163878D01*
X47923238Y-34164956D01*
X47777159Y-34225464D01*
X47651718Y-34321718D01*
X47646695Y-34328264D01*
X47599473Y-34389805D01*
X47542135Y-34431672D01*
X47471264Y-34435894D01*
X47433675Y-34420533D01*
X47273089Y-34322125D01*
X47273078Y-34322119D01*
X47268859Y-34319534D01*
X47264289Y-34317641D01*
X47264285Y-34317639D01*
X47040684Y-34225021D01*
X47040682Y-34225020D01*
X47036111Y-34223127D01*
X46927946Y-34197159D01*
X46795961Y-34165472D01*
X46795955Y-34165471D01*
X46791148Y-34164317D01*
X46540000Y-34144551D01*
X46288852Y-34164317D01*
X46284045Y-34165471D01*
X46284039Y-34165472D01*
X46152054Y-34197159D01*
X46043889Y-34223127D01*
X46039318Y-34225020D01*
X46039316Y-34225021D01*
X45815715Y-34317639D01*
X45815711Y-34317641D01*
X45811141Y-34319534D01*
X45596341Y-34451164D01*
X45592581Y-34454376D01*
X45592576Y-34454379D01*
X45408543Y-34611558D01*
X45408538Y-34611563D01*
X45404776Y-34614776D01*
X45401563Y-34618538D01*
X45401561Y-34618540D01*
X45365811Y-34660398D01*
X45306360Y-34699207D01*
X45235366Y-34699713D01*
X45174189Y-34660398D01*
X45138439Y-34618540D01*
X45138437Y-34618538D01*
X45135224Y-34614776D01*
X45131462Y-34611563D01*
X45131457Y-34611558D01*
X44947424Y-34454379D01*
X44947419Y-34454376D01*
X44943659Y-34451164D01*
X44728859Y-34319534D01*
X44724289Y-34317641D01*
X44724285Y-34317639D01*
X44500684Y-34225021D01*
X44500682Y-34225020D01*
X44496111Y-34223127D01*
X44387946Y-34197159D01*
X44255961Y-34165472D01*
X44255955Y-34165471D01*
X44251148Y-34164317D01*
X44000000Y-34144551D01*
X43748852Y-34164317D01*
X43744045Y-34165471D01*
X43744039Y-34165472D01*
X43612054Y-34197159D01*
X43503889Y-34223127D01*
X43499318Y-34225020D01*
X43499316Y-34225021D01*
X43275715Y-34317639D01*
X43275711Y-34317641D01*
X43271141Y-34319534D01*
X43056341Y-34451164D01*
X43052581Y-34454376D01*
X43052576Y-34454379D01*
X42884518Y-34597915D01*
X42864776Y-34614776D01*
X42861563Y-34618538D01*
X42704379Y-34802576D01*
X42704375Y-34802581D01*
X42701164Y-34806341D01*
X42698581Y-34810556D01*
X42698573Y-34810567D01*
X42656490Y-34879240D01*
X42603843Y-34926871D01*
X42533801Y-34938478D01*
X42468604Y-34910375D01*
X42427351Y-34846013D01*
X42426122Y-34841425D01*
X42425044Y-34833238D01*
X42364536Y-34687159D01*
X42268282Y-34561718D01*
X42259994Y-34555358D01*
X42190067Y-34501702D01*
X42142841Y-34465464D01*
X41996762Y-34404956D01*
X41988574Y-34403878D01*
X41883448Y-34390038D01*
X41883447Y-34390038D01*
X41879361Y-34389500D01*
X41080097Y-34389500D01*
X40280640Y-34389501D01*
X40276556Y-34390039D01*
X40276550Y-34390039D01*
X40171425Y-34403878D01*
X40171423Y-34403878D01*
X40163238Y-34404956D01*
X40017159Y-34465464D01*
X39969933Y-34501702D01*
X39900007Y-34555358D01*
X39891718Y-34561718D01*
X39795464Y-34687159D01*
X39758783Y-34775715D01*
X39751621Y-34793006D01*
X39707073Y-34848287D01*
X39639710Y-34870708D01*
X39570918Y-34853150D01*
X39542019Y-34829588D01*
X39508410Y-34792653D01*
X39471039Y-34751583D01*
X39466988Y-34748384D01*
X39466984Y-34748380D01*
X39299528Y-34616132D01*
X39295470Y-34612927D01*
X39099612Y-34504807D01*
X38974888Y-34460640D01*
X38893600Y-34431854D01*
X38893596Y-34431853D01*
X38888725Y-34430128D01*
X38883635Y-34429221D01*
X38883630Y-34429220D01*
X38741355Y-34403878D01*
X38668473Y-34390896D01*
X38579205Y-34389805D01*
X38449941Y-34388225D01*
X38449939Y-34388225D01*
X38444771Y-34388162D01*
X38301262Y-34410122D01*
X38228735Y-34421220D01*
X38228733Y-34421221D01*
X38223626Y-34422002D01*
X38218714Y-34423607D01*
X38218716Y-34423607D01*
X38015887Y-34489902D01*
X38015882Y-34489904D01*
X38010978Y-34491507D01*
X38006404Y-34493888D01*
X38006397Y-34493891D01*
X37830206Y-34585610D01*
X37812537Y-34594808D01*
X37788405Y-34612927D01*
X37658264Y-34710640D01*
X37633632Y-34729134D01*
X37479069Y-34890875D01*
X37352998Y-35075689D01*
X37335882Y-35112562D01*
X37333155Y-35118437D01*
X37286330Y-35171803D01*
X37218087Y-35191383D01*
X37150092Y-35170959D01*
X37108295Y-35122807D01*
X37107391Y-35123329D01*
X37104695Y-35118660D01*
X37104672Y-35118633D01*
X37104640Y-35118564D01*
X37099158Y-35109069D01*
X37068770Y-35065671D01*
X37058293Y-35057296D01*
X37044845Y-35064365D01*
X36372022Y-35737188D01*
X36364408Y-35751132D01*
X36364539Y-35752965D01*
X36368790Y-35759580D01*
X37045567Y-36436357D01*
X37057342Y-36442787D01*
X37069357Y-36433491D01*
X37099158Y-36390931D01*
X37107391Y-36376671D01*
X37109045Y-36377626D01*
X37150388Y-36330690D01*
X37218669Y-36311241D01*
X37286625Y-36331795D01*
X37325079Y-36371402D01*
X37438368Y-36556273D01*
X37584845Y-36725372D01*
X37756975Y-36868276D01*
X37950133Y-36981148D01*
X37954958Y-36982990D01*
X37954959Y-36982991D01*
X38025990Y-37010115D01*
X38159132Y-37060957D01*
X38164200Y-37061988D01*
X38164203Y-37061989D01*
X38241877Y-37077792D01*
X38378359Y-37105560D01*
X38383534Y-37105750D01*
X38383536Y-37105750D01*
X38596764Y-37113569D01*
X38596768Y-37113569D01*
X38601928Y-37113758D01*
X38753724Y-37094312D01*
X38823833Y-37105496D01*
X38858828Y-37130196D01*
X39172326Y-37443694D01*
X39184712Y-37458106D01*
X39193045Y-37469430D01*
X39193048Y-37469434D01*
X39197384Y-37475325D01*
X39234878Y-37507179D01*
X39237182Y-37509136D01*
X39244698Y-37516066D01*
X39250304Y-37521672D01*
X39253165Y-37523935D01*
X39253170Y-37523940D01*
X39272355Y-37539118D01*
X39275756Y-37541907D01*
X39319466Y-37579041D01*
X39330756Y-37588633D01*
X39337279Y-37591964D01*
X39342217Y-37595257D01*
X39347211Y-37598341D01*
X39352950Y-37602882D01*
X39359577Y-37605979D01*
X39359583Y-37605983D01*
X39418364Y-37633455D01*
X39422305Y-37635381D01*
X39486617Y-37668220D01*
X39493728Y-37669960D01*
X39499270Y-37672021D01*
X39504863Y-37673882D01*
X39511494Y-37676981D01*
X39576090Y-37690417D01*
X39582210Y-37691690D01*
X39586494Y-37692660D01*
X39656607Y-37709816D01*
X39662207Y-37710163D01*
X39662211Y-37710164D01*
X39667649Y-37710501D01*
X39667647Y-37710533D01*
X39671760Y-37710780D01*
X39675667Y-37711129D01*
X39682832Y-37712619D01*
X39759401Y-37710547D01*
X39762809Y-37710501D01*
X41596944Y-37710501D01*
X41665065Y-37730503D01*
X41686039Y-37747406D01*
X42672623Y-38733990D01*
X42706649Y-38796302D01*
X42709049Y-38834066D01*
X42696106Y-38982007D01*
X42694532Y-39000000D01*
X42714365Y-39226692D01*
X42715789Y-39232005D01*
X42715789Y-39232007D01*
X42766553Y-39421460D01*
X42773261Y-39446496D01*
X42775583Y-39451476D01*
X42775584Y-39451478D01*
X42856999Y-39626071D01*
X42869432Y-39652734D01*
X42999953Y-39839139D01*
X43160861Y-40000047D01*
X43347266Y-40130568D01*
X43352244Y-40132889D01*
X43352247Y-40132891D01*
X43527107Y-40214430D01*
X43553504Y-40226739D01*
X43558812Y-40228161D01*
X43558814Y-40228162D01*
X43767993Y-40284211D01*
X43767995Y-40284211D01*
X43773308Y-40285635D01*
X44000000Y-40305468D01*
X44226692Y-40285635D01*
X44232005Y-40284211D01*
X44232007Y-40284211D01*
X44441186Y-40228162D01*
X44441188Y-40228161D01*
X44446496Y-40226739D01*
X44472893Y-40214430D01*
X44647753Y-40132891D01*
X44647756Y-40132889D01*
X44652734Y-40130568D01*
X44839139Y-40000047D01*
X45000047Y-39839139D01*
X45130568Y-39652734D01*
X45143002Y-39626071D01*
X45224416Y-39451478D01*
X45224417Y-39451476D01*
X45226739Y-39446496D01*
X45233448Y-39421460D01*
X45284211Y-39232007D01*
X45284211Y-39232005D01*
X45285635Y-39226692D01*
X45305468Y-39000000D01*
X45285635Y-38773308D01*
X45226739Y-38553504D01*
X45223768Y-38547133D01*
X45132891Y-38352247D01*
X45132889Y-38352244D01*
X45130568Y-38347266D01*
X45000047Y-38160861D01*
X44839139Y-37999953D01*
X44652734Y-37869432D01*
X44647756Y-37867111D01*
X44647753Y-37867109D01*
X44451478Y-37775584D01*
X44451476Y-37775583D01*
X44446496Y-37773261D01*
X44441188Y-37771839D01*
X44441186Y-37771838D01*
X44232007Y-37715789D01*
X44232005Y-37715789D01*
X44226692Y-37714365D01*
X44000000Y-37694532D01*
X43994525Y-37695011D01*
X43994524Y-37695011D01*
X43834066Y-37709049D01*
X43764462Y-37695060D01*
X43733990Y-37672623D01*
X43601815Y-37540448D01*
X43567789Y-37478136D01*
X43572854Y-37407321D01*
X43615401Y-37350485D01*
X43681921Y-37325674D01*
X43720324Y-37328834D01*
X43744039Y-37334528D01*
X43744045Y-37334529D01*
X43748852Y-37335683D01*
X44000000Y-37355449D01*
X44251148Y-37335683D01*
X44255955Y-37334529D01*
X44255961Y-37334528D01*
X44442849Y-37289660D01*
X44496111Y-37276873D01*
X44500684Y-37274979D01*
X44724285Y-37182361D01*
X44724289Y-37182359D01*
X44728859Y-37180466D01*
X44943659Y-37048836D01*
X44947419Y-37045624D01*
X44947424Y-37045621D01*
X45131457Y-36888442D01*
X45131462Y-36888437D01*
X45135224Y-36885224D01*
X45138442Y-36881457D01*
X45174189Y-36839602D01*
X45233640Y-36800793D01*
X45304634Y-36800287D01*
X45365811Y-36839602D01*
X45401559Y-36881457D01*
X45404776Y-36885224D01*
X45408538Y-36888437D01*
X45408543Y-36888442D01*
X45592576Y-37045621D01*
X45592581Y-37045624D01*
X45596341Y-37048836D01*
X45811141Y-37180466D01*
X45815711Y-37182359D01*
X45815715Y-37182361D01*
X46039316Y-37274979D01*
X46043889Y-37276873D01*
X46097151Y-37289660D01*
X46284039Y-37334528D01*
X46284045Y-37334529D01*
X46288852Y-37335683D01*
X46540000Y-37355449D01*
X46791148Y-37335683D01*
X46795955Y-37334529D01*
X46795961Y-37334528D01*
X46982849Y-37289660D01*
X47036111Y-37276873D01*
X47040684Y-37274979D01*
X47264285Y-37182361D01*
X47264289Y-37182359D01*
X47268859Y-37180466D01*
X47273079Y-37177880D01*
X47273089Y-37177875D01*
X47433675Y-37079467D01*
X47502208Y-37060928D01*
X47569885Y-37082384D01*
X47599473Y-37110195D01*
X47646695Y-37171736D01*
X47651718Y-37178282D01*
X47777159Y-37274536D01*
X47923238Y-37335044D01*
X47931426Y-37336122D01*
X48036545Y-37349961D01*
X48040639Y-37350500D01*
X48203500Y-37350500D01*
X48271621Y-37370502D01*
X48318114Y-37424158D01*
X48329500Y-37476500D01*
X48329500Y-37872296D01*
X48309498Y-37940417D01*
X48275771Y-37975509D01*
X48240861Y-37999953D01*
X48079953Y-38160861D01*
X47949432Y-38347266D01*
X47947111Y-38352244D01*
X47947109Y-38352247D01*
X47856232Y-38547133D01*
X47853261Y-38553504D01*
X47794365Y-38773308D01*
X47774532Y-39000000D01*
X47794365Y-39226692D01*
X47795789Y-39232005D01*
X47795789Y-39232007D01*
X47846553Y-39421460D01*
X47853261Y-39446496D01*
X47855583Y-39451476D01*
X47855584Y-39451478D01*
X47936999Y-39626071D01*
X47949432Y-39652734D01*
X48079953Y-39839139D01*
X48240861Y-40000047D01*
X48427266Y-40130568D01*
X48432244Y-40132889D01*
X48432247Y-40132891D01*
X48607107Y-40214430D01*
X48633504Y-40226739D01*
X48638812Y-40228161D01*
X48638814Y-40228162D01*
X48847993Y-40284211D01*
X48847995Y-40284211D01*
X48853308Y-40285635D01*
X49080000Y-40305468D01*
X49306692Y-40285635D01*
X49312005Y-40284211D01*
X49312007Y-40284211D01*
X49521186Y-40228162D01*
X49521188Y-40228161D01*
X49526496Y-40226739D01*
X49552893Y-40214430D01*
X49727753Y-40132891D01*
X49727756Y-40132889D01*
X49732734Y-40130568D01*
X49919139Y-40000047D01*
X50080047Y-39839139D01*
X50210568Y-39652734D01*
X50223002Y-39626071D01*
X50304416Y-39451478D01*
X50304417Y-39451476D01*
X50306739Y-39446496D01*
X50313448Y-39421460D01*
X50364211Y-39232007D01*
X50364211Y-39232005D01*
X50365635Y-39226692D01*
X50385468Y-39000000D01*
X50365635Y-38773308D01*
X50306739Y-38553504D01*
X50303768Y-38547133D01*
X50212891Y-38352247D01*
X50212889Y-38352244D01*
X50210568Y-38347266D01*
X50080047Y-38160861D01*
X49919139Y-37999953D01*
X49884230Y-37975509D01*
X49839901Y-37920053D01*
X49830500Y-37872296D01*
X49830500Y-37476499D01*
X49850502Y-37408378D01*
X49904158Y-37361885D01*
X49956500Y-37350499D01*
X50119360Y-37350499D01*
X50123444Y-37349961D01*
X50123450Y-37349961D01*
X50228575Y-37336122D01*
X50228577Y-37336122D01*
X50236762Y-37335044D01*
X50382841Y-37274536D01*
X50508282Y-37178282D01*
X50516796Y-37167187D01*
X50553334Y-37119569D01*
X50604536Y-37052841D01*
X50665044Y-36906762D01*
X50676628Y-36818770D01*
X50679962Y-36793448D01*
X50679962Y-36793447D01*
X50680500Y-36789361D01*
X50680499Y-34710640D01*
X50672627Y-34650842D01*
X50669113Y-34624144D01*
X50680053Y-34553996D01*
X50727182Y-34500898D01*
X50794035Y-34481700D01*
X51375119Y-34481700D01*
X51443240Y-34501702D01*
X51489733Y-34555358D01*
X51499837Y-34625632D01*
X51470930Y-34689530D01*
X51374379Y-34802576D01*
X51374376Y-34802581D01*
X51371164Y-34806341D01*
X51239534Y-35021141D01*
X51237641Y-35025711D01*
X51237639Y-35025715D01*
X51152314Y-35231710D01*
X51143127Y-35253889D01*
X51123696Y-35334827D01*
X51088890Y-35479805D01*
X51084317Y-35498852D01*
X51064551Y-35750000D01*
X51084317Y-36001148D01*
X51143127Y-36246111D01*
X51145020Y-36250682D01*
X51145021Y-36250684D01*
X51236459Y-36471435D01*
X51239534Y-36478859D01*
X51371164Y-36693659D01*
X51374376Y-36697419D01*
X51374379Y-36697424D01*
X51531558Y-36881457D01*
X51531561Y-36881460D01*
X51534776Y-36885224D01*
X51538538Y-36888437D01*
X51538540Y-36888439D01*
X51580398Y-36924189D01*
X51619207Y-36983640D01*
X51619713Y-37054634D01*
X51580398Y-37115811D01*
X51534776Y-37154776D01*
X51531563Y-37158538D01*
X51531558Y-37158543D01*
X51374379Y-37342576D01*
X51374376Y-37342581D01*
X51371164Y-37346341D01*
X51239534Y-37561141D01*
X51237641Y-37565711D01*
X51237639Y-37565715D01*
X51163194Y-37745443D01*
X51143127Y-37793889D01*
X51132499Y-37838158D01*
X51088968Y-38019480D01*
X51084317Y-38038852D01*
X51064551Y-38290000D01*
X51084317Y-38541148D01*
X51085471Y-38545955D01*
X51085472Y-38545961D01*
X51118296Y-38682682D01*
X51143127Y-38786111D01*
X51145020Y-38790682D01*
X51145021Y-38790684D01*
X51229455Y-38994525D01*
X51239534Y-39018859D01*
X51371164Y-39233659D01*
X51534776Y-39425224D01*
X51538538Y-39428437D01*
X51722576Y-39585621D01*
X51722581Y-39585624D01*
X51726341Y-39588836D01*
X51941141Y-39720466D01*
X51945711Y-39722359D01*
X51945715Y-39722361D01*
X52169316Y-39814979D01*
X52173889Y-39816873D01*
X52247840Y-39834627D01*
X52414039Y-39874528D01*
X52414045Y-39874529D01*
X52418852Y-39875683D01*
X52670000Y-39895449D01*
X52921148Y-39875683D01*
X52925955Y-39874529D01*
X52925961Y-39874528D01*
X53092160Y-39834627D01*
X53166111Y-39816873D01*
X53170684Y-39814979D01*
X53394285Y-39722361D01*
X53394289Y-39722359D01*
X53398859Y-39720466D01*
X53613659Y-39588836D01*
X53617419Y-39585624D01*
X53617424Y-39585621D01*
X53801457Y-39428442D01*
X53801462Y-39428437D01*
X53805224Y-39425224D01*
X53844189Y-39379602D01*
X53903640Y-39340793D01*
X53974634Y-39340287D01*
X54035811Y-39379602D01*
X54074776Y-39425224D01*
X54078538Y-39428437D01*
X54078543Y-39428442D01*
X54262576Y-39585621D01*
X54262581Y-39585624D01*
X54266341Y-39588836D01*
X54481141Y-39720466D01*
X54485711Y-39722359D01*
X54485715Y-39722361D01*
X54709316Y-39814979D01*
X54713889Y-39816873D01*
X54787840Y-39834627D01*
X54954039Y-39874528D01*
X54954045Y-39874529D01*
X54958852Y-39875683D01*
X55210000Y-39895449D01*
X55461148Y-39875683D01*
X55465955Y-39874529D01*
X55465961Y-39874528D01*
X55632160Y-39834627D01*
X55706111Y-39816873D01*
X55710684Y-39814979D01*
X55934285Y-39722361D01*
X55934289Y-39722359D01*
X55938859Y-39720466D01*
X56153659Y-39588836D01*
X56157419Y-39585624D01*
X56157424Y-39585621D01*
X56341457Y-39428442D01*
X56341462Y-39428437D01*
X56345224Y-39425224D01*
X56384189Y-39379602D01*
X56443640Y-39340793D01*
X56514634Y-39340287D01*
X56575811Y-39379602D01*
X56614776Y-39425224D01*
X56618538Y-39428437D01*
X56618543Y-39428442D01*
X56802576Y-39585621D01*
X56802581Y-39585624D01*
X56806341Y-39588836D01*
X57021141Y-39720466D01*
X57025711Y-39722359D01*
X57025715Y-39722361D01*
X57249316Y-39814979D01*
X57253889Y-39816873D01*
X57327840Y-39834627D01*
X57494039Y-39874528D01*
X57494045Y-39874529D01*
X57498852Y-39875683D01*
X57750000Y-39895449D01*
X58001148Y-39875683D01*
X58005955Y-39874529D01*
X58005961Y-39874528D01*
X58172160Y-39834627D01*
X58246111Y-39816873D01*
X58250684Y-39814979D01*
X58474285Y-39722361D01*
X58474289Y-39722359D01*
X58478859Y-39720466D01*
X58693659Y-39588836D01*
X58697419Y-39585624D01*
X58697424Y-39585621D01*
X58881462Y-39428437D01*
X58885224Y-39425224D01*
X59048836Y-39233659D01*
X59049956Y-39234615D01*
X59100953Y-39195283D01*
X59171688Y-39189200D01*
X59234483Y-39222326D01*
X59267583Y-39277223D01*
X59324830Y-39472361D01*
X59359036Y-39588957D01*
X59360056Y-39591553D01*
X59360057Y-39591556D01*
X59501173Y-39950719D01*
X59518658Y-39995222D01*
X59584710Y-40127413D01*
X59691271Y-40340673D01*
X59713764Y-40385689D01*
X59942807Y-40757266D01*
X60203974Y-41107011D01*
X60205835Y-41109089D01*
X60205836Y-41109090D01*
X60462157Y-41395266D01*
X60495198Y-41432156D01*
X60497235Y-41434059D01*
X60497242Y-41434066D01*
X60714087Y-41636630D01*
X60814172Y-41730125D01*
X60816368Y-41731838D01*
X60816372Y-41731841D01*
X60899987Y-41797050D01*
X61158372Y-41998560D01*
X61247071Y-42055832D01*
X61522727Y-42233821D01*
X61522735Y-42233826D01*
X61525071Y-42235334D01*
X61527539Y-42236632D01*
X61527545Y-42236636D01*
X61561484Y-42254492D01*
X61612456Y-42303912D01*
X61628619Y-42373044D01*
X61604840Y-42439940D01*
X61548669Y-42483361D01*
X61502816Y-42492000D01*
X7493860Y-42492000D01*
X7425739Y-42471998D01*
X7379246Y-42418342D01*
X7369142Y-42348068D01*
X7398636Y-42283488D01*
X7434028Y-42255112D01*
X7459448Y-42241396D01*
X7519145Y-42209185D01*
X7883345Y-41968584D01*
X8224714Y-41696559D01*
X8540551Y-41395266D01*
X8542388Y-41393172D01*
X8542396Y-41393163D01*
X8826505Y-41069198D01*
X8828354Y-41067090D01*
X8830006Y-41064829D01*
X8830013Y-41064820D01*
X9084186Y-40716898D01*
X9084189Y-40716893D01*
X9085844Y-40714628D01*
X9087288Y-40712230D01*
X9087295Y-40712219D01*
X9309533Y-40343084D01*
X9309538Y-40343075D01*
X9310984Y-40340673D01*
X9501989Y-39948185D01*
X9657349Y-39540271D01*
X9677766Y-39467880D01*
X9759395Y-39178442D01*
X9775832Y-39120161D01*
X9799458Y-38994524D01*
X9816136Y-38905835D01*
X9848383Y-38842584D01*
X9909707Y-38806808D01*
X9980638Y-38809866D01*
X10038656Y-38850786D01*
X10047399Y-38863286D01*
X10121164Y-38983659D01*
X10284776Y-39175224D01*
X10288538Y-39178437D01*
X10472576Y-39335621D01*
X10472581Y-39335624D01*
X10476341Y-39338836D01*
X10691141Y-39470466D01*
X10695711Y-39472359D01*
X10695715Y-39472361D01*
X10865986Y-39542889D01*
X10923889Y-39566873D01*
X10997840Y-39584627D01*
X11164039Y-39624528D01*
X11164045Y-39624529D01*
X11168852Y-39625683D01*
X11420000Y-39645449D01*
X11671148Y-39625683D01*
X11675955Y-39624529D01*
X11675961Y-39624528D01*
X11842160Y-39584627D01*
X11916111Y-39566873D01*
X11974014Y-39542889D01*
X12144285Y-39472361D01*
X12144289Y-39472359D01*
X12148859Y-39470466D01*
X12363659Y-39338836D01*
X12367419Y-39335624D01*
X12367424Y-39335621D01*
X12551457Y-39178442D01*
X12551462Y-39178437D01*
X12555224Y-39175224D01*
X12594189Y-39129602D01*
X12653640Y-39090793D01*
X12724634Y-39090287D01*
X12785811Y-39129602D01*
X12824776Y-39175224D01*
X12828538Y-39178437D01*
X12828543Y-39178442D01*
X13012576Y-39335621D01*
X13012581Y-39335624D01*
X13016341Y-39338836D01*
X13231141Y-39470466D01*
X13235711Y-39472359D01*
X13235715Y-39472361D01*
X13405986Y-39542889D01*
X13463889Y-39566873D01*
X13537840Y-39584627D01*
X13704039Y-39624528D01*
X13704045Y-39624529D01*
X13708852Y-39625683D01*
X13960000Y-39645449D01*
X14211148Y-39625683D01*
X14215955Y-39624529D01*
X14215961Y-39624528D01*
X14382160Y-39584627D01*
X14456111Y-39566873D01*
X14514014Y-39542889D01*
X14684285Y-39472361D01*
X14684289Y-39472359D01*
X14688859Y-39470466D01*
X14903659Y-39338836D01*
X14907419Y-39335624D01*
X14907424Y-39335621D01*
X15091457Y-39178442D01*
X15091462Y-39178437D01*
X15095224Y-39175224D01*
X15134189Y-39129602D01*
X15193640Y-39090793D01*
X15264634Y-39090287D01*
X15325811Y-39129602D01*
X15364776Y-39175224D01*
X15368538Y-39178437D01*
X15368543Y-39178442D01*
X15552576Y-39335621D01*
X15552581Y-39335624D01*
X15556341Y-39338836D01*
X15771141Y-39470466D01*
X15775711Y-39472359D01*
X15775715Y-39472361D01*
X15945986Y-39542889D01*
X16003889Y-39566873D01*
X16077840Y-39584627D01*
X16244039Y-39624528D01*
X16244045Y-39624529D01*
X16248852Y-39625683D01*
X16500000Y-39645449D01*
X16751148Y-39625683D01*
X16755955Y-39624529D01*
X16755961Y-39624528D01*
X16922160Y-39584627D01*
X16996111Y-39566873D01*
X17054014Y-39542889D01*
X17224285Y-39472361D01*
X17224289Y-39472359D01*
X17228859Y-39470466D01*
X17443659Y-39338836D01*
X17447419Y-39335624D01*
X17447424Y-39335621D01*
X17631462Y-39178437D01*
X17635224Y-39175224D01*
X17798836Y-38983659D01*
X17922843Y-38781299D01*
X17927880Y-38773079D01*
X17930466Y-38768859D01*
X17940546Y-38744525D01*
X18024979Y-38540684D01*
X18024980Y-38540682D01*
X18026873Y-38536111D01*
X18060906Y-38394352D01*
X18084528Y-38295961D01*
X18084529Y-38295955D01*
X18085683Y-38291148D01*
X18105449Y-38040000D01*
X18085683Y-37788852D01*
X18081599Y-37771838D01*
X18031015Y-37561141D01*
X18026873Y-37543889D01*
X18024897Y-37539118D01*
X17932361Y-37315715D01*
X17932359Y-37315711D01*
X17930466Y-37311141D01*
X17927881Y-37306922D01*
X17927875Y-37306911D01*
X17829467Y-37146325D01*
X17810928Y-37077792D01*
X17832384Y-37010115D01*
X17860195Y-36980527D01*
X17921736Y-36933305D01*
X17928282Y-36928282D01*
X17938689Y-36914720D01*
X17974326Y-36868276D01*
X18024536Y-36802841D01*
X18085044Y-36656762D01*
X18100500Y-36539361D01*
X18100499Y-34460640D01*
X18098994Y-34449203D01*
X18086122Y-34351425D01*
X18086122Y-34351423D01*
X18085044Y-34343238D01*
X18035292Y-34223127D01*
X18027695Y-34204785D01*
X18027694Y-34204784D01*
X18024536Y-34197159D01*
X18019513Y-34190613D01*
X18018061Y-34188098D01*
X18001324Y-34119102D01*
X18024546Y-34052011D01*
X18080354Y-34008125D01*
X18127181Y-33999100D01*
X18170746Y-33999100D01*
X18189696Y-34000533D01*
X18203596Y-34002648D01*
X18203600Y-34002648D01*
X18210830Y-34003748D01*
X18218122Y-34003155D01*
X18218125Y-34003155D01*
X18262875Y-33999515D01*
X18273089Y-33999100D01*
X18281022Y-33999100D01*
X18290318Y-33998016D01*
X18308936Y-33995846D01*
X18313311Y-33995413D01*
X18343062Y-33992993D01*
X18368302Y-33990940D01*
X18437819Y-34005353D01*
X18488509Y-34055063D01*
X18504277Y-34124286D01*
X18482580Y-34182276D01*
X18484621Y-34183454D01*
X18480491Y-34190607D01*
X18475464Y-34197159D01*
X18414956Y-34343238D01*
X18413878Y-34351425D01*
X18413878Y-34351426D01*
X18403314Y-34431672D01*
X18399500Y-34460639D01*
X18399501Y-36539360D01*
X18400039Y-36543444D01*
X18400039Y-36543450D01*
X18412543Y-36638432D01*
X18414956Y-36656762D01*
X18475464Y-36802841D01*
X18525674Y-36868276D01*
X18561312Y-36914720D01*
X18571718Y-36928282D01*
X18697159Y-37024536D01*
X18843238Y-37085044D01*
X18851426Y-37086122D01*
X18956545Y-37099961D01*
X18960639Y-37100500D01*
X19043500Y-37100500D01*
X19111621Y-37120502D01*
X19158114Y-37174158D01*
X19169500Y-37226500D01*
X19169500Y-37622296D01*
X19149498Y-37690417D01*
X19115771Y-37725509D01*
X19080861Y-37749953D01*
X18919953Y-37910861D01*
X18789432Y-38097266D01*
X18787111Y-38102244D01*
X18787109Y-38102247D01*
X18699558Y-38290000D01*
X18693261Y-38303504D01*
X18691839Y-38308812D01*
X18691838Y-38308814D01*
X18644768Y-38484483D01*
X18634365Y-38523308D01*
X18614532Y-38750000D01*
X18634365Y-38976692D01*
X18635789Y-38982005D01*
X18635789Y-38982007D01*
X18686553Y-39171460D01*
X18693261Y-39196496D01*
X18695583Y-39201476D01*
X18695584Y-39201478D01*
X18766376Y-39353290D01*
X18789432Y-39402734D01*
X18919953Y-39589139D01*
X19080861Y-39750047D01*
X19267266Y-39880568D01*
X19272244Y-39882889D01*
X19272247Y-39882891D01*
X19412270Y-39948185D01*
X19473504Y-39976739D01*
X19478812Y-39978161D01*
X19478814Y-39978162D01*
X19687993Y-40034211D01*
X19687995Y-40034211D01*
X19693308Y-40035635D01*
X19920000Y-40055468D01*
X20146692Y-40035635D01*
X20152005Y-40034211D01*
X20152007Y-40034211D01*
X20361186Y-39978162D01*
X20361188Y-39978161D01*
X20366496Y-39976739D01*
X20427730Y-39948185D01*
X20567753Y-39882891D01*
X20567756Y-39882889D01*
X20572734Y-39880568D01*
X20759139Y-39750047D01*
X20920047Y-39589139D01*
X21050568Y-39402734D01*
X21073625Y-39353290D01*
X21144416Y-39201478D01*
X21144417Y-39201476D01*
X21146739Y-39196496D01*
X21153448Y-39171460D01*
X21204211Y-38982007D01*
X21204211Y-38982005D01*
X21205635Y-38976692D01*
X21225468Y-38750000D01*
X21205635Y-38523308D01*
X21195232Y-38484483D01*
X21148162Y-38308814D01*
X21148161Y-38308812D01*
X21146739Y-38303504D01*
X21140442Y-38290000D01*
X21052891Y-38102247D01*
X21052889Y-38102244D01*
X21050568Y-38097266D01*
X20920047Y-37910861D01*
X20759139Y-37749953D01*
X20724230Y-37725509D01*
X20679901Y-37670053D01*
X20670500Y-37622296D01*
X20670500Y-37226499D01*
X20690502Y-37158378D01*
X20744158Y-37111885D01*
X20796500Y-37100499D01*
X21039360Y-37100499D01*
X21043444Y-37099961D01*
X21043450Y-37099961D01*
X21148575Y-37086122D01*
X21148577Y-37086122D01*
X21156762Y-37085044D01*
X21302841Y-37024536D01*
X21428282Y-36928282D01*
X21433305Y-36921736D01*
X21480527Y-36860195D01*
X21537865Y-36818328D01*
X21608736Y-36814106D01*
X21646325Y-36829467D01*
X21806911Y-36927875D01*
X21806921Y-36927880D01*
X21811141Y-36930466D01*
X21815711Y-36932359D01*
X21815715Y-36932361D01*
X22039316Y-37024979D01*
X22043889Y-37026873D01*
X22068569Y-37032798D01*
X22284039Y-37084528D01*
X22284045Y-37084529D01*
X22288852Y-37085683D01*
X22540000Y-37105449D01*
X22791148Y-37085683D01*
X22795955Y-37084529D01*
X22795961Y-37084528D01*
X23011431Y-37032798D01*
X23036111Y-37026873D01*
X23040684Y-37024979D01*
X23264285Y-36932361D01*
X23264289Y-36932359D01*
X23268859Y-36930466D01*
X23483659Y-36798836D01*
X23487419Y-36795624D01*
X23487424Y-36795621D01*
X23671457Y-36638442D01*
X23671462Y-36638437D01*
X23675224Y-36635224D01*
X23678442Y-36631457D01*
X23714189Y-36589602D01*
X23773640Y-36550793D01*
X23844634Y-36550287D01*
X23905811Y-36589602D01*
X23941559Y-36631457D01*
X23944776Y-36635224D01*
X23948538Y-36638437D01*
X23948543Y-36638442D01*
X24132576Y-36795621D01*
X24132581Y-36795624D01*
X24136341Y-36798836D01*
X24351141Y-36930466D01*
X24355711Y-36932359D01*
X24355715Y-36932361D01*
X24579316Y-37024979D01*
X24583889Y-37026873D01*
X24608569Y-37032798D01*
X24824039Y-37084528D01*
X24824045Y-37084529D01*
X24828852Y-37085683D01*
X25080000Y-37105449D01*
X25285684Y-37089261D01*
X25355164Y-37103857D01*
X25405723Y-37153699D01*
X25421310Y-37222964D01*
X25396975Y-37289660D01*
X25384665Y-37303968D01*
X25266010Y-37422623D01*
X25203698Y-37456649D01*
X25165934Y-37459049D01*
X25005476Y-37445011D01*
X25005475Y-37445011D01*
X25000000Y-37444532D01*
X24773308Y-37464365D01*
X24767995Y-37465789D01*
X24767993Y-37465789D01*
X24558814Y-37521838D01*
X24558812Y-37521839D01*
X24553504Y-37523261D01*
X24548524Y-37525583D01*
X24548522Y-37525584D01*
X24352247Y-37617109D01*
X24352244Y-37617111D01*
X24347266Y-37619432D01*
X24160861Y-37749953D01*
X23999953Y-37910861D01*
X23869432Y-38097266D01*
X23867111Y-38102244D01*
X23867109Y-38102247D01*
X23779558Y-38290000D01*
X23773261Y-38303504D01*
X23771839Y-38308812D01*
X23771838Y-38308814D01*
X23724768Y-38484483D01*
X23714365Y-38523308D01*
X23694532Y-38750000D01*
X23714365Y-38976692D01*
X23715789Y-38982005D01*
X23715789Y-38982007D01*
X23766553Y-39171460D01*
X23773261Y-39196496D01*
X23775583Y-39201476D01*
X23775584Y-39201478D01*
X23846376Y-39353290D01*
X23869432Y-39402734D01*
X23999953Y-39589139D01*
X24160861Y-39750047D01*
X24347266Y-39880568D01*
X24352244Y-39882889D01*
X24352247Y-39882891D01*
X24492270Y-39948185D01*
X24553504Y-39976739D01*
X24558812Y-39978161D01*
X24558814Y-39978162D01*
X24767993Y-40034211D01*
X24767995Y-40034211D01*
X24773308Y-40035635D01*
X25000000Y-40055468D01*
X25226692Y-40035635D01*
X25232005Y-40034211D01*
X25232007Y-40034211D01*
X25441186Y-39978162D01*
X25441188Y-39978161D01*
X25446496Y-39976739D01*
X25507730Y-39948185D01*
X25647753Y-39882891D01*
X25647756Y-39882889D01*
X25652734Y-39880568D01*
X25839139Y-39750047D01*
X26000047Y-39589139D01*
X26130568Y-39402734D01*
X26153625Y-39353290D01*
X26224416Y-39201478D01*
X26224417Y-39201476D01*
X26226739Y-39196496D01*
X26233448Y-39171460D01*
X26284211Y-38982007D01*
X26284211Y-38982005D01*
X26285635Y-38976692D01*
X26305468Y-38750000D01*
X26304989Y-38744525D01*
X26304989Y-38744514D01*
X26299579Y-38682682D01*
X26313567Y-38613078D01*
X26362966Y-38562085D01*
X26425099Y-38545700D01*
X30032546Y-38545700D01*
X30051496Y-38547133D01*
X30065396Y-38549248D01*
X30065400Y-38549248D01*
X30072630Y-38550348D01*
X30079922Y-38549755D01*
X30079925Y-38549755D01*
X30124675Y-38546115D01*
X30134889Y-38545700D01*
X30142822Y-38545700D01*
X30152118Y-38544616D01*
X30170736Y-38542446D01*
X30175111Y-38542013D01*
X30205274Y-38539560D01*
X30247059Y-38536161D01*
X30254021Y-38533906D01*
X30259816Y-38532748D01*
X30265558Y-38531391D01*
X30272828Y-38530543D01*
X30340736Y-38505894D01*
X30344864Y-38504477D01*
X30406583Y-38484483D01*
X30406585Y-38484482D01*
X30413546Y-38482227D01*
X30419800Y-38478432D01*
X30425179Y-38475969D01*
X30430455Y-38473327D01*
X30437331Y-38470831D01*
X30497709Y-38431246D01*
X30501419Y-38428905D01*
X30558361Y-38394352D01*
X30558368Y-38394347D01*
X30563160Y-38391439D01*
X30571452Y-38384115D01*
X30571474Y-38384140D01*
X30574569Y-38381394D01*
X30577563Y-38378891D01*
X30583685Y-38374877D01*
X30636384Y-38319247D01*
X30638761Y-38316806D01*
X31100143Y-37855424D01*
X31162455Y-37821398D01*
X31214356Y-37821048D01*
X31258159Y-37829960D01*
X31263334Y-37830150D01*
X31263336Y-37830150D01*
X31476564Y-37837969D01*
X31476568Y-37837969D01*
X31481728Y-37838158D01*
X31486848Y-37837502D01*
X31486850Y-37837502D01*
X31557034Y-37828511D01*
X31703633Y-37809731D01*
X31708584Y-37808246D01*
X31708587Y-37808245D01*
X31912966Y-37746928D01*
X31912965Y-37746928D01*
X31917916Y-37745443D01*
X32118822Y-37647020D01*
X32123027Y-37644020D01*
X32123033Y-37644017D01*
X32280437Y-37531742D01*
X33267013Y-37531742D01*
X33276309Y-37543757D01*
X33318869Y-37573558D01*
X33328365Y-37579041D01*
X33519480Y-37668159D01*
X33529772Y-37671905D01*
X33733460Y-37726483D01*
X33744253Y-37728386D01*
X33954325Y-37746765D01*
X33965275Y-37746765D01*
X34175347Y-37728386D01*
X34186140Y-37726483D01*
X34389828Y-37671905D01*
X34400120Y-37668159D01*
X34591235Y-37579041D01*
X34600731Y-37573558D01*
X34644129Y-37543170D01*
X34652504Y-37532693D01*
X34645435Y-37519245D01*
X33972612Y-36846422D01*
X33958668Y-36838808D01*
X33956835Y-36838939D01*
X33950220Y-36843190D01*
X33273443Y-37519967D01*
X33267013Y-37531742D01*
X32280437Y-37531742D01*
X32296751Y-37520105D01*
X32296753Y-37520103D01*
X32300955Y-37517106D01*
X32459424Y-37359189D01*
X32589973Y-37177511D01*
X32611419Y-37134119D01*
X32627359Y-37101867D01*
X32675473Y-37049660D01*
X32744174Y-37031753D01*
X32811651Y-37053832D01*
X32851902Y-37101364D01*
X32852409Y-37101071D01*
X32854027Y-37103873D01*
X32854512Y-37104446D01*
X32855160Y-37105836D01*
X32860642Y-37115331D01*
X32891030Y-37158729D01*
X32901507Y-37167104D01*
X32914955Y-37160035D01*
X33587778Y-36487212D01*
X33595392Y-36473268D01*
X33595261Y-36471435D01*
X33591010Y-36464820D01*
X32914233Y-35788043D01*
X32902458Y-35781613D01*
X32890443Y-35790909D01*
X32860642Y-35833469D01*
X32852409Y-35847729D01*
X32850799Y-35846800D01*
X32809344Y-35893874D01*
X32741065Y-35913329D01*
X32673107Y-35892781D01*
X32626526Y-35837576D01*
X32624986Y-35834033D01*
X32624980Y-35834022D01*
X32622923Y-35829291D01*
X32501405Y-35641452D01*
X32495157Y-35634585D01*
X32354317Y-35479805D01*
X32354315Y-35479804D01*
X32350839Y-35475983D01*
X32346788Y-35472784D01*
X32346784Y-35472780D01*
X32275023Y-35416107D01*
X33267096Y-35416107D01*
X33274165Y-35429555D01*
X35005367Y-37160757D01*
X35017142Y-37167187D01*
X35029157Y-37157891D01*
X35058958Y-37115331D01*
X35064441Y-37105835D01*
X35153559Y-36914720D01*
X35158153Y-36902099D01*
X35200249Y-36844929D01*
X35266571Y-36819593D01*
X35336062Y-36834136D01*
X35348824Y-36841984D01*
X35359070Y-36849158D01*
X35368565Y-36854641D01*
X35559680Y-36943759D01*
X35569972Y-36947505D01*
X35773660Y-37002083D01*
X35784453Y-37003986D01*
X35994525Y-37022365D01*
X36005475Y-37022365D01*
X36215547Y-37003986D01*
X36226340Y-37002083D01*
X36430028Y-36947505D01*
X36440320Y-36943759D01*
X36631435Y-36854641D01*
X36640931Y-36849158D01*
X36684329Y-36818770D01*
X36692704Y-36808293D01*
X36685635Y-36794845D01*
X34954433Y-35063643D01*
X34942658Y-35057213D01*
X34930643Y-35066509D01*
X34900842Y-35109069D01*
X34895359Y-35118565D01*
X34806241Y-35309680D01*
X34801647Y-35322301D01*
X34759551Y-35379471D01*
X34693229Y-35404807D01*
X34623738Y-35390264D01*
X34610976Y-35382416D01*
X34600730Y-35375242D01*
X34591235Y-35369759D01*
X34400120Y-35280641D01*
X34389828Y-35276895D01*
X34186140Y-35222317D01*
X34175347Y-35220414D01*
X33965275Y-35202035D01*
X33954325Y-35202035D01*
X33744253Y-35220414D01*
X33733460Y-35222317D01*
X33529772Y-35276895D01*
X33519480Y-35280641D01*
X33328365Y-35369759D01*
X33318869Y-35375242D01*
X33275471Y-35405630D01*
X33267096Y-35416107D01*
X32275023Y-35416107D01*
X32179328Y-35340532D01*
X32175270Y-35337327D01*
X31979412Y-35229207D01*
X31859387Y-35186704D01*
X31773400Y-35156254D01*
X31773396Y-35156253D01*
X31768525Y-35154528D01*
X31763435Y-35153621D01*
X31763430Y-35153620D01*
X31621155Y-35128278D01*
X31548273Y-35115296D01*
X31462661Y-35114250D01*
X31329741Y-35112625D01*
X31329739Y-35112625D01*
X31324571Y-35112562D01*
X31176372Y-35135240D01*
X31108535Y-35145620D01*
X31108533Y-35145621D01*
X31103426Y-35146402D01*
X31098514Y-35148007D01*
X31098516Y-35148007D01*
X30895687Y-35214302D01*
X30895682Y-35214304D01*
X30890778Y-35215907D01*
X30886204Y-35218288D01*
X30886197Y-35218291D01*
X30710640Y-35309680D01*
X30692337Y-35319208D01*
X30668205Y-35337327D01*
X30597700Y-35390264D01*
X30513432Y-35453534D01*
X30509860Y-35457272D01*
X30415562Y-35555949D01*
X30354038Y-35591379D01*
X30283125Y-35587922D01*
X30225339Y-35546676D01*
X30208059Y-35517116D01*
X30203206Y-35505400D01*
X30164336Y-35411559D01*
X30068082Y-35286118D01*
X29942641Y-35189864D01*
X29796562Y-35129356D01*
X29746817Y-35122807D01*
X29683248Y-35114438D01*
X29683247Y-35114438D01*
X29679161Y-35113900D01*
X28879897Y-35113900D01*
X28080440Y-35113901D01*
X28076356Y-35114439D01*
X28076350Y-35114439D01*
X27971225Y-35128278D01*
X27971223Y-35128278D01*
X27963038Y-35129356D01*
X27816959Y-35189864D01*
X27691518Y-35286118D01*
X27595264Y-35411559D01*
X27534756Y-35557638D01*
X27533678Y-35565826D01*
X27527290Y-35614347D01*
X27498567Y-35679274D01*
X27439302Y-35718365D01*
X27402368Y-35723900D01*
X26804134Y-35723900D01*
X26736013Y-35703898D01*
X26689520Y-35650242D01*
X26678522Y-35588014D01*
X26685061Y-35504930D01*
X26685449Y-35500000D01*
X26665683Y-35248852D01*
X26660553Y-35227480D01*
X26625235Y-35080372D01*
X26606873Y-35003889D01*
X26570904Y-34917052D01*
X26512361Y-34775715D01*
X26512359Y-34775711D01*
X26510466Y-34771141D01*
X26461789Y-34691707D01*
X35307296Y-34691707D01*
X35314365Y-34705155D01*
X35987188Y-35377978D01*
X36001132Y-35385592D01*
X36002965Y-35385461D01*
X36009580Y-35381210D01*
X36686357Y-34704433D01*
X36692787Y-34692658D01*
X36683491Y-34680643D01*
X36640931Y-34650842D01*
X36631435Y-34645359D01*
X36440320Y-34556241D01*
X36430028Y-34552495D01*
X36226340Y-34497917D01*
X36215547Y-34496014D01*
X36005475Y-34477635D01*
X35994525Y-34477635D01*
X35784453Y-34496014D01*
X35773660Y-34497917D01*
X35569972Y-34552495D01*
X35559680Y-34556241D01*
X35368565Y-34645359D01*
X35359069Y-34650842D01*
X35315671Y-34681230D01*
X35307296Y-34691707D01*
X26461789Y-34691707D01*
X26378836Y-34556341D01*
X26375624Y-34552581D01*
X26375621Y-34552576D01*
X26218437Y-34368538D01*
X26215224Y-34364776D01*
X26164810Y-34321718D01*
X26027424Y-34204379D01*
X26027419Y-34204376D01*
X26023659Y-34201164D01*
X25808859Y-34069534D01*
X25804289Y-34067641D01*
X25804285Y-34067639D01*
X25580684Y-33975021D01*
X25580682Y-33975020D01*
X25576111Y-33973127D01*
X25475860Y-33949059D01*
X25335961Y-33915472D01*
X25335955Y-33915471D01*
X25331148Y-33914317D01*
X25080000Y-33894551D01*
X24828852Y-33914317D01*
X24824045Y-33915471D01*
X24824039Y-33915472D01*
X24684140Y-33949059D01*
X24583889Y-33973127D01*
X24579318Y-33975020D01*
X24579316Y-33975021D01*
X24355715Y-34067639D01*
X24355711Y-34067641D01*
X24351141Y-34069534D01*
X24136341Y-34201164D01*
X24132581Y-34204376D01*
X24132576Y-34204379D01*
X23948543Y-34361558D01*
X23948538Y-34361563D01*
X23944776Y-34364776D01*
X23941563Y-34368538D01*
X23941561Y-34368540D01*
X23905811Y-34410398D01*
X23846360Y-34449207D01*
X23775366Y-34449713D01*
X23714189Y-34410398D01*
X23678439Y-34368540D01*
X23678437Y-34368538D01*
X23675224Y-34364776D01*
X23671462Y-34361563D01*
X23671457Y-34361558D01*
X23487424Y-34204379D01*
X23487419Y-34204376D01*
X23483659Y-34201164D01*
X23399351Y-34149500D01*
X23350665Y-34119665D01*
X23303034Y-34067017D01*
X23290500Y-34012232D01*
X23290500Y-33576058D01*
X23310502Y-33507937D01*
X23327405Y-33486962D01*
X23489564Y-33324804D01*
X23551876Y-33290779D01*
X23578659Y-33287900D01*
X27390946Y-33287900D01*
X27409896Y-33289333D01*
X27423796Y-33291448D01*
X27423800Y-33291448D01*
X27431030Y-33292548D01*
X27438322Y-33291955D01*
X27438325Y-33291955D01*
X27483075Y-33288315D01*
X27493289Y-33287900D01*
X27501222Y-33287900D01*
X27510518Y-33286816D01*
X27529136Y-33284646D01*
X27533511Y-33284213D01*
X27563674Y-33281760D01*
X27605459Y-33278361D01*
X27612421Y-33276106D01*
X27618216Y-33274948D01*
X27623958Y-33273591D01*
X27631228Y-33272743D01*
X27699136Y-33248094D01*
X27703264Y-33246677D01*
X27764983Y-33226683D01*
X27764985Y-33226682D01*
X27771946Y-33224427D01*
X27778200Y-33220632D01*
X27783579Y-33218169D01*
X27788855Y-33215527D01*
X27795731Y-33213031D01*
X27856109Y-33173446D01*
X27859819Y-33171105D01*
X27916761Y-33136552D01*
X27916768Y-33136547D01*
X27921560Y-33133639D01*
X27929852Y-33126315D01*
X27929874Y-33126340D01*
X27932969Y-33123594D01*
X27935963Y-33121091D01*
X27942085Y-33117077D01*
X27994783Y-33061448D01*
X27997160Y-33059007D01*
X28480287Y-32575880D01*
X28542599Y-32541854D01*
X28598796Y-32542456D01*
X28774039Y-32584528D01*
X28774045Y-32584529D01*
X28778852Y-32585683D01*
X29030000Y-32605449D01*
X29281148Y-32585683D01*
X29285955Y-32584529D01*
X29285961Y-32584528D01*
X29453726Y-32544251D01*
X29526111Y-32526873D01*
X29562030Y-32511995D01*
X29754285Y-32432361D01*
X29754289Y-32432359D01*
X29758859Y-32430466D01*
X29973659Y-32298836D01*
X29977419Y-32295624D01*
X29977424Y-32295621D01*
X30161462Y-32138437D01*
X30165224Y-32135224D01*
X30237767Y-32050287D01*
X30325621Y-31947424D01*
X30325624Y-31947419D01*
X30328836Y-31943659D01*
X30460466Y-31728859D01*
X30556873Y-31496111D01*
X30615683Y-31251148D01*
X30635449Y-31000000D01*
X30615683Y-30748852D01*
X30594917Y-30662352D01*
X30561015Y-30521141D01*
X30556873Y-30503889D01*
X30543203Y-30470887D01*
X30462361Y-30275715D01*
X30462359Y-30275711D01*
X30460466Y-30271141D01*
X30347049Y-30086062D01*
X40278493Y-30086062D01*
X40287789Y-30098077D01*
X40338994Y-30133931D01*
X40348489Y-30139414D01*
X40545947Y-30231490D01*
X40556239Y-30235236D01*
X40766688Y-30291625D01*
X40777481Y-30293528D01*
X40994525Y-30312517D01*
X41005475Y-30312517D01*
X41222519Y-30293528D01*
X41233312Y-30291625D01*
X41443761Y-30235236D01*
X41454053Y-30231490D01*
X41651511Y-30139414D01*
X41661006Y-30133931D01*
X41713048Y-30097491D01*
X41721424Y-30087012D01*
X41714356Y-30073566D01*
X41012812Y-29372022D01*
X40998868Y-29364408D01*
X40997035Y-29364539D01*
X40990420Y-29368790D01*
X40284923Y-30074287D01*
X40278493Y-30086062D01*
X30347049Y-30086062D01*
X30328836Y-30056341D01*
X30325624Y-30052581D01*
X30325621Y-30052576D01*
X30168437Y-29868538D01*
X30165224Y-29864776D01*
X30147052Y-29849256D01*
X29977424Y-29704379D01*
X29977419Y-29704376D01*
X29973659Y-29701164D01*
X29901828Y-29657145D01*
X29854197Y-29604498D01*
X29842590Y-29534457D01*
X29870693Y-29469259D01*
X29878568Y-29460618D01*
X30000047Y-29339139D01*
X30130568Y-29152734D01*
X30136922Y-29139109D01*
X30199237Y-29005475D01*
X39687483Y-29005475D01*
X39706472Y-29222519D01*
X39708375Y-29233312D01*
X39764764Y-29443761D01*
X39768510Y-29454053D01*
X39860586Y-29651511D01*
X39866069Y-29661006D01*
X39902509Y-29713048D01*
X39912988Y-29721424D01*
X39926434Y-29714356D01*
X40627978Y-29012812D01*
X40634356Y-29001132D01*
X41364408Y-29001132D01*
X41364539Y-29002965D01*
X41368790Y-29009580D01*
X42074287Y-29715077D01*
X42086062Y-29721507D01*
X42098077Y-29712211D01*
X42133931Y-29661006D01*
X42139414Y-29651511D01*
X42231490Y-29454053D01*
X42235236Y-29443761D01*
X42291625Y-29233312D01*
X42293528Y-29222519D01*
X42312517Y-29005475D01*
X42312517Y-28994525D01*
X42293528Y-28777481D01*
X42291625Y-28766688D01*
X42235236Y-28556239D01*
X42231490Y-28545947D01*
X42139414Y-28348489D01*
X42133931Y-28338994D01*
X42097491Y-28286952D01*
X42087012Y-28278576D01*
X42073566Y-28285644D01*
X41372022Y-28987188D01*
X41364408Y-29001132D01*
X40634356Y-29001132D01*
X40635592Y-28998868D01*
X40635461Y-28997035D01*
X40631210Y-28990420D01*
X39925713Y-28284923D01*
X39913938Y-28278493D01*
X39901923Y-28287789D01*
X39866069Y-28338994D01*
X39860586Y-28348489D01*
X39768510Y-28545947D01*
X39764764Y-28556239D01*
X39708375Y-28766688D01*
X39706472Y-28777481D01*
X39687483Y-28994525D01*
X39687483Y-29005475D01*
X30199237Y-29005475D01*
X30224416Y-28951478D01*
X30224417Y-28951476D01*
X30226739Y-28946496D01*
X30285635Y-28726692D01*
X30305468Y-28500000D01*
X30285635Y-28273308D01*
X30257487Y-28168257D01*
X30228162Y-28058814D01*
X30228161Y-28058812D01*
X30226739Y-28053504D01*
X30207032Y-28011243D01*
X30132891Y-27852247D01*
X30132889Y-27852244D01*
X30130568Y-27847266D01*
X30000047Y-27660861D01*
X29839139Y-27499953D01*
X29652734Y-27369432D01*
X29647756Y-27367111D01*
X29647753Y-27367109D01*
X29451478Y-27275584D01*
X29451476Y-27275583D01*
X29446496Y-27273261D01*
X29441188Y-27271839D01*
X29441186Y-27271838D01*
X29232007Y-27215789D01*
X29232005Y-27215789D01*
X29226692Y-27214365D01*
X29000000Y-27194532D01*
X28773308Y-27214365D01*
X28767995Y-27215789D01*
X28767993Y-27215789D01*
X28558814Y-27271838D01*
X28558812Y-27271839D01*
X28553504Y-27273261D01*
X28548524Y-27275583D01*
X28548522Y-27275584D01*
X28352247Y-27367109D01*
X28352244Y-27367111D01*
X28347266Y-27369432D01*
X28160861Y-27499953D01*
X27999953Y-27660861D01*
X27869432Y-27847266D01*
X27867111Y-27852244D01*
X27867109Y-27852247D01*
X27792968Y-28011243D01*
X27773261Y-28053504D01*
X27771839Y-28058812D01*
X27771838Y-28058814D01*
X27742513Y-28168257D01*
X27714365Y-28273308D01*
X27694532Y-28500000D01*
X27714365Y-28726692D01*
X27773261Y-28946496D01*
X27775583Y-28951476D01*
X27775584Y-28951478D01*
X27863079Y-29139109D01*
X27869432Y-29152734D01*
X27999953Y-29339139D01*
X28144230Y-29483416D01*
X28178256Y-29545728D01*
X28173191Y-29616543D01*
X28130644Y-29673379D01*
X28120975Y-29679940D01*
X28086341Y-29701164D01*
X28082581Y-29704376D01*
X28082576Y-29704379D01*
X27898543Y-29861558D01*
X27898538Y-29861563D01*
X27894776Y-29864776D01*
X27891563Y-29868538D01*
X27891561Y-29868540D01*
X27855811Y-29910398D01*
X27796360Y-29949207D01*
X27725366Y-29949713D01*
X27664189Y-29910398D01*
X27628439Y-29868540D01*
X27628437Y-29868538D01*
X27625224Y-29864776D01*
X27621462Y-29861563D01*
X27621457Y-29861558D01*
X27437424Y-29704379D01*
X27437419Y-29704376D01*
X27433659Y-29701164D01*
X27218859Y-29569534D01*
X27214289Y-29567641D01*
X27214285Y-29567639D01*
X26990684Y-29475021D01*
X26990682Y-29475020D01*
X26986111Y-29473127D01*
X26890867Y-29450261D01*
X26745961Y-29415472D01*
X26745955Y-29415471D01*
X26741148Y-29414317D01*
X26490000Y-29394551D01*
X26238852Y-29414317D01*
X26234045Y-29415471D01*
X26234039Y-29415472D01*
X26089133Y-29450261D01*
X25993889Y-29473127D01*
X25989318Y-29475020D01*
X25989316Y-29475021D01*
X25765715Y-29567639D01*
X25765711Y-29567641D01*
X25761141Y-29569534D01*
X25546341Y-29701164D01*
X25542581Y-29704376D01*
X25542576Y-29704379D01*
X25358543Y-29861558D01*
X25358538Y-29861563D01*
X25354776Y-29864776D01*
X25351563Y-29868538D01*
X25351561Y-29868540D01*
X25315811Y-29910398D01*
X25256360Y-29949207D01*
X25185366Y-29949713D01*
X25124189Y-29910398D01*
X25088439Y-29868540D01*
X25088437Y-29868538D01*
X25085224Y-29864776D01*
X25081462Y-29861563D01*
X25081457Y-29861558D01*
X24897424Y-29704379D01*
X24897419Y-29704375D01*
X24893659Y-29701164D01*
X24889444Y-29698581D01*
X24889437Y-29698576D01*
X24871432Y-29687543D01*
X24823800Y-29634896D01*
X24812193Y-29564855D01*
X24840295Y-29499657D01*
X24848171Y-29491015D01*
X25000047Y-29339139D01*
X25130568Y-29152734D01*
X25136922Y-29139109D01*
X25224416Y-28951478D01*
X25224417Y-28951476D01*
X25226739Y-28946496D01*
X25285635Y-28726692D01*
X25305468Y-28500000D01*
X25285635Y-28273308D01*
X25257487Y-28168257D01*
X25228162Y-28058814D01*
X25228161Y-28058812D01*
X25226739Y-28053504D01*
X25207032Y-28011243D01*
X25132891Y-27852247D01*
X25132889Y-27852244D01*
X25130568Y-27847266D01*
X25000047Y-27660861D01*
X24839139Y-27499953D01*
X24652734Y-27369432D01*
X24647756Y-27367111D01*
X24647753Y-27367109D01*
X24451478Y-27275584D01*
X24451476Y-27275583D01*
X24446496Y-27273261D01*
X24441188Y-27271839D01*
X24441186Y-27271838D01*
X24232007Y-27215789D01*
X24232005Y-27215789D01*
X24226692Y-27214365D01*
X24000000Y-27194532D01*
X23773308Y-27214365D01*
X23767995Y-27215789D01*
X23767993Y-27215789D01*
X23558814Y-27271838D01*
X23558812Y-27271839D01*
X23553504Y-27273261D01*
X23548524Y-27275583D01*
X23548522Y-27275584D01*
X23352247Y-27367109D01*
X23352244Y-27367111D01*
X23347266Y-27369432D01*
X23160861Y-27499953D01*
X22999953Y-27660861D01*
X22869432Y-27847266D01*
X22867111Y-27852244D01*
X22867109Y-27852247D01*
X22792968Y-28011243D01*
X22773261Y-28053504D01*
X22771839Y-28058812D01*
X22771838Y-28058814D01*
X22742513Y-28168257D01*
X22714365Y-28273308D01*
X22694532Y-28500000D01*
X22714365Y-28726692D01*
X22773261Y-28946496D01*
X22775583Y-28951476D01*
X22775584Y-28951478D01*
X22863079Y-29139109D01*
X22869432Y-29152734D01*
X22999953Y-29339139D01*
X23113833Y-29453019D01*
X23147859Y-29515331D01*
X23142794Y-29586146D01*
X23100247Y-29642982D01*
X23090572Y-29649547D01*
X23028568Y-29687543D01*
X23006341Y-29701164D01*
X23002581Y-29704376D01*
X23002576Y-29704379D01*
X22818543Y-29861558D01*
X22818538Y-29861563D01*
X22814776Y-29864776D01*
X22811563Y-29868538D01*
X22811561Y-29868540D01*
X22775811Y-29910398D01*
X22716360Y-29949207D01*
X22645366Y-29949713D01*
X22584189Y-29910398D01*
X22548439Y-29868540D01*
X22548437Y-29868538D01*
X22545224Y-29864776D01*
X22541462Y-29861563D01*
X22541457Y-29861558D01*
X22357424Y-29704379D01*
X22357419Y-29704376D01*
X22353659Y-29701164D01*
X22138859Y-29569534D01*
X22134289Y-29567641D01*
X22134285Y-29567639D01*
X21910684Y-29475021D01*
X21910682Y-29475020D01*
X21906111Y-29473127D01*
X21810867Y-29450261D01*
X21665961Y-29415472D01*
X21665955Y-29415471D01*
X21661148Y-29414317D01*
X21410000Y-29394551D01*
X21158852Y-29414317D01*
X21154045Y-29415471D01*
X21154039Y-29415472D01*
X21009133Y-29450261D01*
X20913889Y-29473127D01*
X20909318Y-29475020D01*
X20909316Y-29475021D01*
X20685715Y-29567639D01*
X20685711Y-29567641D01*
X20681141Y-29569534D01*
X20466341Y-29701164D01*
X20462581Y-29704376D01*
X20462576Y-29704379D01*
X20278543Y-29861558D01*
X20278538Y-29861563D01*
X20274776Y-29864776D01*
X20271563Y-29868538D01*
X20271561Y-29868540D01*
X20235811Y-29910398D01*
X20176360Y-29949207D01*
X20105366Y-29949713D01*
X20044189Y-29910398D01*
X20008439Y-29868540D01*
X20008437Y-29868538D01*
X20005224Y-29864776D01*
X20001462Y-29861563D01*
X20001457Y-29861558D01*
X19817424Y-29704379D01*
X19817419Y-29704375D01*
X19813659Y-29701164D01*
X19809444Y-29698581D01*
X19809433Y-29698573D01*
X19686025Y-29622948D01*
X19638393Y-29570301D01*
X19626787Y-29500259D01*
X19654890Y-29435062D01*
X19662765Y-29426421D01*
X19750047Y-29339139D01*
X19880568Y-29152734D01*
X19886922Y-29139109D01*
X19974416Y-28951478D01*
X19974417Y-28951476D01*
X19976739Y-28946496D01*
X20035635Y-28726692D01*
X20055468Y-28500000D01*
X20035635Y-28273308D01*
X20007487Y-28168257D01*
X19978162Y-28058814D01*
X19978161Y-28058812D01*
X19976739Y-28053504D01*
X19957032Y-28011243D01*
X19882891Y-27852247D01*
X19882889Y-27852244D01*
X19880568Y-27847266D01*
X19750047Y-27660861D01*
X19589139Y-27499953D01*
X19402734Y-27369432D01*
X19397756Y-27367111D01*
X19397753Y-27367109D01*
X19201478Y-27275584D01*
X19201476Y-27275583D01*
X19196496Y-27273261D01*
X19191188Y-27271839D01*
X19191186Y-27271838D01*
X18982007Y-27215789D01*
X18982005Y-27215789D01*
X18976692Y-27214365D01*
X18750000Y-27194532D01*
X18523308Y-27214365D01*
X18517995Y-27215789D01*
X18517993Y-27215789D01*
X18308814Y-27271838D01*
X18308812Y-27271839D01*
X18303504Y-27273261D01*
X18298524Y-27275583D01*
X18298522Y-27275584D01*
X18102247Y-27367109D01*
X18102244Y-27367111D01*
X18097266Y-27369432D01*
X17910861Y-27499953D01*
X17749953Y-27660861D01*
X17619432Y-27847266D01*
X17617109Y-27852247D01*
X17617107Y-27852251D01*
X17614195Y-27858496D01*
X17567278Y-27911782D01*
X17499001Y-27931243D01*
X17431041Y-27910702D01*
X17385805Y-27858496D01*
X17382893Y-27852251D01*
X17382891Y-27852247D01*
X17380568Y-27847266D01*
X17250047Y-27660861D01*
X17089139Y-27499953D01*
X16902734Y-27369432D01*
X16897756Y-27367111D01*
X16897753Y-27367109D01*
X16701478Y-27275584D01*
X16701476Y-27275583D01*
X16696496Y-27273261D01*
X16691188Y-27271839D01*
X16691186Y-27271838D01*
X16482007Y-27215789D01*
X16482005Y-27215789D01*
X16476692Y-27214365D01*
X16250000Y-27194532D01*
X16023308Y-27214365D01*
X16017995Y-27215789D01*
X16017993Y-27215789D01*
X15808814Y-27271838D01*
X15808812Y-27271839D01*
X15803504Y-27273261D01*
X15798524Y-27275583D01*
X15798522Y-27275584D01*
X15602247Y-27367109D01*
X15602244Y-27367111D01*
X15597266Y-27369432D01*
X15410861Y-27499953D01*
X15249953Y-27660861D01*
X15119432Y-27847266D01*
X15117109Y-27852247D01*
X15117107Y-27852251D01*
X15114195Y-27858496D01*
X15067278Y-27911782D01*
X14999001Y-27931243D01*
X14931041Y-27910702D01*
X14885805Y-27858496D01*
X14882893Y-27852251D01*
X14882891Y-27852247D01*
X14880568Y-27847266D01*
X14750047Y-27660861D01*
X14589139Y-27499953D01*
X14402734Y-27369432D01*
X14397756Y-27367111D01*
X14397753Y-27367109D01*
X14201478Y-27275584D01*
X14201476Y-27275583D01*
X14196496Y-27273261D01*
X14191188Y-27271839D01*
X14191186Y-27271838D01*
X13982007Y-27215789D01*
X13982005Y-27215789D01*
X13976692Y-27214365D01*
X13750000Y-27194532D01*
X13523308Y-27214365D01*
X13517995Y-27215789D01*
X13517993Y-27215789D01*
X13308814Y-27271838D01*
X13308812Y-27271839D01*
X13303504Y-27273261D01*
X13298524Y-27275583D01*
X13298522Y-27275584D01*
X13102247Y-27367109D01*
X13102244Y-27367111D01*
X13097266Y-27369432D01*
X12910861Y-27499953D01*
X12749953Y-27660861D01*
X12619432Y-27847266D01*
X12617109Y-27852247D01*
X12617107Y-27852251D01*
X12614195Y-27858496D01*
X12567278Y-27911782D01*
X12499001Y-27931243D01*
X12431041Y-27910702D01*
X12385805Y-27858496D01*
X12382893Y-27852251D01*
X12382891Y-27852247D01*
X12380568Y-27847266D01*
X12250047Y-27660861D01*
X12089139Y-27499953D01*
X11902734Y-27369432D01*
X11897756Y-27367111D01*
X11897753Y-27367109D01*
X11701478Y-27275584D01*
X11701476Y-27275583D01*
X11696496Y-27273261D01*
X11691188Y-27271839D01*
X11691186Y-27271838D01*
X11482007Y-27215789D01*
X11482005Y-27215789D01*
X11476692Y-27214365D01*
X11250000Y-27194532D01*
X11023308Y-27214365D01*
X11017995Y-27215789D01*
X11017993Y-27215789D01*
X10808814Y-27271838D01*
X10808812Y-27271839D01*
X10803504Y-27273261D01*
X10798524Y-27275583D01*
X10798522Y-27275584D01*
X10602247Y-27367109D01*
X10602244Y-27367111D01*
X10597266Y-27369432D01*
X10410861Y-27499953D01*
X10249953Y-27660861D01*
X10119432Y-27847266D01*
X10117111Y-27852244D01*
X10117109Y-27852247D01*
X10042968Y-28011243D01*
X10023261Y-28053504D01*
X10021839Y-28058812D01*
X10021838Y-28058814D01*
X9992513Y-28168257D01*
X9964365Y-28273308D01*
X9944532Y-28500000D01*
X9964365Y-28726692D01*
X10023261Y-28946496D01*
X10025583Y-28951476D01*
X10025584Y-28951478D01*
X10113079Y-29139109D01*
X10119432Y-29152734D01*
X10249953Y-29339139D01*
X10382831Y-29472017D01*
X10416857Y-29534329D01*
X10411792Y-29605144D01*
X10369245Y-29661980D01*
X10359570Y-29668545D01*
X10310563Y-29698576D01*
X10310556Y-29698581D01*
X10306341Y-29701164D01*
X10302581Y-29704375D01*
X10302576Y-29704379D01*
X10132948Y-29849256D01*
X10114776Y-29864776D01*
X10111563Y-29868538D01*
X9954379Y-30052576D01*
X9954376Y-30052581D01*
X9951164Y-30056341D01*
X9819534Y-30271141D01*
X9817641Y-30275711D01*
X9817639Y-30275715D01*
X9736797Y-30470887D01*
X9723127Y-30503889D01*
X9718985Y-30521141D01*
X9685084Y-30662352D01*
X9664317Y-30748852D01*
X9644551Y-31000000D01*
X9664317Y-31251148D01*
X9723127Y-31496111D01*
X9819534Y-31728859D01*
X9951164Y-31943659D01*
X9954376Y-31947419D01*
X9954379Y-31947424D01*
X10042233Y-32050287D01*
X10114776Y-32135224D01*
X10118538Y-32138437D01*
X10302576Y-32295621D01*
X10302581Y-32295624D01*
X10306341Y-32298836D01*
X10521141Y-32430466D01*
X10525711Y-32432359D01*
X10525715Y-32432361D01*
X10717970Y-32511995D01*
X10753889Y-32526873D01*
X10826274Y-32544251D01*
X10994039Y-32584528D01*
X10994045Y-32584529D01*
X10998852Y-32585683D01*
X11250000Y-32605449D01*
X11501148Y-32585683D01*
X11505955Y-32584529D01*
X11505961Y-32584528D01*
X11571467Y-32568801D01*
X11642375Y-32572348D01*
X11700109Y-32613668D01*
X11726339Y-32679642D01*
X11712736Y-32749323D01*
X11669966Y-32796692D01*
X11652603Y-32808076D01*
X11640901Y-32815748D01*
X11637181Y-32818095D01*
X11580239Y-32852648D01*
X11580232Y-32852653D01*
X11575440Y-32855561D01*
X11567148Y-32862885D01*
X11567126Y-32862860D01*
X11564031Y-32865606D01*
X11561037Y-32868109D01*
X11554915Y-32872123D01*
X11520150Y-32908822D01*
X11502217Y-32927752D01*
X11499839Y-32930194D01*
X10936311Y-33493722D01*
X10921898Y-33506109D01*
X10910575Y-33514441D01*
X10910571Y-33514445D01*
X10904676Y-33518783D01*
X10870849Y-33558600D01*
X10863929Y-33566104D01*
X10858330Y-33571703D01*
X10840886Y-33593751D01*
X10838117Y-33597127D01*
X10796108Y-33646575D01*
X10796106Y-33646578D01*
X10791368Y-33652155D01*
X10788040Y-33658674D01*
X10784765Y-33663584D01*
X10781664Y-33668604D01*
X10777119Y-33674349D01*
X10774017Y-33680987D01*
X10774016Y-33680988D01*
X10746556Y-33739743D01*
X10744628Y-33743689D01*
X10711781Y-33808016D01*
X10710042Y-33815125D01*
X10707983Y-33820660D01*
X10706117Y-33826268D01*
X10703021Y-33832893D01*
X10701532Y-33840053D01*
X10701531Y-33840055D01*
X10688315Y-33903593D01*
X10687344Y-33907882D01*
X10685645Y-33914827D01*
X10670185Y-33978006D01*
X10669838Y-33983606D01*
X10669837Y-33983610D01*
X10669721Y-33985478D01*
X10669500Y-33989048D01*
X10669468Y-33989046D01*
X10669221Y-33993176D01*
X10668875Y-33997056D01*
X10667382Y-34004231D01*
X10667580Y-34011553D01*
X10666929Y-34018845D01*
X10665238Y-34018694D01*
X10649385Y-34078636D01*
X10607419Y-34120839D01*
X10560649Y-34149500D01*
X10476341Y-34201164D01*
X10472581Y-34204376D01*
X10472576Y-34204379D01*
X10335190Y-34321718D01*
X10284776Y-34364776D01*
X10281563Y-34368538D01*
X10124379Y-34552576D01*
X10124376Y-34552581D01*
X10121164Y-34556341D01*
X9989534Y-34771141D01*
X9987641Y-34775711D01*
X9987639Y-34775715D01*
X9929096Y-34917052D01*
X9893127Y-35003889D01*
X9874765Y-35080372D01*
X9839448Y-35227480D01*
X9834317Y-35248852D01*
X9814551Y-35500000D01*
X9834317Y-35751148D01*
X9835471Y-35755955D01*
X9835472Y-35755961D01*
X9852036Y-35824953D01*
X9893127Y-35996111D01*
X9895020Y-36000682D01*
X9895021Y-36000684D01*
X9909010Y-36034455D01*
X9989534Y-36228859D01*
X10121164Y-36443659D01*
X10124376Y-36447419D01*
X10124379Y-36447424D01*
X10281558Y-36631457D01*
X10281561Y-36631460D01*
X10284776Y-36635224D01*
X10288538Y-36638437D01*
X10288540Y-36638439D01*
X10330398Y-36674189D01*
X10369207Y-36733640D01*
X10369713Y-36804634D01*
X10330398Y-36865811D01*
X10292038Y-36898574D01*
X10284776Y-36904776D01*
X10281563Y-36908538D01*
X10281558Y-36908543D01*
X10124379Y-37092576D01*
X10124376Y-37092581D01*
X10121164Y-37096341D01*
X10067873Y-37183305D01*
X10061921Y-37193017D01*
X10009273Y-37240648D01*
X9939232Y-37252255D01*
X9874034Y-37224152D01*
X9834380Y-37165262D01*
X9829610Y-37143957D01*
X9828289Y-37134119D01*
X9828284Y-37134090D01*
X9827912Y-37131322D01*
X9824403Y-37115811D01*
X9762441Y-36841984D01*
X9731578Y-36705587D01*
X9728950Y-36697424D01*
X9658565Y-36478859D01*
X9597780Y-36290101D01*
X9577115Y-36241299D01*
X9428675Y-35890746D01*
X9428671Y-35890738D01*
X9427577Y-35888154D01*
X9222318Y-35502928D01*
X9217186Y-35495070D01*
X8985167Y-35139833D01*
X8985164Y-35139829D01*
X8983626Y-35137474D01*
X8737773Y-34825611D01*
X8715122Y-34796878D01*
X8715120Y-34796876D01*
X8713393Y-34794685D01*
X8413758Y-34477275D01*
X8411667Y-34475422D01*
X8411659Y-34475414D01*
X8089193Y-34189619D01*
X8089191Y-34189617D01*
X8087093Y-34187758D01*
X8063773Y-34170533D01*
X7902841Y-34051667D01*
X7735985Y-33928425D01*
X7517894Y-33795563D01*
X7365602Y-33702786D01*
X7365595Y-33702782D01*
X7363213Y-33701331D01*
X7343035Y-33691380D01*
X7095105Y-33569115D01*
X6971730Y-33508273D01*
X6969134Y-33507268D01*
X6969121Y-33507263D01*
X6662178Y-33388517D01*
X6564635Y-33350780D01*
X6284702Y-33270246D01*
X6147833Y-33230870D01*
X6147827Y-33230869D01*
X6145152Y-33230099D01*
X6142415Y-33229570D01*
X6142409Y-33229568D01*
X5921030Y-33186737D01*
X5716601Y-33147185D01*
X5282377Y-33102695D01*
X5279587Y-33102658D01*
X5279579Y-33102658D01*
X5007264Y-33099094D01*
X4845916Y-33096982D01*
X4843116Y-33097195D01*
X4843115Y-33097195D01*
X4460291Y-33126315D01*
X4410676Y-33130089D01*
X3980102Y-33201757D01*
X3916869Y-33218169D01*
X3560321Y-33310710D01*
X3560310Y-33310713D01*
X3557603Y-33311416D01*
X3295015Y-33405177D01*
X3149168Y-33457254D01*
X3149163Y-33457256D01*
X3146525Y-33458198D01*
X3143985Y-33459369D01*
X3143980Y-33459371D01*
X3024095Y-33514639D01*
X2750123Y-33640942D01*
X2747700Y-33642332D01*
X2747697Y-33642334D01*
X2622239Y-33714330D01*
X2371534Y-33858201D01*
X2369242Y-33859803D01*
X2369234Y-33859808D01*
X2056668Y-34078264D01*
X2013758Y-34108254D01*
X1679626Y-34389121D01*
X1371785Y-34698578D01*
X1092671Y-35034176D01*
X1091077Y-35036483D01*
X1091075Y-35036485D01*
X846564Y-35390264D01*
X844495Y-35393257D01*
X774276Y-35517116D01*
X743611Y-35571206D01*
X692614Y-35620601D01*
X623008Y-35634585D01*
X556892Y-35608716D01*
X515257Y-35551209D01*
X508000Y-35509065D01*
X508000Y-23603885D01*
X2464800Y-23603885D01*
X2469275Y-23619124D01*
X2470665Y-23620329D01*
X2478348Y-23622000D01*
X3715685Y-23622000D01*
X3730924Y-23617525D01*
X3732129Y-23616135D01*
X3733800Y-23608452D01*
X3733800Y-22521116D01*
X3729325Y-22505877D01*
X3727935Y-22504672D01*
X3720252Y-22503001D01*
X2928131Y-22503001D01*
X2921310Y-22503371D01*
X2870448Y-22508895D01*
X2855196Y-22512521D01*
X2734746Y-22557676D01*
X2719151Y-22566214D01*
X2617076Y-22642715D01*
X2604515Y-22655276D01*
X2528014Y-22757351D01*
X2519476Y-22772946D01*
X2474322Y-22893394D01*
X2470695Y-22908649D01*
X2465169Y-22959514D01*
X2464800Y-22966328D01*
X2464800Y-23603885D01*
X508000Y-23603885D01*
X508000Y-21194669D01*
X842001Y-21194669D01*
X842371Y-21201490D01*
X847895Y-21252352D01*
X851521Y-21267604D01*
X896676Y-21388054D01*
X905214Y-21403649D01*
X981715Y-21505724D01*
X994276Y-21518285D01*
X1096351Y-21594786D01*
X1111946Y-21603324D01*
X1232394Y-21648478D01*
X1247649Y-21652105D01*
X1298514Y-21657631D01*
X1305328Y-21658000D01*
X1727885Y-21658000D01*
X1743124Y-21653525D01*
X1744329Y-21652135D01*
X1746000Y-21644452D01*
X1746000Y-21639884D01*
X2254000Y-21639884D01*
X2258475Y-21655123D01*
X2259865Y-21656328D01*
X2267548Y-21657999D01*
X2694669Y-21657999D01*
X2701490Y-21657629D01*
X2752352Y-21652105D01*
X2767604Y-21648479D01*
X2888054Y-21603324D01*
X2903649Y-21594786D01*
X3005724Y-21518285D01*
X3018285Y-21505724D01*
X3094786Y-21403649D01*
X3103324Y-21388054D01*
X3148478Y-21267606D01*
X3152105Y-21252351D01*
X3157631Y-21201486D01*
X3158000Y-21194672D01*
X3158000Y-20772115D01*
X3153525Y-20756876D01*
X3152135Y-20755671D01*
X3144452Y-20754000D01*
X2272115Y-20754000D01*
X2256876Y-20758475D01*
X2255671Y-20759865D01*
X2254000Y-20767548D01*
X2254000Y-21639884D01*
X1746000Y-21639884D01*
X1746000Y-20772115D01*
X1741525Y-20756876D01*
X1740135Y-20755671D01*
X1732452Y-20754000D01*
X860116Y-20754000D01*
X844877Y-20758475D01*
X843672Y-20759865D01*
X842001Y-20767548D01*
X842001Y-21194669D01*
X508000Y-21194669D01*
X508000Y-20227885D01*
X842000Y-20227885D01*
X846475Y-20243124D01*
X847865Y-20244329D01*
X855548Y-20246000D01*
X1727885Y-20246000D01*
X1743124Y-20241525D01*
X1744329Y-20240135D01*
X1746000Y-20232452D01*
X1746000Y-20227885D01*
X2254000Y-20227885D01*
X2258475Y-20243124D01*
X2259865Y-20244329D01*
X2267548Y-20246000D01*
X3139884Y-20246000D01*
X3155123Y-20241525D01*
X3177388Y-20215830D01*
X3178655Y-20216928D01*
X3183928Y-20207265D01*
X3246231Y-20173222D01*
X3317048Y-20178267D01*
X3362144Y-20207240D01*
X3421199Y-20266295D01*
X3421202Y-20266297D01*
X4526305Y-21371401D01*
X4693399Y-21538495D01*
X4697908Y-21541652D01*
X4697910Y-21541654D01*
X4737380Y-21569291D01*
X4746099Y-21575982D01*
X4783007Y-21606951D01*
X4783015Y-21606956D01*
X4787226Y-21610490D01*
X4791984Y-21613237D01*
X4791991Y-21613242D01*
X4833720Y-21637335D01*
X4842987Y-21643238D01*
X4855651Y-21652105D01*
X4886971Y-21674035D01*
X4891949Y-21676356D01*
X4891959Y-21676362D01*
X4935626Y-21696723D01*
X4945377Y-21701799D01*
X4991873Y-21728644D01*
X5035569Y-21744549D01*
X5042321Y-21747006D01*
X5052476Y-21751212D01*
X5101137Y-21773903D01*
X5153008Y-21787801D01*
X5163474Y-21791101D01*
X5213929Y-21809465D01*
X5219341Y-21810419D01*
X5219340Y-21810419D01*
X5266792Y-21818786D01*
X5277523Y-21821165D01*
X5324076Y-21833639D01*
X5324081Y-21833640D01*
X5329392Y-21835063D01*
X5334876Y-21835543D01*
X5334877Y-21835543D01*
X5382869Y-21839742D01*
X5393765Y-21841176D01*
X5430317Y-21847621D01*
X5446646Y-21850500D01*
X5523500Y-21850500D01*
X5591621Y-21870502D01*
X5638114Y-21924158D01*
X5649500Y-21976500D01*
X5649500Y-22648546D01*
X5629498Y-22716667D01*
X5575842Y-22763160D01*
X5505568Y-22773264D01*
X5440988Y-22743770D01*
X5422674Y-22724111D01*
X5371085Y-22655276D01*
X5358524Y-22642715D01*
X5256449Y-22566214D01*
X5240854Y-22557676D01*
X5120406Y-22512522D01*
X5105151Y-22508895D01*
X5054286Y-22503369D01*
X5047472Y-22503000D01*
X4259915Y-22503000D01*
X4244676Y-22507475D01*
X4243471Y-22508865D01*
X4241800Y-22516548D01*
X4241800Y-24004000D01*
X4221798Y-24072121D01*
X4168142Y-24118614D01*
X4115800Y-24130000D01*
X2482916Y-24130000D01*
X2467677Y-24134475D01*
X2466472Y-24135865D01*
X2464801Y-24143548D01*
X2464801Y-24785669D01*
X2465171Y-24792490D01*
X2470695Y-24843352D01*
X2474321Y-24858604D01*
X2519476Y-24979054D01*
X2528014Y-24994649D01*
X2604515Y-25096724D01*
X2617076Y-25109285D01*
X2719151Y-25185786D01*
X2742618Y-25198634D01*
X2741517Y-25200645D01*
X2788230Y-25235734D01*
X2812932Y-25302295D01*
X2797726Y-25371644D01*
X2772041Y-25404267D01*
X2762328Y-25413106D01*
X2759129Y-25417157D01*
X2759125Y-25417161D01*
X2641591Y-25565985D01*
X2612970Y-25602225D01*
X2496506Y-25813199D01*
X2494782Y-25818068D01*
X2494780Y-25818072D01*
X2417790Y-26035486D01*
X2416064Y-26040361D01*
X2415157Y-26045454D01*
X2415156Y-26045457D01*
X2375218Y-26269671D01*
X2373803Y-26277612D01*
X2370859Y-26518578D01*
X2407311Y-26756791D01*
X2482179Y-26985851D01*
X2593453Y-27199607D01*
X2596556Y-27203740D01*
X2596558Y-27203743D01*
X2735041Y-27388184D01*
X2738146Y-27392319D01*
X2806511Y-27457650D01*
X2891111Y-27538495D01*
X2912370Y-27558811D01*
X2916642Y-27561725D01*
X2916643Y-27561726D01*
X2944068Y-27580434D01*
X2989071Y-27635345D01*
X2997242Y-27705870D01*
X2965988Y-27769617D01*
X2948550Y-27784363D01*
X2949007Y-27784956D01*
X2944910Y-27788111D01*
X2940568Y-27790920D01*
X2936745Y-27794399D01*
X2936742Y-27794401D01*
X2785247Y-27932251D01*
X2762328Y-27953106D01*
X2759129Y-27957157D01*
X2759125Y-27957161D01*
X2648477Y-28097266D01*
X2612970Y-28142225D01*
X2610477Y-28146741D01*
X2610475Y-28146744D01*
X2499380Y-28347993D01*
X2496506Y-28353199D01*
X2494782Y-28358068D01*
X2494780Y-28358072D01*
X2417790Y-28575486D01*
X2416064Y-28580361D01*
X2415157Y-28585454D01*
X2415156Y-28585457D01*
X2385847Y-28750000D01*
X2373803Y-28817612D01*
X2373302Y-28858592D01*
X2371589Y-28998868D01*
X2370859Y-29058578D01*
X2407311Y-29296791D01*
X2482179Y-29525851D01*
X2484567Y-29530439D01*
X2484569Y-29530443D01*
X2584031Y-29721507D01*
X2593453Y-29739607D01*
X2596556Y-29743740D01*
X2596558Y-29743743D01*
X2735041Y-29928184D01*
X2738146Y-29932319D01*
X2761712Y-29954839D01*
X2902582Y-30089457D01*
X2912370Y-30098811D01*
X2916642Y-30101725D01*
X2916643Y-30101726D01*
X2945015Y-30121080D01*
X3111447Y-30234612D01*
X3153290Y-30254035D01*
X3325340Y-30333899D01*
X3325345Y-30333901D01*
X3330031Y-30336076D01*
X3562251Y-30400476D01*
X3567388Y-30401025D01*
X3755643Y-30421144D01*
X3755651Y-30421144D01*
X3758978Y-30421500D01*
X4198896Y-30421500D01*
X4201469Y-30421288D01*
X4201480Y-30421288D01*
X4372824Y-30407201D01*
X4372830Y-30407200D01*
X4377975Y-30406777D01*
X4611699Y-30348070D01*
X4832697Y-30251977D01*
X4837031Y-30249173D01*
X4837035Y-30249171D01*
X5030689Y-30123890D01*
X5030692Y-30123888D01*
X5035032Y-30121080D01*
X5057875Y-30100295D01*
X5209450Y-29962372D01*
X5209452Y-29962370D01*
X5213272Y-29958894D01*
X5216471Y-29954843D01*
X5216475Y-29954839D01*
X5359429Y-29773828D01*
X5362630Y-29769775D01*
X5373442Y-29750189D01*
X5476597Y-29563325D01*
X5476599Y-29563321D01*
X5479094Y-29558801D01*
X5483724Y-29545728D01*
X5557810Y-29336514D01*
X5557811Y-29336510D01*
X5559536Y-29331639D01*
X5564868Y-29301706D01*
X5600891Y-29099477D01*
X5600892Y-29099471D01*
X5601797Y-29094388D01*
X5604628Y-28862690D01*
X5604678Y-28858592D01*
X5604678Y-28858590D01*
X5604741Y-28853422D01*
X5568289Y-28615209D01*
X5493421Y-28386149D01*
X5476326Y-28353308D01*
X5384536Y-28176982D01*
X5384535Y-28176981D01*
X5382147Y-28172393D01*
X5352949Y-28133504D01*
X5240564Y-27983823D01*
X5240563Y-27983822D01*
X5237454Y-27979681D01*
X5233749Y-27976141D01*
X5203487Y-27911934D01*
X5212743Y-27841543D01*
X5258585Y-27787331D01*
X5327979Y-27766500D01*
X6620953Y-27766500D01*
X6626373Y-27765544D01*
X6626377Y-27765544D01*
X6673836Y-27757176D01*
X6684731Y-27755742D01*
X6684888Y-27755728D01*
X6738208Y-27751063D01*
X6790064Y-27737168D01*
X6800788Y-27734790D01*
X6815673Y-27732166D01*
X6848252Y-27726422D01*
X6848258Y-27726420D01*
X6853671Y-27725466D01*
X6858839Y-27723585D01*
X6858843Y-27723584D01*
X6904126Y-27707103D01*
X6914607Y-27703799D01*
X6961145Y-27691329D01*
X6961156Y-27691325D01*
X6966463Y-27689903D01*
X7015124Y-27667212D01*
X7025277Y-27663007D01*
X7041875Y-27656966D01*
X7075726Y-27644645D01*
X7091861Y-27635330D01*
X7122223Y-27617800D01*
X7131972Y-27612725D01*
X7175637Y-27592364D01*
X7175648Y-27592358D01*
X7180629Y-27590035D01*
X7195028Y-27579953D01*
X7224606Y-27559242D01*
X7233877Y-27553336D01*
X7254104Y-27541658D01*
X7280374Y-27526491D01*
X7284587Y-27522956D01*
X7284591Y-27522953D01*
X7321506Y-27491977D01*
X7330220Y-27485290D01*
X7374201Y-27454495D01*
X7541295Y-27287401D01*
X7541297Y-27287398D01*
X7871398Y-26957297D01*
X7871401Y-26957295D01*
X8038495Y-26790201D01*
X8041653Y-26785691D01*
X8041658Y-26785685D01*
X8069292Y-26746219D01*
X8075983Y-26737498D01*
X8110491Y-26696373D01*
X8137334Y-26649880D01*
X8143240Y-26640610D01*
X8170878Y-26601139D01*
X8170882Y-26601131D01*
X8174035Y-26596629D01*
X8196721Y-26547978D01*
X8201796Y-26538229D01*
X8225897Y-26496486D01*
X8225898Y-26496484D01*
X8228645Y-26491726D01*
X8247008Y-26441274D01*
X8251213Y-26431122D01*
X8271580Y-26387445D01*
X8271580Y-26387444D01*
X8273903Y-26382463D01*
X8275325Y-26377156D01*
X8275329Y-26377145D01*
X8287799Y-26330607D01*
X8291103Y-26320126D01*
X8307584Y-26274843D01*
X8307585Y-26274839D01*
X8309466Y-26269671D01*
X8310420Y-26264258D01*
X8310422Y-26264252D01*
X8318789Y-26216793D01*
X8321169Y-26206059D01*
X8333637Y-26159530D01*
X8333637Y-26159529D01*
X8335063Y-26154208D01*
X8339742Y-26100731D01*
X8341176Y-26089836D01*
X8349544Y-26042377D01*
X8349544Y-26042373D01*
X8350500Y-26036953D01*
X8350500Y-22329900D01*
X8370502Y-22261779D01*
X8424158Y-22215286D01*
X8476500Y-22203900D01*
X10322908Y-22203900D01*
X10391029Y-22223902D01*
X10437522Y-22277558D01*
X10447626Y-22347832D01*
X10418132Y-22412412D01*
X10410667Y-22419759D01*
X10410861Y-22419953D01*
X10249953Y-22580861D01*
X10119432Y-22767266D01*
X10117111Y-22772244D01*
X10117109Y-22772247D01*
X10038819Y-22940139D01*
X10023261Y-22973504D01*
X10021839Y-22978812D01*
X10021838Y-22978814D01*
X9965789Y-23187993D01*
X9964365Y-23193308D01*
X9944532Y-23420000D01*
X9964365Y-23646692D01*
X9965789Y-23652005D01*
X9965789Y-23652007D01*
X10016866Y-23842628D01*
X10023261Y-23866496D01*
X10025583Y-23871476D01*
X10025584Y-23871478D01*
X10106122Y-24044190D01*
X10119432Y-24072734D01*
X10249953Y-24259139D01*
X10410861Y-24420047D01*
X10597266Y-24550568D01*
X10602244Y-24552889D01*
X10602247Y-24552891D01*
X10790999Y-24640908D01*
X10803504Y-24646739D01*
X10808812Y-24648161D01*
X10808814Y-24648162D01*
X11017993Y-24704211D01*
X11017995Y-24704211D01*
X11023308Y-24705635D01*
X11250000Y-24725468D01*
X11476692Y-24705635D01*
X11482005Y-24704211D01*
X11482007Y-24704211D01*
X11691186Y-24648162D01*
X11691188Y-24648161D01*
X11696496Y-24646739D01*
X11709001Y-24640908D01*
X11897753Y-24552891D01*
X11897756Y-24552889D01*
X11902734Y-24550568D01*
X12089139Y-24420047D01*
X12250047Y-24259139D01*
X12380568Y-24072734D01*
X12393879Y-24044190D01*
X12436837Y-23952066D01*
X12483755Y-23898781D01*
X12552032Y-23879320D01*
X12619992Y-23899862D01*
X12665227Y-23952067D01*
X12697521Y-24021323D01*
X12702998Y-24030811D01*
X12817925Y-24194942D01*
X12824981Y-24203350D01*
X12966650Y-24345019D01*
X12975058Y-24352075D01*
X13139189Y-24467002D01*
X13148677Y-24472479D01*
X13330273Y-24557158D01*
X13340577Y-24560908D01*
X13478503Y-24597866D01*
X13492599Y-24597530D01*
X13496000Y-24589588D01*
X13496000Y-23292000D01*
X13516002Y-23223879D01*
X13569658Y-23177386D01*
X13622000Y-23166000D01*
X13878000Y-23166000D01*
X13946121Y-23186002D01*
X13992614Y-23239658D01*
X14004000Y-23292000D01*
X14004000Y-24584439D01*
X14007973Y-24597970D01*
X14016522Y-24599199D01*
X14159423Y-24560908D01*
X14169727Y-24557158D01*
X14351323Y-24472479D01*
X14360811Y-24467002D01*
X14524942Y-24352075D01*
X14533350Y-24345019D01*
X14675019Y-24203350D01*
X14682075Y-24194942D01*
X14797002Y-24030811D01*
X14802479Y-24021323D01*
X14885805Y-23842628D01*
X14932722Y-23789342D01*
X15000999Y-23769881D01*
X15068959Y-23790423D01*
X15114195Y-23842628D01*
X15197521Y-24021323D01*
X15202998Y-24030811D01*
X15317925Y-24194942D01*
X15324981Y-24203350D01*
X15466650Y-24345019D01*
X15475058Y-24352075D01*
X15639189Y-24467002D01*
X15648677Y-24472479D01*
X15830273Y-24557158D01*
X15840577Y-24560908D01*
X15978503Y-24597866D01*
X15992599Y-24597530D01*
X15996000Y-24589588D01*
X15996000Y-23292000D01*
X16016002Y-23223879D01*
X16069658Y-23177386D01*
X16122000Y-23166000D01*
X16378000Y-23166000D01*
X16446121Y-23186002D01*
X16492614Y-23239658D01*
X16504000Y-23292000D01*
X16504000Y-24584439D01*
X16507973Y-24597970D01*
X16516522Y-24599199D01*
X16659423Y-24560908D01*
X16669727Y-24557158D01*
X16851323Y-24472479D01*
X16860811Y-24467002D01*
X17024942Y-24352075D01*
X17033350Y-24345019D01*
X17175019Y-24203350D01*
X17182075Y-24194942D01*
X17297002Y-24030811D01*
X17302479Y-24021323D01*
X17385805Y-23842628D01*
X17432722Y-23789342D01*
X17500999Y-23769881D01*
X17568959Y-23790423D01*
X17614195Y-23842628D01*
X17697521Y-24021323D01*
X17702998Y-24030811D01*
X17817925Y-24194942D01*
X17824981Y-24203350D01*
X17966650Y-24345019D01*
X17975058Y-24352075D01*
X18139189Y-24467002D01*
X18148677Y-24472479D01*
X18330273Y-24557158D01*
X18340577Y-24560908D01*
X18478503Y-24597866D01*
X18492599Y-24597530D01*
X18496000Y-24589588D01*
X18496000Y-24584439D01*
X19004000Y-24584439D01*
X19007973Y-24597970D01*
X19016522Y-24599199D01*
X19159423Y-24560908D01*
X19169727Y-24557158D01*
X19351323Y-24472479D01*
X19360811Y-24467002D01*
X19524942Y-24352075D01*
X19533350Y-24345019D01*
X19675019Y-24203350D01*
X19682075Y-24194942D01*
X19797002Y-24030811D01*
X19802479Y-24021323D01*
X19887158Y-23839727D01*
X19890908Y-23829423D01*
X19927866Y-23691497D01*
X19927530Y-23677401D01*
X19919588Y-23674000D01*
X19022115Y-23674000D01*
X19006876Y-23678475D01*
X19005671Y-23679865D01*
X19004000Y-23687548D01*
X19004000Y-24584439D01*
X18496000Y-24584439D01*
X18496000Y-23292000D01*
X18516002Y-23223879D01*
X18569658Y-23177386D01*
X18622000Y-23166000D01*
X19914439Y-23166000D01*
X19927970Y-23162027D01*
X19929199Y-23153478D01*
X19890908Y-23010577D01*
X19887158Y-23000273D01*
X19802479Y-22818677D01*
X19797002Y-22809189D01*
X19682075Y-22645058D01*
X19675019Y-22636650D01*
X19533350Y-22494981D01*
X19524939Y-22487923D01*
X19519211Y-22483912D01*
X19474883Y-22428455D01*
X19467575Y-22357835D01*
X19499607Y-22294475D01*
X19560808Y-22258491D01*
X19591483Y-22254700D01*
X23021924Y-22254700D01*
X23090045Y-22274702D01*
X23136538Y-22328358D01*
X23146642Y-22398632D01*
X23117148Y-22463212D01*
X23111019Y-22469795D01*
X22999953Y-22580861D01*
X22869432Y-22767266D01*
X22867111Y-22772244D01*
X22867109Y-22772247D01*
X22788819Y-22940139D01*
X22773261Y-22973504D01*
X22771839Y-22978812D01*
X22771838Y-22978814D01*
X22715789Y-23187993D01*
X22714365Y-23193308D01*
X22694532Y-23420000D01*
X22714365Y-23646692D01*
X22715789Y-23652005D01*
X22715789Y-23652007D01*
X22766866Y-23842628D01*
X22773261Y-23866496D01*
X22775583Y-23871476D01*
X22775584Y-23871478D01*
X22856122Y-24044190D01*
X22869432Y-24072734D01*
X22999953Y-24259139D01*
X23160861Y-24420047D01*
X23347266Y-24550568D01*
X23352244Y-24552889D01*
X23352247Y-24552891D01*
X23540999Y-24640908D01*
X23553504Y-24646739D01*
X23558812Y-24648161D01*
X23558814Y-24648162D01*
X23767993Y-24704211D01*
X23767995Y-24704211D01*
X23773308Y-24705635D01*
X24000000Y-24725468D01*
X24226692Y-24705635D01*
X24232005Y-24704211D01*
X24232007Y-24704211D01*
X24441186Y-24648162D01*
X24441188Y-24648161D01*
X24446496Y-24646739D01*
X24459001Y-24640908D01*
X24647753Y-24552891D01*
X24647756Y-24552889D01*
X24652734Y-24550568D01*
X24839139Y-24420047D01*
X25000047Y-24259139D01*
X25130568Y-24072734D01*
X25143879Y-24044190D01*
X25224416Y-23871478D01*
X25224417Y-23871476D01*
X25226739Y-23866496D01*
X25233135Y-23842628D01*
X25284211Y-23652007D01*
X25284211Y-23652005D01*
X25285635Y-23646692D01*
X25305468Y-23420000D01*
X25285635Y-23193308D01*
X25284211Y-23187993D01*
X25228162Y-22978814D01*
X25228161Y-22978812D01*
X25226739Y-22973504D01*
X25211181Y-22940139D01*
X25132891Y-22772247D01*
X25132889Y-22772244D01*
X25130568Y-22767266D01*
X25000047Y-22580861D01*
X24888981Y-22469795D01*
X24854955Y-22407483D01*
X24860020Y-22336668D01*
X24902567Y-22279832D01*
X24969087Y-22255021D01*
X24978076Y-22254700D01*
X27951214Y-22254700D01*
X28019335Y-22274702D01*
X28065828Y-22328358D01*
X28075932Y-22398632D01*
X28046438Y-22463212D01*
X28040309Y-22469795D01*
X27961505Y-22548599D01*
X27958348Y-22553107D01*
X27958346Y-22553110D01*
X27838610Y-22724111D01*
X27825965Y-22742170D01*
X27823642Y-22747152D01*
X27823639Y-22747157D01*
X27728420Y-22951355D01*
X27726097Y-22956337D01*
X27724675Y-22961645D01*
X27724674Y-22961647D01*
X27683291Y-23116094D01*
X27664937Y-23184592D01*
X27644341Y-23420000D01*
X27664937Y-23655408D01*
X27666361Y-23660722D01*
X27666361Y-23660723D01*
X27724219Y-23876653D01*
X27726097Y-23883663D01*
X27728419Y-23888643D01*
X27728420Y-23888645D01*
X27816364Y-24077239D01*
X27825965Y-24097829D01*
X27961505Y-24291401D01*
X28128599Y-24458495D01*
X28322171Y-24594035D01*
X28327149Y-24596356D01*
X28327152Y-24596358D01*
X28504804Y-24679199D01*
X28536337Y-24693903D01*
X28541645Y-24695325D01*
X28541647Y-24695326D01*
X28759277Y-24753639D01*
X28764592Y-24755063D01*
X28867682Y-24764082D01*
X28938310Y-24770262D01*
X28938317Y-24770262D01*
X28941034Y-24770500D01*
X31546015Y-24770500D01*
X31614136Y-24790502D01*
X31635110Y-24807405D01*
X34199103Y-27371398D01*
X34199105Y-27371401D01*
X34366199Y-27538495D01*
X34370705Y-27541650D01*
X34370715Y-27541658D01*
X34410181Y-27569292D01*
X34418900Y-27575982D01*
X34460027Y-27610491D01*
X34464789Y-27613241D01*
X34464790Y-27613241D01*
X34506520Y-27637334D01*
X34515790Y-27643240D01*
X34555261Y-27670878D01*
X34555269Y-27670882D01*
X34559771Y-27674035D01*
X34593801Y-27689903D01*
X34608418Y-27696719D01*
X34618171Y-27701796D01*
X34659910Y-27725895D01*
X34659915Y-27725897D01*
X34664674Y-27728645D01*
X34669845Y-27730527D01*
X34669847Y-27730528D01*
X34715130Y-27747010D01*
X34725287Y-27751216D01*
X34773937Y-27773903D01*
X34779243Y-27775325D01*
X34779252Y-27775328D01*
X34825803Y-27787802D01*
X34836282Y-27791106D01*
X34881556Y-27807583D01*
X34886730Y-27809466D01*
X34939611Y-27818791D01*
X34950331Y-27821167D01*
X35002192Y-27835063D01*
X35007660Y-27835541D01*
X35007675Y-27835544D01*
X35055670Y-27839743D01*
X35066568Y-27841177D01*
X35084594Y-27844355D01*
X35119447Y-27850501D01*
X35355753Y-27850501D01*
X35355757Y-27850500D01*
X39934779Y-27850500D01*
X39982995Y-27860090D01*
X40043238Y-27885044D01*
X40051426Y-27886122D01*
X40156545Y-27899961D01*
X40160639Y-27900500D01*
X40207520Y-27900500D01*
X40275641Y-27920502D01*
X40296615Y-27937405D01*
X40987188Y-28627978D01*
X41001132Y-28635592D01*
X41002965Y-28635461D01*
X41009580Y-28631210D01*
X41703386Y-27937404D01*
X41765698Y-27903378D01*
X41792481Y-27900499D01*
X41839360Y-27900499D01*
X41843444Y-27899961D01*
X41843450Y-27899961D01*
X41948575Y-27886122D01*
X41948577Y-27886122D01*
X41956762Y-27885044D01*
X42017005Y-27860090D01*
X42065221Y-27850500D01*
X44538153Y-27850500D01*
X44543573Y-27849544D01*
X44543577Y-27849544D01*
X44591036Y-27841176D01*
X44601931Y-27839742D01*
X44602088Y-27839728D01*
X44655408Y-27835063D01*
X44707264Y-27821168D01*
X44717988Y-27818790D01*
X44732873Y-27816166D01*
X44765452Y-27810422D01*
X44765458Y-27810420D01*
X44770871Y-27809466D01*
X44776039Y-27807585D01*
X44776043Y-27807584D01*
X44821326Y-27791103D01*
X44831807Y-27787799D01*
X44878345Y-27775329D01*
X44878356Y-27775325D01*
X44883663Y-27773903D01*
X44892855Y-27769617D01*
X44926671Y-27753848D01*
X44932324Y-27751212D01*
X44942477Y-27747007D01*
X44943063Y-27746794D01*
X44992926Y-27728645D01*
X45030238Y-27707103D01*
X45039423Y-27701800D01*
X45049172Y-27696725D01*
X45092837Y-27676364D01*
X45092848Y-27676358D01*
X45097829Y-27674035D01*
X45110890Y-27664890D01*
X45141806Y-27643242D01*
X45151077Y-27637336D01*
X45176623Y-27622587D01*
X45197574Y-27610491D01*
X45201787Y-27606956D01*
X45201791Y-27606953D01*
X45238706Y-27575977D01*
X45247420Y-27569290D01*
X45291401Y-27538495D01*
X45458495Y-27371401D01*
X45458497Y-27371398D01*
X48371398Y-24458497D01*
X48371401Y-24458495D01*
X48538495Y-24291401D01*
X48541653Y-24286891D01*
X48541658Y-24286885D01*
X48569292Y-24247419D01*
X48575983Y-24238698D01*
X48576771Y-24237759D01*
X48610491Y-24197573D01*
X48637334Y-24151080D01*
X48643240Y-24141810D01*
X48670878Y-24102339D01*
X48670882Y-24102331D01*
X48674035Y-24097829D01*
X48696721Y-24049178D01*
X48701796Y-24039429D01*
X48721381Y-24005508D01*
X48772764Y-23956516D01*
X48842478Y-23943081D01*
X48908389Y-23969469D01*
X48944693Y-24015259D01*
X48947520Y-24021321D01*
X48952998Y-24030811D01*
X49067925Y-24194942D01*
X49074981Y-24203350D01*
X49216650Y-24345019D01*
X49225058Y-24352075D01*
X49389189Y-24467002D01*
X49398677Y-24472479D01*
X49580273Y-24557158D01*
X49590577Y-24560908D01*
X49728503Y-24597866D01*
X49742599Y-24597530D01*
X49746000Y-24589588D01*
X49746000Y-23292000D01*
X49766002Y-23223879D01*
X49819658Y-23177386D01*
X49872000Y-23166000D01*
X50128000Y-23166000D01*
X50196121Y-23186002D01*
X50242614Y-23239658D01*
X50254000Y-23292000D01*
X50254000Y-24584439D01*
X50257973Y-24597970D01*
X50266522Y-24599199D01*
X50409423Y-24560908D01*
X50419727Y-24557158D01*
X50601323Y-24472479D01*
X50610811Y-24467002D01*
X50774942Y-24352075D01*
X50783350Y-24345019D01*
X50925019Y-24203350D01*
X50932075Y-24194942D01*
X51047002Y-24030811D01*
X51052479Y-24021323D01*
X51119939Y-23876653D01*
X51166856Y-23823367D01*
X51235133Y-23803906D01*
X51303093Y-23824448D01*
X51349159Y-23878470D01*
X51355841Y-23897292D01*
X51359092Y-23909424D01*
X51362841Y-23919723D01*
X51447521Y-24101323D01*
X51452998Y-24110811D01*
X51567925Y-24274942D01*
X51574981Y-24283350D01*
X51716650Y-24425019D01*
X51725058Y-24432075D01*
X51889189Y-24547002D01*
X51898677Y-24552479D01*
X52080273Y-24637158D01*
X52090577Y-24640908D01*
X52228503Y-24677866D01*
X52242599Y-24677530D01*
X52246000Y-24669588D01*
X52246000Y-23372000D01*
X52266002Y-23303879D01*
X52319658Y-23257386D01*
X52372000Y-23246000D01*
X52628000Y-23246000D01*
X52696121Y-23266002D01*
X52742614Y-23319658D01*
X52754000Y-23372000D01*
X52754000Y-24664439D01*
X52757973Y-24677970D01*
X52766522Y-24679199D01*
X52909423Y-24640908D01*
X52919727Y-24637158D01*
X53101323Y-24552479D01*
X53110811Y-24547002D01*
X53274942Y-24432075D01*
X53283350Y-24425019D01*
X53425019Y-24283350D01*
X53432075Y-24274942D01*
X53547002Y-24110811D01*
X53552479Y-24101323D01*
X53635805Y-23922628D01*
X53682722Y-23869342D01*
X53750999Y-23849881D01*
X53818959Y-23870423D01*
X53864195Y-23922628D01*
X53947521Y-24101323D01*
X53952998Y-24110811D01*
X54067925Y-24274942D01*
X54074981Y-24283350D01*
X54216650Y-24425019D01*
X54225058Y-24432075D01*
X54389189Y-24547002D01*
X54398677Y-24552479D01*
X54580273Y-24637158D01*
X54590577Y-24640908D01*
X54728503Y-24677866D01*
X54742599Y-24677530D01*
X54746000Y-24669588D01*
X54746000Y-24664439D01*
X55254000Y-24664439D01*
X55257973Y-24677970D01*
X55266522Y-24679199D01*
X55409423Y-24640908D01*
X55419727Y-24637158D01*
X55601323Y-24552479D01*
X55610811Y-24547002D01*
X55774942Y-24432075D01*
X55783350Y-24425019D01*
X55925019Y-24283350D01*
X55932075Y-24274942D01*
X56047002Y-24110811D01*
X56052479Y-24101323D01*
X56137158Y-23919727D01*
X56140908Y-23909423D01*
X56177866Y-23771497D01*
X56177530Y-23757401D01*
X56169588Y-23754000D01*
X55272115Y-23754000D01*
X55256876Y-23758475D01*
X55255671Y-23759865D01*
X55254000Y-23767548D01*
X55254000Y-24664439D01*
X54746000Y-24664439D01*
X54746000Y-23372000D01*
X54766002Y-23303879D01*
X54819658Y-23257386D01*
X54872000Y-23246000D01*
X56164439Y-23246000D01*
X56177970Y-23242027D01*
X56179199Y-23233478D01*
X56140908Y-23090577D01*
X56137158Y-23080273D01*
X56052479Y-22898677D01*
X56047002Y-22889189D01*
X55932075Y-22725058D01*
X55925019Y-22716650D01*
X55881364Y-22672995D01*
X55847338Y-22610683D01*
X55852403Y-22539868D01*
X55894950Y-22483032D01*
X55961470Y-22458221D01*
X55970459Y-22457900D01*
X58773500Y-22457900D01*
X58841621Y-22477902D01*
X58888114Y-22531558D01*
X58899500Y-22583900D01*
X58899500Y-23728966D01*
X58899738Y-23731683D01*
X58899738Y-23731690D01*
X58903080Y-23769881D01*
X58914937Y-23905408D01*
X58916361Y-23910722D01*
X58916361Y-23910723D01*
X58972065Y-24118614D01*
X58976097Y-24133663D01*
X58978419Y-24138643D01*
X58978420Y-24138645D01*
X59045898Y-24283350D01*
X59075965Y-24347829D01*
X59211505Y-24541401D01*
X59378599Y-24708495D01*
X59383107Y-24711652D01*
X59383110Y-24711654D01*
X59495717Y-24790502D01*
X59572170Y-24844035D01*
X59577152Y-24846358D01*
X59577157Y-24846361D01*
X59781355Y-24941580D01*
X59786337Y-24943903D01*
X59791645Y-24945325D01*
X59791647Y-24945326D01*
X60009277Y-25003639D01*
X60014592Y-25005063D01*
X60250000Y-25025659D01*
X60485408Y-25005063D01*
X60490723Y-25003639D01*
X60708353Y-24945326D01*
X60708355Y-24945325D01*
X60713663Y-24943903D01*
X60806685Y-24900526D01*
X60922848Y-24846358D01*
X60922851Y-24846356D01*
X60927829Y-24844035D01*
X61121401Y-24708495D01*
X61288495Y-24541401D01*
X61424035Y-24347829D01*
X61454103Y-24283350D01*
X61521580Y-24138645D01*
X61521581Y-24138643D01*
X61523903Y-24133663D01*
X61527936Y-24118614D01*
X61583639Y-23910723D01*
X61583639Y-23910722D01*
X61585063Y-23905408D01*
X61596920Y-23769881D01*
X61600262Y-23731690D01*
X61600262Y-23731683D01*
X61600500Y-23728966D01*
X61600500Y-22583900D01*
X61620502Y-22515779D01*
X61674158Y-22469286D01*
X61726500Y-22457900D01*
X62075815Y-22457900D01*
X62143936Y-22477902D01*
X62164910Y-22494805D01*
X64336748Y-24666643D01*
X64338853Y-24668409D01*
X64338857Y-24668413D01*
X64366467Y-24691580D01*
X64472427Y-24780491D01*
X64677074Y-24898645D01*
X64682237Y-24900524D01*
X64682241Y-24900526D01*
X64805330Y-24945326D01*
X64899130Y-24979466D01*
X64904547Y-24980421D01*
X64904550Y-24980422D01*
X64989702Y-24995437D01*
X65131847Y-25020501D01*
X65368154Y-25020501D01*
X65600870Y-24979467D01*
X65694672Y-24945326D01*
X65817758Y-24900526D01*
X65822926Y-24898645D01*
X66010235Y-24790502D01*
X66022811Y-24783241D01*
X66022812Y-24783241D01*
X66027574Y-24780491D01*
X66208596Y-24628596D01*
X66360491Y-24447574D01*
X66478645Y-24242926D01*
X66493050Y-24203350D01*
X66557582Y-24026047D01*
X66559466Y-24020871D01*
X66600501Y-23788154D01*
X66600501Y-23551847D01*
X66559466Y-23319130D01*
X66512493Y-23190072D01*
X66480526Y-23102241D01*
X66480524Y-23102237D01*
X66478645Y-23097074D01*
X66367821Y-22905123D01*
X66363241Y-22897190D01*
X66360491Y-22892427D01*
X66283705Y-22800917D01*
X66248413Y-22758857D01*
X66248409Y-22758853D01*
X66246643Y-22756748D01*
X64097405Y-20607510D01*
X64063379Y-20545198D01*
X64060500Y-20518415D01*
X64060500Y-19790537D01*
X64080502Y-19722416D01*
X64134158Y-19675923D01*
X64204432Y-19665819D01*
X64268331Y-19694726D01*
X64357117Y-19770557D01*
X64365101Y-19776357D01*
X64559042Y-19895205D01*
X64567837Y-19899687D01*
X64777988Y-19986734D01*
X64787373Y-19989783D01*
X65008554Y-20042885D01*
X65018301Y-20044428D01*
X65245070Y-20062275D01*
X65254930Y-20062275D01*
X65481699Y-20044428D01*
X65491446Y-20042885D01*
X65712627Y-19989783D01*
X65722012Y-19986734D01*
X65932163Y-19899687D01*
X65940958Y-19895205D01*
X66108445Y-19792568D01*
X66117907Y-19782110D01*
X66114124Y-19773334D01*
X64979885Y-18639095D01*
X64945859Y-18576783D01*
X64947694Y-18551132D01*
X65614408Y-18551132D01*
X65614539Y-18552965D01*
X65618790Y-18559580D01*
X66470290Y-19411080D01*
X66482670Y-19417840D01*
X66490320Y-19412113D01*
X66595205Y-19240958D01*
X66599687Y-19232163D01*
X66686734Y-19022012D01*
X66689783Y-19012627D01*
X66742885Y-18791446D01*
X66744428Y-18781699D01*
X66762275Y-18554930D01*
X66762275Y-18545070D01*
X66744428Y-18318301D01*
X66742885Y-18308554D01*
X66689783Y-18087373D01*
X66686734Y-18077988D01*
X66599687Y-17867837D01*
X66595205Y-17859042D01*
X66492568Y-17691555D01*
X66482110Y-17682093D01*
X66473334Y-17685876D01*
X65622022Y-18537188D01*
X65614408Y-18551132D01*
X64947694Y-18551132D01*
X64950924Y-18505968D01*
X64979885Y-18460905D01*
X66111080Y-17329710D01*
X66117840Y-17317330D01*
X66112113Y-17309680D01*
X65940958Y-17204795D01*
X65932163Y-17200313D01*
X65722012Y-17113266D01*
X65712627Y-17110217D01*
X65491446Y-17057115D01*
X65481699Y-17055572D01*
X65254930Y-17037725D01*
X65245070Y-17037725D01*
X65018301Y-17055572D01*
X65008554Y-17057115D01*
X64787373Y-17110217D01*
X64777988Y-17113266D01*
X64567837Y-17200313D01*
X64559042Y-17204795D01*
X64365101Y-17323643D01*
X64357117Y-17329443D01*
X64268331Y-17405274D01*
X64203541Y-17434305D01*
X64133341Y-17423700D01*
X64080019Y-17376826D01*
X64060500Y-17309463D01*
X64060500Y-15591846D01*
X64054317Y-15556780D01*
X64051176Y-15538965D01*
X64049742Y-15528069D01*
X64045543Y-15480077D01*
X64045543Y-15480076D01*
X64045063Y-15474592D01*
X64042472Y-15464922D01*
X64031165Y-15422723D01*
X64028786Y-15411992D01*
X64025693Y-15394452D01*
X64019465Y-15359129D01*
X64005164Y-15319835D01*
X64001106Y-15308687D01*
X63997800Y-15298202D01*
X63989602Y-15267604D01*
X63983903Y-15246337D01*
X63961212Y-15197677D01*
X63959966Y-15194669D01*
X65342001Y-15194669D01*
X65342371Y-15201490D01*
X65347895Y-15252352D01*
X65351521Y-15267604D01*
X65396676Y-15388054D01*
X65405214Y-15403649D01*
X65481715Y-15505724D01*
X65494276Y-15518285D01*
X65596351Y-15594786D01*
X65611946Y-15603324D01*
X65732394Y-15648478D01*
X65747649Y-15652105D01*
X65798514Y-15657631D01*
X65805328Y-15658000D01*
X66227885Y-15658000D01*
X66243124Y-15653525D01*
X66244329Y-15652135D01*
X66246000Y-15644452D01*
X66246000Y-15639884D01*
X66754000Y-15639884D01*
X66758475Y-15655123D01*
X66759865Y-15656328D01*
X66767548Y-15657999D01*
X67194669Y-15657999D01*
X67201490Y-15657629D01*
X67252352Y-15652105D01*
X67267604Y-15648479D01*
X67388054Y-15603324D01*
X67403649Y-15594786D01*
X67505724Y-15518285D01*
X67518285Y-15505724D01*
X67594786Y-15403649D01*
X67603324Y-15388054D01*
X67648478Y-15267606D01*
X67652105Y-15252351D01*
X67657631Y-15201486D01*
X67658000Y-15194672D01*
X67658000Y-14772115D01*
X67653525Y-14756876D01*
X67652135Y-14755671D01*
X67644452Y-14754000D01*
X66772115Y-14754000D01*
X66756876Y-14758475D01*
X66755671Y-14759865D01*
X66754000Y-14767548D01*
X66754000Y-15639884D01*
X66246000Y-15639884D01*
X66246000Y-14772115D01*
X66241525Y-14756876D01*
X66240135Y-14755671D01*
X66232452Y-14754000D01*
X65360116Y-14754000D01*
X65344877Y-14758475D01*
X65343672Y-14759865D01*
X65342001Y-14767548D01*
X65342001Y-15194669D01*
X63959966Y-15194669D01*
X63957006Y-15187524D01*
X63942757Y-15148374D01*
X63938644Y-15137074D01*
X63935896Y-15132315D01*
X63935894Y-15132310D01*
X63911802Y-15090581D01*
X63906727Y-15080832D01*
X63886363Y-15037161D01*
X63886357Y-15037151D01*
X63884035Y-15032171D01*
X63880881Y-15027666D01*
X63880876Y-15027658D01*
X63853239Y-14988188D01*
X63847333Y-14978918D01*
X63823242Y-14937192D01*
X63823240Y-14937189D01*
X63820490Y-14932426D01*
X63816956Y-14928215D01*
X63816951Y-14928207D01*
X63785982Y-14891299D01*
X63779291Y-14882580D01*
X63751654Y-14843110D01*
X63751652Y-14843108D01*
X63748495Y-14838599D01*
X63581401Y-14671505D01*
X63137781Y-14227885D01*
X65342000Y-14227885D01*
X65346475Y-14243124D01*
X65347865Y-14244329D01*
X65355548Y-14246000D01*
X66227885Y-14246000D01*
X66243124Y-14241525D01*
X66244329Y-14240135D01*
X66246000Y-14232452D01*
X66246000Y-14227885D01*
X66754000Y-14227885D01*
X66758475Y-14243124D01*
X66759865Y-14244329D01*
X66767548Y-14246000D01*
X67639884Y-14246000D01*
X67655123Y-14241525D01*
X67656328Y-14240135D01*
X67657999Y-14232452D01*
X67657999Y-13805331D01*
X67657629Y-13798510D01*
X67652105Y-13747648D01*
X67648479Y-13732396D01*
X67603324Y-13611946D01*
X67594786Y-13596351D01*
X67518285Y-13494276D01*
X67505724Y-13481715D01*
X67403649Y-13405214D01*
X67388054Y-13396676D01*
X67267606Y-13351522D01*
X67252351Y-13347895D01*
X67201486Y-13342369D01*
X67194672Y-13342000D01*
X66772115Y-13342000D01*
X66756876Y-13346475D01*
X66755671Y-13347865D01*
X66754000Y-13355548D01*
X66754000Y-14227885D01*
X66246000Y-14227885D01*
X66246000Y-13360116D01*
X66241525Y-13344877D01*
X66240135Y-13343672D01*
X66232452Y-13342001D01*
X65805331Y-13342001D01*
X65798510Y-13342371D01*
X65747648Y-13347895D01*
X65732396Y-13351521D01*
X65611946Y-13396676D01*
X65596351Y-13405214D01*
X65494276Y-13481715D01*
X65481715Y-13494276D01*
X65405214Y-13596351D01*
X65396676Y-13611946D01*
X65351522Y-13732394D01*
X65347895Y-13747649D01*
X65342369Y-13798514D01*
X65342000Y-13805328D01*
X65342000Y-14227885D01*
X63137781Y-14227885D01*
X62413252Y-13503357D01*
X62313323Y-13419506D01*
X62281792Y-13393048D01*
X62281790Y-13393046D01*
X62277574Y-13389509D01*
X62072926Y-13271355D01*
X62067763Y-13269476D01*
X62067759Y-13269474D01*
X61856045Y-13192417D01*
X61856043Y-13192417D01*
X61850871Y-13190534D01*
X61845457Y-13189579D01*
X61845452Y-13189578D01*
X61650559Y-13155214D01*
X61618153Y-13149500D01*
X61381847Y-13149500D01*
X61244454Y-13173726D01*
X61154550Y-13189578D01*
X61154547Y-13189579D01*
X61149130Y-13190534D01*
X61017013Y-13238620D01*
X60946161Y-13243122D01*
X60884121Y-13208603D01*
X60850592Y-13146023D01*
X60847926Y-13119073D01*
X60847980Y-13113122D01*
X60865965Y-11134719D01*
X60867060Y-11119255D01*
X60870942Y-11090088D01*
X60867235Y-11026178D01*
X60867029Y-11017745D01*
X60867104Y-11009536D01*
X60867104Y-11009532D01*
X60867131Y-11006538D01*
X60864116Y-10971580D01*
X60863864Y-10968090D01*
X60859127Y-10886426D01*
X60858780Y-10880444D01*
X60857308Y-10874634D01*
X60856723Y-10870844D01*
X60854824Y-10859589D01*
X60854132Y-10855809D01*
X60853616Y-10849831D01*
X60841641Y-10807591D01*
X60829675Y-10765384D01*
X60828758Y-10761969D01*
X60808670Y-10682700D01*
X60808669Y-10682699D01*
X60807196Y-10676884D01*
X60804648Y-10671449D01*
X60803349Y-10667816D01*
X60799350Y-10657105D01*
X60797973Y-10653569D01*
X60796337Y-10647799D01*
X60793639Y-10642441D01*
X60756858Y-10569402D01*
X60755311Y-10566221D01*
X60751717Y-10558555D01*
X60718050Y-10486750D01*
X60714527Y-10481905D01*
X60712618Y-10478672D01*
X60706595Y-10468794D01*
X60704581Y-10465594D01*
X60701886Y-10460243D01*
X60648299Y-10390732D01*
X60646197Y-10387924D01*
X60597227Y-10320573D01*
X60594558Y-10316902D01*
X60590699Y-10312944D01*
X60589575Y-10311899D01*
X60588475Y-10310824D01*
X60588567Y-10310730D01*
X60581506Y-10302985D01*
X60581428Y-10303058D01*
X60577334Y-10298680D01*
X60573673Y-10293931D01*
X60506465Y-10234530D01*
X60504089Y-10232376D01*
X60133753Y-9887878D01*
X59430321Y-9233523D01*
X59429200Y-9232465D01*
X59359169Y-9165425D01*
X59312610Y-9135363D01*
X59304290Y-9129501D01*
X59260319Y-9095785D01*
X59254955Y-9093101D01*
X59254950Y-9093098D01*
X59226495Y-9078861D01*
X59214528Y-9072031D01*
X59187795Y-9054770D01*
X59187796Y-9054770D01*
X59182754Y-9051515D01*
X59131362Y-9030803D01*
X59122082Y-9026620D01*
X59077888Y-9004509D01*
X59077885Y-9004508D01*
X59072519Y-9001823D01*
X59036103Y-8991601D01*
X59023062Y-8987157D01*
X58987981Y-8973019D01*
X58933581Y-8962395D01*
X58923681Y-8960043D01*
X58876115Y-8946691D01*
X58876116Y-8946691D01*
X58870337Y-8945069D01*
X58864360Y-8944569D01*
X58864359Y-8944569D01*
X58840679Y-8942589D01*
X58832652Y-8941918D01*
X58819002Y-8940020D01*
X58816719Y-8939574D01*
X58810905Y-8938439D01*
X58786324Y-8933638D01*
X58786321Y-8933638D01*
X58781878Y-8932770D01*
X58776357Y-8932500D01*
X58725290Y-8932500D01*
X58714790Y-8932062D01*
X58667042Y-8928069D01*
X58667040Y-8928069D01*
X58661072Y-8927570D01*
X58625845Y-8931347D01*
X58621788Y-8931782D01*
X58608355Y-8932500D01*
X53118424Y-8932500D01*
X53101416Y-8931347D01*
X53079718Y-8928391D01*
X53008313Y-8932311D01*
X53001406Y-8932500D01*
X52982731Y-8932500D01*
X52979760Y-8932783D01*
X52979748Y-8932784D01*
X52955254Y-8935121D01*
X52950197Y-8935501D01*
X52938719Y-8936131D01*
X52870038Y-8939902D01*
X52857560Y-8943023D01*
X52838960Y-8946217D01*
X52832124Y-8946869D01*
X52832120Y-8946870D01*
X52826154Y-8947439D01*
X52783191Y-8960043D01*
X52749100Y-8970044D01*
X52744202Y-8971374D01*
X52666318Y-8990853D01*
X52660880Y-8993382D01*
X52654650Y-8996279D01*
X52636994Y-9002931D01*
X52630407Y-9004864D01*
X52630405Y-9004865D01*
X52624651Y-9006553D01*
X52553261Y-9043321D01*
X52548732Y-9045539D01*
X52528885Y-9054770D01*
X52475908Y-9079409D01*
X52471049Y-9082919D01*
X52471040Y-9082924D01*
X52465479Y-9086941D01*
X52449399Y-9096813D01*
X52443297Y-9099956D01*
X52443292Y-9099959D01*
X52437961Y-9102705D01*
X52433243Y-9106411D01*
X52374814Y-9152308D01*
X52370771Y-9155354D01*
X52305678Y-9202373D01*
X52301708Y-9206219D01*
X52300678Y-9207320D01*
X52300643Y-9207355D01*
X52295861Y-9212464D01*
X52281709Y-9225442D01*
X52277540Y-9228717D01*
X52272821Y-9232424D01*
X52268890Y-9236954D01*
X52268889Y-9236955D01*
X52218995Y-9294452D01*
X52215819Y-9297976D01*
X51121796Y-10466753D01*
X51120825Y-10467778D01*
X51056574Y-10534895D01*
X51056565Y-10534906D01*
X51052425Y-10539231D01*
X51049173Y-10544268D01*
X51049171Y-10544270D01*
X51023399Y-10584184D01*
X51017300Y-10592813D01*
X50984610Y-10635173D01*
X50966715Y-10670664D01*
X50960076Y-10682254D01*
X50938515Y-10715646D01*
X50936273Y-10721209D01*
X50936270Y-10721215D01*
X50918514Y-10765276D01*
X50914153Y-10774909D01*
X50908431Y-10786258D01*
X50890065Y-10822681D01*
X50888427Y-10828448D01*
X50879207Y-10860905D01*
X50874868Y-10873574D01*
X50869689Y-10886426D01*
X50860019Y-10910419D01*
X50858871Y-10916300D01*
X50849765Y-10962928D01*
X50847306Y-10973208D01*
X50834655Y-11017745D01*
X50832683Y-11024686D01*
X50832165Y-11030659D01*
X50829249Y-11064272D01*
X50827384Y-11077531D01*
X50824932Y-11090088D01*
X50819770Y-11116522D01*
X50819500Y-11122043D01*
X50819500Y-11171201D01*
X50819029Y-11182089D01*
X50814535Y-11233896D01*
X50815155Y-11239853D01*
X50815155Y-11239856D01*
X50818823Y-11275094D01*
X50819500Y-11288138D01*
X50819500Y-11343498D01*
X50799498Y-11411619D01*
X50745842Y-11458112D01*
X50675568Y-11468216D01*
X50645287Y-11459909D01*
X50536762Y-11414956D01*
X50511415Y-11411619D01*
X50423448Y-11400038D01*
X50423447Y-11400038D01*
X50419361Y-11399500D01*
X49380127Y-11399500D01*
X48340640Y-11399501D01*
X48336556Y-11400039D01*
X48336550Y-11400039D01*
X48231425Y-11413878D01*
X48231423Y-11413878D01*
X48223238Y-11414956D01*
X48077159Y-11475464D01*
X48070608Y-11480491D01*
X47971018Y-11556909D01*
X47951718Y-11571718D01*
X47855464Y-11697159D01*
X47794956Y-11843238D01*
X47779500Y-11960639D01*
X47779501Y-14039360D01*
X47780039Y-14043444D01*
X47780039Y-14043450D01*
X47792544Y-14138442D01*
X47794956Y-14156762D01*
X47855464Y-14302841D01*
X47951718Y-14428282D01*
X48077159Y-14524536D01*
X48223238Y-14585044D01*
X48231426Y-14586122D01*
X48336545Y-14599961D01*
X48340639Y-14600500D01*
X49379873Y-14600500D01*
X50419360Y-14600499D01*
X50423444Y-14599961D01*
X50423450Y-14599961D01*
X50528575Y-14586122D01*
X50528577Y-14586122D01*
X50536762Y-14585044D01*
X50682841Y-14524536D01*
X50808282Y-14428282D01*
X50860527Y-14360195D01*
X50917865Y-14318328D01*
X50988736Y-14314106D01*
X51026325Y-14329467D01*
X51186911Y-14427875D01*
X51186921Y-14427880D01*
X51191141Y-14430466D01*
X51195711Y-14432359D01*
X51195715Y-14432361D01*
X51419316Y-14524979D01*
X51423889Y-14526873D01*
X51508289Y-14547135D01*
X51664039Y-14584528D01*
X51664045Y-14584529D01*
X51668852Y-14585683D01*
X51920000Y-14605449D01*
X52171148Y-14585683D01*
X52175955Y-14584529D01*
X52175961Y-14584528D01*
X52331711Y-14547135D01*
X52416111Y-14526873D01*
X52420684Y-14524979D01*
X52644285Y-14432361D01*
X52644289Y-14432359D01*
X52648859Y-14430466D01*
X52863659Y-14298836D01*
X52867419Y-14295624D01*
X52867424Y-14295621D01*
X53051457Y-14138442D01*
X53051462Y-14138437D01*
X53055224Y-14135224D01*
X53094189Y-14089602D01*
X53153640Y-14050793D01*
X53224634Y-14050287D01*
X53285811Y-14089602D01*
X53324776Y-14135224D01*
X53324305Y-14135626D01*
X53356621Y-14194807D01*
X53359500Y-14221590D01*
X53359500Y-15291219D01*
X53358597Y-15301919D01*
X53358908Y-15301942D01*
X53358469Y-15307916D01*
X53357463Y-15313834D01*
X53358645Y-15367995D01*
X53359470Y-15405815D01*
X53359500Y-15408564D01*
X53359500Y-15447269D01*
X53360196Y-15454563D01*
X53360735Y-15463764D01*
X53360914Y-15471995D01*
X53361888Y-15516609D01*
X53362044Y-15523781D01*
X53363305Y-15529640D01*
X53363306Y-15529645D01*
X53369034Y-15556250D01*
X53371286Y-15570801D01*
X53374439Y-15603846D01*
X53376129Y-15609606D01*
X53376129Y-15609607D01*
X53391338Y-15661453D01*
X53393610Y-15670400D01*
X53395061Y-15677137D01*
X53406242Y-15729071D01*
X53418622Y-15758165D01*
X53419242Y-15759623D01*
X53424200Y-15773469D01*
X53433553Y-15805349D01*
X53461042Y-15858722D01*
X53464958Y-15867064D01*
X53481458Y-15905841D01*
X53488462Y-15922302D01*
X53500432Y-15940081D01*
X53507005Y-15949845D01*
X53514501Y-15962519D01*
X53521095Y-15975321D01*
X53529705Y-15992039D01*
X53549487Y-16017223D01*
X53566780Y-16039238D01*
X53572214Y-16046703D01*
X53603203Y-16092733D01*
X53603207Y-16092738D01*
X53605739Y-16096499D01*
X53609452Y-16100594D01*
X53629870Y-16121012D01*
X53639861Y-16132274D01*
X53655718Y-16152462D01*
X53655722Y-16152467D01*
X53659424Y-16157179D01*
X53663954Y-16161110D01*
X53663955Y-16161111D01*
X53706065Y-16197652D01*
X53712581Y-16203723D01*
X53952596Y-16443739D01*
X53986621Y-16506051D01*
X53989500Y-16532834D01*
X53989500Y-17328410D01*
X53969498Y-17396531D01*
X53954835Y-17414726D01*
X53954776Y-17414776D01*
X53951568Y-17418532D01*
X53915811Y-17460398D01*
X53856360Y-17499207D01*
X53785366Y-17499713D01*
X53724189Y-17460398D01*
X53688439Y-17418540D01*
X53688437Y-17418538D01*
X53685224Y-17414776D01*
X53681462Y-17411563D01*
X53681457Y-17411558D01*
X53497424Y-17254379D01*
X53497417Y-17254374D01*
X53493659Y-17251164D01*
X53278859Y-17119534D01*
X53274289Y-17117641D01*
X53274285Y-17117639D01*
X53050684Y-17025021D01*
X53050682Y-17025020D01*
X53046111Y-17023127D01*
X52923788Y-16993760D01*
X52805961Y-16965472D01*
X52805955Y-16965471D01*
X52801148Y-16964317D01*
X52550000Y-16944551D01*
X52298852Y-16964317D01*
X52294045Y-16965471D01*
X52294039Y-16965472D01*
X52176212Y-16993760D01*
X52053889Y-17023127D01*
X52049318Y-17025020D01*
X52049316Y-17025021D01*
X51825715Y-17117639D01*
X51825711Y-17117641D01*
X51821141Y-17119534D01*
X51606341Y-17251164D01*
X51602583Y-17254374D01*
X51602576Y-17254379D01*
X51478257Y-17360558D01*
X51414776Y-17414776D01*
X51411563Y-17418538D01*
X51254379Y-17602576D01*
X51254376Y-17602581D01*
X51251164Y-17606341D01*
X51248580Y-17610558D01*
X51161296Y-17752992D01*
X51142958Y-17776252D01*
X50099095Y-18820115D01*
X50036783Y-18854141D01*
X49965968Y-18849076D01*
X49920905Y-18820115D01*
X48877042Y-17776252D01*
X48858704Y-17752992D01*
X48771420Y-17610558D01*
X48768836Y-17606341D01*
X48765624Y-17602581D01*
X48765621Y-17602576D01*
X48608437Y-17418538D01*
X48605224Y-17414776D01*
X48541743Y-17360558D01*
X48491785Y-17317890D01*
X49142093Y-17317890D01*
X49145876Y-17326666D01*
X49997188Y-18177978D01*
X50011132Y-18185592D01*
X50012965Y-18185461D01*
X50019580Y-18181210D01*
X50871080Y-17329710D01*
X50877840Y-17317330D01*
X50872113Y-17309680D01*
X50700958Y-17204795D01*
X50692163Y-17200313D01*
X50482012Y-17113266D01*
X50472627Y-17110217D01*
X50251446Y-17057115D01*
X50241699Y-17055572D01*
X50014930Y-17037725D01*
X50005070Y-17037725D01*
X49778301Y-17055572D01*
X49768554Y-17057115D01*
X49547373Y-17110217D01*
X49537988Y-17113266D01*
X49327837Y-17200313D01*
X49319042Y-17204795D01*
X49151555Y-17307432D01*
X49142093Y-17317890D01*
X48491785Y-17317890D01*
X48417424Y-17254379D01*
X48417417Y-17254374D01*
X48413659Y-17251164D01*
X48198859Y-17119534D01*
X48194289Y-17117641D01*
X48194285Y-17117639D01*
X47970684Y-17025021D01*
X47970682Y-17025020D01*
X47966111Y-17023127D01*
X47843788Y-16993760D01*
X47725961Y-16965472D01*
X47725955Y-16965471D01*
X47721148Y-16964317D01*
X47470000Y-16944551D01*
X47218852Y-16964317D01*
X47214045Y-16965471D01*
X47214039Y-16965472D01*
X47096212Y-16993760D01*
X46973889Y-17023127D01*
X46969318Y-17025020D01*
X46969316Y-17025021D01*
X46745715Y-17117639D01*
X46745711Y-17117641D01*
X46741141Y-17119534D01*
X46736921Y-17122120D01*
X46640947Y-17180933D01*
X46575112Y-17199500D01*
X45661586Y-17199500D01*
X45593465Y-17179498D01*
X45572491Y-17162595D01*
X44250545Y-15840650D01*
X44243118Y-15832546D01*
X44212126Y-15795611D01*
X44208596Y-15791404D01*
X44088377Y-15690529D01*
X44027574Y-15639509D01*
X43822926Y-15521355D01*
X43817763Y-15519476D01*
X43817759Y-15519474D01*
X43606045Y-15442417D01*
X43606043Y-15442417D01*
X43600871Y-15440534D01*
X43595457Y-15439579D01*
X43595452Y-15439578D01*
X43414255Y-15407629D01*
X43368153Y-15399500D01*
X43131847Y-15399500D01*
X42995202Y-15423594D01*
X42904550Y-15439578D01*
X42904547Y-15439579D01*
X42899130Y-15440534D01*
X42870380Y-15450998D01*
X42682241Y-15519474D01*
X42682237Y-15519476D01*
X42677074Y-15521355D01*
X42472426Y-15639509D01*
X42331017Y-15758165D01*
X42309462Y-15776252D01*
X42291404Y-15791404D01*
X42283431Y-15800906D01*
X42256892Y-15832534D01*
X42249466Y-15840638D01*
X41857613Y-16232492D01*
X41494310Y-16595795D01*
X41431997Y-16629820D01*
X41405214Y-16632700D01*
X38972185Y-16632700D01*
X38904064Y-16612698D01*
X38857571Y-16559042D01*
X38847467Y-16488768D01*
X38876961Y-16424188D01*
X38883090Y-16417605D01*
X41661399Y-13639296D01*
X41661401Y-13639295D01*
X41828495Y-13472201D01*
X41859290Y-13428220D01*
X41865977Y-13419506D01*
X41896953Y-13382591D01*
X41896956Y-13382587D01*
X41900491Y-13378374D01*
X41927336Y-13331877D01*
X41933242Y-13322606D01*
X41960878Y-13283138D01*
X41960879Y-13283136D01*
X41964035Y-13278629D01*
X41966358Y-13273648D01*
X41966364Y-13273637D01*
X41986725Y-13229972D01*
X41991800Y-13220223D01*
X42015895Y-13178489D01*
X42018645Y-13173726D01*
X42037008Y-13123274D01*
X42041213Y-13113122D01*
X42048314Y-13097895D01*
X42051397Y-13091283D01*
X42061580Y-13069445D01*
X42061580Y-13069444D01*
X42063903Y-13064463D01*
X42065325Y-13059156D01*
X42065329Y-13059145D01*
X42077799Y-13012607D01*
X42081103Y-13002126D01*
X42097584Y-12956843D01*
X42097585Y-12956839D01*
X42099466Y-12951671D01*
X42100420Y-12946258D01*
X42100422Y-12946252D01*
X42108496Y-12900456D01*
X42108790Y-12898788D01*
X42111169Y-12888059D01*
X42123637Y-12841530D01*
X42123637Y-12841529D01*
X42125063Y-12836208D01*
X42129742Y-12782731D01*
X42131176Y-12771836D01*
X42139544Y-12724377D01*
X42139544Y-12724373D01*
X42140500Y-12718953D01*
X42140500Y-7141517D01*
X42152415Y-7090522D01*
X42151756Y-7090261D01*
X42153512Y-7085827D01*
X42153544Y-7085688D01*
X42155951Y-7080818D01*
X42197048Y-6945553D01*
X42224435Y-6855413D01*
X42224436Y-6855407D01*
X42225939Y-6850461D01*
X42257364Y-6611766D01*
X42257858Y-6591556D01*
X42259036Y-6543365D01*
X42259036Y-6543360D01*
X42259118Y-6540000D01*
X42239391Y-6300055D01*
X42180739Y-6066554D01*
X42084739Y-5845767D01*
X41986428Y-5693801D01*
X41956775Y-5647965D01*
X41956773Y-5647962D01*
X41953967Y-5643625D01*
X41791936Y-5465555D01*
X41664044Y-5364552D01*
X41607057Y-5319546D01*
X41607054Y-5319544D01*
X41602997Y-5316340D01*
X41601058Y-5315269D01*
X41555941Y-5261570D01*
X41546909Y-5191150D01*
X41577383Y-5127026D01*
X41598170Y-5108402D01*
X41674133Y-5054218D01*
X41682003Y-5047567D01*
X41834445Y-4895656D01*
X41841122Y-4887811D01*
X41966702Y-4713047D01*
X41972013Y-4704208D01*
X42067358Y-4511292D01*
X42071156Y-4501699D01*
X42133716Y-4295791D01*
X42135893Y-4285721D01*
X42137705Y-4271960D01*
X42135493Y-4257778D01*
X42122336Y-4254000D01*
X35582000Y-4254000D01*
X35513879Y-4233998D01*
X35467386Y-4180342D01*
X35456000Y-4128000D01*
X35456000Y-3727885D01*
X35964000Y-3727885D01*
X35968475Y-3743124D01*
X35969865Y-3744329D01*
X35977548Y-3746000D01*
X37977885Y-3746000D01*
X37993124Y-3741525D01*
X37994329Y-3740135D01*
X37996000Y-3732452D01*
X37996000Y-3727885D01*
X38504000Y-3727885D01*
X38508475Y-3743124D01*
X38509865Y-3744329D01*
X38517548Y-3746000D01*
X40517885Y-3746000D01*
X40533124Y-3741525D01*
X40534329Y-3740135D01*
X40536000Y-3732452D01*
X40536000Y-3727885D01*
X41044000Y-3727885D01*
X41048475Y-3743124D01*
X41049865Y-3744329D01*
X41057548Y-3746000D01*
X42122367Y-3746000D01*
X42135898Y-3742027D01*
X42137203Y-3732947D01*
X42094133Y-3561477D01*
X42090813Y-3551726D01*
X42004999Y-3354365D01*
X42000133Y-3345290D01*
X41883239Y-3164601D01*
X41876947Y-3156430D01*
X41732113Y-2997260D01*
X41724580Y-2990234D01*
X41555691Y-2856855D01*
X41547104Y-2851150D01*
X41358711Y-2747151D01*
X41349299Y-2742921D01*
X41146445Y-2671086D01*
X41136474Y-2668452D01*
X41061837Y-2655157D01*
X41048540Y-2656617D01*
X41044000Y-2671174D01*
X41044000Y-3727885D01*
X40536000Y-3727885D01*
X40536000Y-2669343D01*
X40532082Y-2655999D01*
X40517806Y-2654012D01*
X40476161Y-2660385D01*
X40466125Y-2662776D01*
X40261576Y-2729633D01*
X40252079Y-2733625D01*
X40061189Y-2832995D01*
X40052464Y-2838490D01*
X39880373Y-2967700D01*
X39872666Y-2974543D01*
X39723984Y-3130129D01*
X39717498Y-3138139D01*
X39623493Y-3275945D01*
X39568582Y-3320948D01*
X39498057Y-3329119D01*
X39434310Y-3297865D01*
X39413613Y-3273382D01*
X39343236Y-3164596D01*
X39336947Y-3156430D01*
X39192113Y-2997260D01*
X39184580Y-2990234D01*
X39015691Y-2856855D01*
X39007104Y-2851150D01*
X38818711Y-2747151D01*
X38809299Y-2742921D01*
X38606445Y-2671086D01*
X38596474Y-2668452D01*
X38521837Y-2655157D01*
X38508540Y-2656617D01*
X38504000Y-2671174D01*
X38504000Y-3727885D01*
X37996000Y-3727885D01*
X37996000Y-2669343D01*
X37992082Y-2655999D01*
X37977806Y-2654012D01*
X37936161Y-2660385D01*
X37926125Y-2662776D01*
X37721576Y-2729633D01*
X37712079Y-2733625D01*
X37521189Y-2832995D01*
X37512464Y-2838490D01*
X37340373Y-2967700D01*
X37332666Y-2974543D01*
X37183984Y-3130129D01*
X37177498Y-3138139D01*
X37083493Y-3275945D01*
X37028582Y-3320948D01*
X36958057Y-3329119D01*
X36894310Y-3297865D01*
X36873613Y-3273382D01*
X36803236Y-3164596D01*
X36796947Y-3156430D01*
X36652113Y-2997260D01*
X36644580Y-2990234D01*
X36475691Y-2856855D01*
X36467104Y-2851150D01*
X36278711Y-2747151D01*
X36269299Y-2742921D01*
X36066445Y-2671086D01*
X36056474Y-2668452D01*
X35981837Y-2655157D01*
X35968540Y-2656617D01*
X35964000Y-2671174D01*
X35964000Y-3727885D01*
X35456000Y-3727885D01*
X35456000Y-2669343D01*
X35452082Y-2655999D01*
X35437806Y-2654012D01*
X35396161Y-2660385D01*
X35386125Y-2662776D01*
X35181576Y-2729633D01*
X35172079Y-2733625D01*
X34981189Y-2832995D01*
X34972464Y-2838490D01*
X34800373Y-2967700D01*
X34792666Y-2974543D01*
X34643984Y-3130129D01*
X34637502Y-3138134D01*
X34600040Y-3193051D01*
X34545128Y-3238053D01*
X34474604Y-3246224D01*
X34410857Y-3214970D01*
X34390160Y-3190486D01*
X34336775Y-3107965D01*
X34336773Y-3107962D01*
X34333967Y-3103625D01*
X34171936Y-2925555D01*
X34028471Y-2812253D01*
X33987052Y-2779542D01*
X33987048Y-2779540D01*
X33982997Y-2776340D01*
X33772225Y-2659988D01*
X33767356Y-2658264D01*
X33767352Y-2658262D01*
X33550155Y-2581348D01*
X33550151Y-2581347D01*
X33545280Y-2579622D01*
X33540187Y-2578715D01*
X33540184Y-2578714D01*
X33313345Y-2538308D01*
X33313339Y-2538307D01*
X33308256Y-2537402D01*
X33233401Y-2536488D01*
X33072691Y-2534524D01*
X33072689Y-2534524D01*
X33067520Y-2534461D01*
X32829535Y-2570877D01*
X32600694Y-2645674D01*
X32596106Y-2648062D01*
X32596102Y-2648064D01*
X32439410Y-2729633D01*
X32387142Y-2756842D01*
X32383009Y-2759945D01*
X32383006Y-2759947D01*
X32208798Y-2890746D01*
X32194614Y-2901396D01*
X32028281Y-3075454D01*
X32025368Y-3079724D01*
X32025365Y-3079728D01*
X32014703Y-3095358D01*
X32006104Y-3107965D01*
X32005536Y-3108797D01*
X31950625Y-3153801D01*
X31880100Y-3161973D01*
X31816353Y-3130719D01*
X31800322Y-3111756D01*
X31799928Y-3112060D01*
X31796775Y-3107965D01*
X31793967Y-3103625D01*
X31631936Y-2925555D01*
X31488471Y-2812253D01*
X31447052Y-2779542D01*
X31447048Y-2779540D01*
X31442997Y-2776340D01*
X31232225Y-2659988D01*
X31227356Y-2658264D01*
X31227352Y-2658262D01*
X31010155Y-2581348D01*
X31010151Y-2581347D01*
X31005280Y-2579622D01*
X31000187Y-2578715D01*
X31000184Y-2578714D01*
X30773345Y-2538308D01*
X30773339Y-2538307D01*
X30768256Y-2537402D01*
X30693401Y-2536488D01*
X30532691Y-2534524D01*
X30532689Y-2534524D01*
X30527520Y-2534461D01*
X30289535Y-2570877D01*
X30060694Y-2645674D01*
X30056106Y-2648062D01*
X30056102Y-2648064D01*
X29899410Y-2729633D01*
X29847142Y-2756842D01*
X29843009Y-2759945D01*
X29843006Y-2759947D01*
X29668798Y-2890746D01*
X29654614Y-2901396D01*
X29488281Y-3075454D01*
X29485368Y-3079724D01*
X29485365Y-3079728D01*
X29474703Y-3095358D01*
X29466104Y-3107965D01*
X29465536Y-3108797D01*
X29410625Y-3153801D01*
X29340100Y-3161973D01*
X29276353Y-3130719D01*
X29260322Y-3111756D01*
X29259928Y-3112060D01*
X29256775Y-3107965D01*
X29253967Y-3103625D01*
X29091936Y-2925555D01*
X28948471Y-2812253D01*
X28907052Y-2779542D01*
X28907048Y-2779540D01*
X28902997Y-2776340D01*
X28692225Y-2659988D01*
X28687356Y-2658264D01*
X28687352Y-2658262D01*
X28470155Y-2581348D01*
X28470151Y-2581347D01*
X28465280Y-2579622D01*
X28460187Y-2578715D01*
X28460184Y-2578714D01*
X28233345Y-2538308D01*
X28233339Y-2538307D01*
X28228256Y-2537402D01*
X28153401Y-2536488D01*
X27992691Y-2534524D01*
X27992689Y-2534524D01*
X27987520Y-2534461D01*
X27749535Y-2570877D01*
X27520694Y-2645674D01*
X27516106Y-2648062D01*
X27516102Y-2648064D01*
X27359410Y-2729633D01*
X27307142Y-2756842D01*
X27303009Y-2759945D01*
X27303006Y-2759947D01*
X27128798Y-2890746D01*
X27114614Y-2901396D01*
X26948281Y-3075454D01*
X26945373Y-3079717D01*
X26943417Y-3082132D01*
X26885001Y-3122482D01*
X26814044Y-3124844D01*
X26759971Y-3095358D01*
X26722395Y-3060623D01*
X26722389Y-3060618D01*
X26718149Y-3056699D01*
X26531550Y-2938964D01*
X26326621Y-2857206D01*
X26320961Y-2856080D01*
X26320957Y-2856079D01*
X26115891Y-2815289D01*
X26115888Y-2815289D01*
X26110224Y-2814162D01*
X26104449Y-2814086D01*
X26104445Y-2814086D01*
X25993704Y-2812637D01*
X25889606Y-2811274D01*
X25883909Y-2812253D01*
X25883908Y-2812253D01*
X25677854Y-2847659D01*
X25677853Y-2847659D01*
X25672157Y-2848638D01*
X25465157Y-2925004D01*
X25460196Y-2927956D01*
X25460195Y-2927956D01*
X25355516Y-2990234D01*
X25275541Y-3037814D01*
X25109657Y-3183290D01*
X24973063Y-3356560D01*
X24870331Y-3551820D01*
X24804903Y-3762533D01*
X24778970Y-3981640D01*
X24793400Y-4201804D01*
X24794821Y-4207400D01*
X24794822Y-4207405D01*
X24846290Y-4410057D01*
X24847711Y-4415652D01*
X24940083Y-4616021D01*
X25067422Y-4796202D01*
X25225464Y-4950161D01*
X25230260Y-4953366D01*
X25230263Y-4953368D01*
X25371243Y-5047567D01*
X25408917Y-5072740D01*
X25414220Y-5075018D01*
X25414223Y-5075020D01*
X25606329Y-5157555D01*
X25611636Y-5159835D01*
X25804302Y-5203431D01*
X25821308Y-5207279D01*
X25883335Y-5241822D01*
X25916839Y-5304415D01*
X25919500Y-5330172D01*
X25919500Y-7590748D01*
X25918067Y-7609698D01*
X25914852Y-7630832D01*
X25915445Y-7638124D01*
X25915445Y-7638127D01*
X25919085Y-7682877D01*
X25919500Y-7693091D01*
X25919500Y-7701024D01*
X25919925Y-7704668D01*
X25922754Y-7728938D01*
X25923187Y-7733313D01*
X25929039Y-7805261D01*
X25931294Y-7812223D01*
X25932452Y-7818018D01*
X25933809Y-7823760D01*
X25934657Y-7831030D01*
X25959306Y-7898938D01*
X25960723Y-7903066D01*
X25979493Y-7961005D01*
X25982973Y-7971748D01*
X25986768Y-7978002D01*
X25989231Y-7983381D01*
X25991873Y-7988657D01*
X25994369Y-7995533D01*
X26033948Y-8055901D01*
X26036295Y-8059621D01*
X26070848Y-8116563D01*
X26070853Y-8116570D01*
X26073761Y-8121362D01*
X26077473Y-8125564D01*
X26077474Y-8125566D01*
X26081085Y-8129654D01*
X26081060Y-8129676D01*
X26083806Y-8132771D01*
X26086309Y-8135765D01*
X26090323Y-8141887D01*
X26095636Y-8146920D01*
X26145929Y-8194563D01*
X26148372Y-8196941D01*
X26334527Y-8383097D01*
X26346912Y-8397509D01*
X26359581Y-8414724D01*
X26377648Y-8430073D01*
X26399379Y-8448535D01*
X26406895Y-8455465D01*
X26412501Y-8461071D01*
X26415362Y-8463334D01*
X26415367Y-8463339D01*
X26434552Y-8478517D01*
X26437953Y-8481306D01*
X26450454Y-8491926D01*
X26492953Y-8528032D01*
X26499476Y-8531363D01*
X26504414Y-8534656D01*
X26509408Y-8537740D01*
X26515147Y-8542281D01*
X26521774Y-8545378D01*
X26521780Y-8545382D01*
X26580561Y-8572854D01*
X26584502Y-8574780D01*
X26648814Y-8607619D01*
X26655925Y-8609359D01*
X26661467Y-8611420D01*
X26667060Y-8613281D01*
X26673691Y-8616380D01*
X26680853Y-8617870D01*
X26680854Y-8617870D01*
X26702542Y-8622381D01*
X26719893Y-8625990D01*
X26744407Y-8631089D01*
X26748691Y-8632059D01*
X26818804Y-8649215D01*
X26824404Y-8649562D01*
X26824408Y-8649563D01*
X26829846Y-8649900D01*
X26829844Y-8649932D01*
X26833957Y-8650179D01*
X26837864Y-8650528D01*
X26845029Y-8652018D01*
X26921598Y-8649946D01*
X26925006Y-8649900D01*
X31744146Y-8649900D01*
X31763096Y-8651333D01*
X31776996Y-8653448D01*
X31777000Y-8653448D01*
X31784230Y-8654548D01*
X31791522Y-8653955D01*
X31791525Y-8653955D01*
X31836275Y-8650315D01*
X31846489Y-8649900D01*
X31854422Y-8649900D01*
X31863718Y-8648816D01*
X31882336Y-8646646D01*
X31886711Y-8646213D01*
X31916874Y-8643760D01*
X31958659Y-8640361D01*
X31965621Y-8638106D01*
X31971416Y-8636948D01*
X31977158Y-8635591D01*
X31984428Y-8634743D01*
X32052336Y-8610094D01*
X32056464Y-8608677D01*
X32118183Y-8588683D01*
X32118185Y-8588682D01*
X32125146Y-8586427D01*
X32131400Y-8582632D01*
X32136779Y-8580169D01*
X32142055Y-8577527D01*
X32148931Y-8575031D01*
X32209309Y-8535446D01*
X32213019Y-8533105D01*
X32269961Y-8498552D01*
X32269968Y-8498547D01*
X32274760Y-8495639D01*
X32283052Y-8488315D01*
X32283074Y-8488340D01*
X32286169Y-8485594D01*
X32289163Y-8483091D01*
X32295285Y-8479077D01*
X32347983Y-8423448D01*
X32350360Y-8421007D01*
X32762489Y-8008878D01*
X32824801Y-7974852D01*
X32876702Y-7974502D01*
X32996051Y-7998784D01*
X33001227Y-7998974D01*
X33001229Y-7998974D01*
X33231480Y-8007417D01*
X33231484Y-8007417D01*
X33236644Y-8007606D01*
X33241764Y-8006950D01*
X33241766Y-8006950D01*
X33318586Y-7997109D01*
X33475447Y-7977014D01*
X33480396Y-7975529D01*
X33480402Y-7975528D01*
X33614515Y-7935292D01*
X33706047Y-7907831D01*
X33922251Y-7801913D01*
X33926455Y-7798915D01*
X33926459Y-7798912D01*
X34021498Y-7731121D01*
X34118254Y-7662106D01*
X34149638Y-7630832D01*
X34285129Y-7495813D01*
X34288790Y-7492165D01*
X34335742Y-7426824D01*
X34391735Y-7383177D01*
X34462439Y-7376731D01*
X34525403Y-7409533D01*
X34533302Y-7417854D01*
X34597672Y-7492165D01*
X34682112Y-7589645D01*
X34686081Y-7592940D01*
X34686084Y-7592943D01*
X34731722Y-7630832D01*
X34867349Y-7743431D01*
X35075215Y-7864898D01*
X35300129Y-7950785D01*
X35305195Y-7951816D01*
X35305196Y-7951816D01*
X35530972Y-7997751D01*
X35530976Y-7997751D01*
X35536051Y-7998784D01*
X35541227Y-7998974D01*
X35541229Y-7998974D01*
X35771480Y-8007417D01*
X35771484Y-8007417D01*
X35776644Y-8007606D01*
X35781764Y-8006950D01*
X35781766Y-8006950D01*
X35858586Y-7997109D01*
X36015447Y-7977014D01*
X36020396Y-7975529D01*
X36020402Y-7975528D01*
X36154515Y-7935292D01*
X36246047Y-7907831D01*
X36462251Y-7801913D01*
X36466455Y-7798915D01*
X36466459Y-7798912D01*
X36561498Y-7731121D01*
X36658254Y-7662106D01*
X36689638Y-7630832D01*
X36825129Y-7495813D01*
X36828790Y-7492165D01*
X36875742Y-7426824D01*
X36931735Y-7383177D01*
X37002439Y-7376731D01*
X37065403Y-7409533D01*
X37073302Y-7417854D01*
X37137672Y-7492165D01*
X37222112Y-7589645D01*
X37226081Y-7592940D01*
X37226084Y-7592943D01*
X37271722Y-7630832D01*
X37407349Y-7743431D01*
X37615215Y-7864898D01*
X37840129Y-7950785D01*
X37845195Y-7951816D01*
X37845196Y-7951816D01*
X38070972Y-7997751D01*
X38070976Y-7997751D01*
X38076051Y-7998784D01*
X38081227Y-7998974D01*
X38081229Y-7998974D01*
X38311480Y-8007417D01*
X38311484Y-8007417D01*
X38316644Y-8007606D01*
X38321764Y-8006950D01*
X38321766Y-8006950D01*
X38398586Y-7997109D01*
X38555447Y-7977014D01*
X38560396Y-7975529D01*
X38560402Y-7975528D01*
X38781097Y-7909316D01*
X38781096Y-7909316D01*
X38786047Y-7907831D01*
X38795200Y-7903347D01*
X38850628Y-7890500D01*
X39313500Y-7890500D01*
X39381621Y-7910502D01*
X39428114Y-7964158D01*
X39439500Y-8016500D01*
X39439500Y-11989215D01*
X39419498Y-12057336D01*
X39402595Y-12078310D01*
X36378602Y-15102303D01*
X36378599Y-15102305D01*
X36211505Y-15269399D01*
X36182411Y-15310950D01*
X36180714Y-15313374D01*
X36174023Y-15322094D01*
X36143047Y-15359009D01*
X36143044Y-15359013D01*
X36139509Y-15363226D01*
X36127732Y-15383624D01*
X36112664Y-15409723D01*
X36106758Y-15418994D01*
X36081355Y-15455274D01*
X36075965Y-15462971D01*
X36073642Y-15467952D01*
X36073636Y-15467963D01*
X36053275Y-15511628D01*
X36048200Y-15521377D01*
X36041168Y-15533557D01*
X36021355Y-15567874D01*
X36010627Y-15597350D01*
X36002993Y-15618323D01*
X35998787Y-15628478D01*
X35981349Y-15665875D01*
X35976097Y-15677137D01*
X35974675Y-15682444D01*
X35974671Y-15682455D01*
X35962201Y-15728993D01*
X35958897Y-15739474D01*
X35942416Y-15784757D01*
X35940534Y-15789929D01*
X35939580Y-15795342D01*
X35939578Y-15795348D01*
X35931211Y-15842807D01*
X35928832Y-15853536D01*
X35914937Y-15905392D01*
X35911902Y-15940081D01*
X35910258Y-15958869D01*
X35908824Y-15969764D01*
X35901305Y-16012411D01*
X35899500Y-16022647D01*
X35899500Y-16523500D01*
X35879498Y-16591621D01*
X35825842Y-16638114D01*
X35773500Y-16649500D01*
X34383647Y-16649500D01*
X34378227Y-16650456D01*
X34378223Y-16650456D01*
X34330764Y-16658824D01*
X34319869Y-16660258D01*
X34266392Y-16664937D01*
X34214536Y-16678832D01*
X34203812Y-16681210D01*
X34188927Y-16683834D01*
X34156348Y-16689578D01*
X34156342Y-16689580D01*
X34150929Y-16690534D01*
X34145761Y-16692415D01*
X34145757Y-16692416D01*
X34100474Y-16708897D01*
X34089993Y-16712201D01*
X34043455Y-16724671D01*
X34043444Y-16724675D01*
X34038137Y-16726097D01*
X33993375Y-16746970D01*
X33989478Y-16748787D01*
X33979326Y-16752992D01*
X33928874Y-16771355D01*
X33924110Y-16774105D01*
X33924111Y-16774105D01*
X33882377Y-16798200D01*
X33872628Y-16803275D01*
X33828963Y-16823636D01*
X33828952Y-16823642D01*
X33823971Y-16825965D01*
X33819464Y-16829121D01*
X33819462Y-16829122D01*
X33779994Y-16856758D01*
X33770723Y-16862664D01*
X33762106Y-16867639D01*
X33724226Y-16889509D01*
X33720013Y-16893044D01*
X33720009Y-16893047D01*
X33683094Y-16924023D01*
X33674380Y-16930710D01*
X33630399Y-16961505D01*
X33463305Y-17128599D01*
X33463303Y-17128602D01*
X31075110Y-19516795D01*
X31012798Y-19550821D01*
X30986015Y-19553700D01*
X29976680Y-19553700D01*
X29908559Y-19533698D01*
X29887585Y-19516795D01*
X29042812Y-18672022D01*
X29028868Y-18664408D01*
X29027035Y-18664539D01*
X29020420Y-18668790D01*
X28172415Y-19516795D01*
X28110103Y-19550821D01*
X28083320Y-19553700D01*
X27797351Y-19553700D01*
X27729230Y-19533698D01*
X27682737Y-19480042D01*
X27672633Y-19409768D01*
X27701540Y-19345870D01*
X27760000Y-19277422D01*
X27788836Y-19243659D01*
X27878705Y-19097007D01*
X27897042Y-19073748D01*
X28669658Y-18301132D01*
X29394408Y-18301132D01*
X29394539Y-18302965D01*
X29398790Y-18309580D01*
X30250290Y-19161080D01*
X30262670Y-19167840D01*
X30270320Y-19162113D01*
X30375205Y-18990958D01*
X30379687Y-18982163D01*
X30466734Y-18772012D01*
X30469783Y-18762627D01*
X30522885Y-18541446D01*
X30524428Y-18531699D01*
X30542275Y-18304930D01*
X30542275Y-18295070D01*
X30524428Y-18068301D01*
X30522885Y-18058554D01*
X30469783Y-17837373D01*
X30466734Y-17827988D01*
X30379687Y-17617837D01*
X30375205Y-17609042D01*
X30272568Y-17441555D01*
X30262110Y-17432093D01*
X30253334Y-17435876D01*
X29402022Y-18287188D01*
X29394408Y-18301132D01*
X28669658Y-18301132D01*
X29891080Y-17079710D01*
X29897840Y-17067330D01*
X29892113Y-17059680D01*
X29720958Y-16954795D01*
X29712163Y-16950313D01*
X29502012Y-16863266D01*
X29492627Y-16860217D01*
X29271446Y-16807115D01*
X29261699Y-16805572D01*
X29034930Y-16787725D01*
X29025070Y-16787725D01*
X28798301Y-16805572D01*
X28788554Y-16807115D01*
X28567373Y-16860217D01*
X28557988Y-16863266D01*
X28347837Y-16950313D01*
X28339042Y-16954795D01*
X28145101Y-17073643D01*
X28137117Y-17079443D01*
X28048331Y-17155274D01*
X27983541Y-17184305D01*
X27913341Y-17173700D01*
X27860019Y-17126826D01*
X27840500Y-17059463D01*
X27840500Y-15404927D01*
X27860502Y-15336806D01*
X27914158Y-15290313D01*
X27984432Y-15280209D01*
X28042065Y-15304100D01*
X28096356Y-15344789D01*
X28111946Y-15353324D01*
X28232394Y-15398478D01*
X28247649Y-15402105D01*
X28298514Y-15407631D01*
X28305328Y-15408000D01*
X28727885Y-15408000D01*
X28743124Y-15403525D01*
X28744329Y-15402135D01*
X28746000Y-15394452D01*
X28746000Y-15389884D01*
X29254000Y-15389884D01*
X29258475Y-15405123D01*
X29259865Y-15406328D01*
X29267548Y-15407999D01*
X29694669Y-15407999D01*
X29701490Y-15407629D01*
X29752352Y-15402105D01*
X29767604Y-15398479D01*
X29888054Y-15353324D01*
X29903649Y-15344786D01*
X30005724Y-15268285D01*
X30018285Y-15255724D01*
X30094786Y-15153649D01*
X30103324Y-15138054D01*
X30148478Y-15017606D01*
X30152105Y-15002351D01*
X30157631Y-14951486D01*
X30158000Y-14944672D01*
X30158000Y-14522115D01*
X30153525Y-14506876D01*
X30152135Y-14505671D01*
X30144452Y-14504000D01*
X29272115Y-14504000D01*
X29256876Y-14508475D01*
X29255671Y-14509865D01*
X29254000Y-14517548D01*
X29254000Y-15389884D01*
X28746000Y-15389884D01*
X28746000Y-14522115D01*
X28741525Y-14506876D01*
X28740135Y-14505671D01*
X28732452Y-14504000D01*
X27860116Y-14504000D01*
X27844877Y-14508475D01*
X27843672Y-14509865D01*
X27842001Y-14517548D01*
X27842001Y-14560696D01*
X27821999Y-14628817D01*
X27768343Y-14675310D01*
X27698069Y-14685414D01*
X27633489Y-14655920D01*
X27606882Y-14623697D01*
X27603239Y-14617387D01*
X27603238Y-14617385D01*
X27600490Y-14612626D01*
X27596956Y-14608415D01*
X27596951Y-14608407D01*
X27565982Y-14571499D01*
X27559291Y-14562780D01*
X27531654Y-14523310D01*
X27531652Y-14523308D01*
X27528495Y-14518799D01*
X27361401Y-14351705D01*
X26987581Y-13977885D01*
X27842000Y-13977885D01*
X27846475Y-13993124D01*
X27847865Y-13994329D01*
X27855548Y-13996000D01*
X28727885Y-13996000D01*
X28743124Y-13991525D01*
X28744329Y-13990135D01*
X28746000Y-13982452D01*
X28746000Y-13977885D01*
X29254000Y-13977885D01*
X29258475Y-13993124D01*
X29259865Y-13994329D01*
X29267548Y-13996000D01*
X30139884Y-13996000D01*
X30155123Y-13991525D01*
X30156328Y-13990135D01*
X30157999Y-13982452D01*
X30157999Y-13555331D01*
X30157629Y-13548510D01*
X30152105Y-13497648D01*
X30148479Y-13482396D01*
X30103324Y-13361946D01*
X30094786Y-13346351D01*
X30018285Y-13244276D01*
X30005724Y-13231715D01*
X29903649Y-13155214D01*
X29888054Y-13146676D01*
X29767606Y-13101522D01*
X29752351Y-13097895D01*
X29701486Y-13092369D01*
X29694672Y-13092000D01*
X29272115Y-13092000D01*
X29256876Y-13096475D01*
X29255671Y-13097865D01*
X29254000Y-13105548D01*
X29254000Y-13977885D01*
X28746000Y-13977885D01*
X28746000Y-13110116D01*
X28741525Y-13094877D01*
X28740135Y-13093672D01*
X28732452Y-13092001D01*
X28305331Y-13092001D01*
X28298510Y-13092371D01*
X28247648Y-13097895D01*
X28232396Y-13101521D01*
X28111946Y-13146676D01*
X28096351Y-13155214D01*
X27994276Y-13231715D01*
X27981715Y-13244276D01*
X27905214Y-13346351D01*
X27896676Y-13361946D01*
X27851522Y-13482394D01*
X27847895Y-13497649D01*
X27842369Y-13548514D01*
X27842000Y-13555328D01*
X27842000Y-13977885D01*
X26987581Y-13977885D01*
X26388297Y-13378602D01*
X26388295Y-13378599D01*
X26221201Y-13211505D01*
X26177220Y-13180710D01*
X26168506Y-13174023D01*
X26131591Y-13143047D01*
X26131587Y-13143044D01*
X26127374Y-13139509D01*
X26095971Y-13121378D01*
X26080877Y-13112664D01*
X26071606Y-13106758D01*
X26032138Y-13079122D01*
X26032136Y-13079121D01*
X26027629Y-13075965D01*
X26022648Y-13073642D01*
X26022637Y-13073636D01*
X25978972Y-13053275D01*
X25969223Y-13048200D01*
X25927489Y-13024105D01*
X25927490Y-13024105D01*
X25922726Y-13021355D01*
X25872274Y-13002992D01*
X25862122Y-12998787D01*
X25818445Y-12978420D01*
X25818444Y-12978420D01*
X25813463Y-12976097D01*
X25808156Y-12974675D01*
X25808145Y-12974671D01*
X25761607Y-12962201D01*
X25751126Y-12958897D01*
X25705843Y-12942416D01*
X25705839Y-12942415D01*
X25700671Y-12940534D01*
X25695258Y-12939580D01*
X25695252Y-12939578D01*
X25662673Y-12933834D01*
X25647788Y-12931210D01*
X25637064Y-12928832D01*
X25585208Y-12914937D01*
X25531731Y-12910258D01*
X25520836Y-12908824D01*
X25473377Y-12900456D01*
X25473373Y-12900456D01*
X25467953Y-12899500D01*
X23941034Y-12899500D01*
X23938317Y-12899738D01*
X23938310Y-12899738D01*
X23867682Y-12905918D01*
X23764592Y-12914937D01*
X23759278Y-12916361D01*
X23759277Y-12916361D01*
X23541647Y-12974674D01*
X23541645Y-12974675D01*
X23536337Y-12976097D01*
X23531357Y-12978419D01*
X23531355Y-12978420D01*
X23327152Y-13073642D01*
X23327149Y-13073644D01*
X23322171Y-13075965D01*
X23295168Y-13094873D01*
X23227896Y-13117559D01*
X23159035Y-13100273D01*
X23110452Y-13048503D01*
X23096900Y-12991658D01*
X23096900Y-10796981D01*
X23097803Y-10786281D01*
X23097492Y-10786258D01*
X23097931Y-10780284D01*
X23098937Y-10774366D01*
X23096930Y-10682385D01*
X23096900Y-10679636D01*
X23096900Y-10640931D01*
X23096204Y-10633637D01*
X23095665Y-10624429D01*
X23095113Y-10599094D01*
X23094356Y-10564419D01*
X23091941Y-10553199D01*
X23087366Y-10531950D01*
X23085114Y-10517399D01*
X23082531Y-10490330D01*
X23081961Y-10484354D01*
X23074888Y-10460243D01*
X23065062Y-10426747D01*
X23062790Y-10417800D01*
X23056663Y-10389344D01*
X23050158Y-10359129D01*
X23037156Y-10328571D01*
X23032200Y-10314731D01*
X23022847Y-10282851D01*
X22995358Y-10229478D01*
X22991442Y-10221136D01*
X22970288Y-10171420D01*
X22970286Y-10171417D01*
X22967938Y-10165898D01*
X22949395Y-10138355D01*
X22941899Y-10125681D01*
X22929443Y-10101496D01*
X22929442Y-10101494D01*
X22926695Y-10096161D01*
X22889619Y-10048961D01*
X22884186Y-10041497D01*
X22853197Y-9995467D01*
X22853193Y-9995462D01*
X22850661Y-9991701D01*
X22846948Y-9987606D01*
X22826530Y-9967188D01*
X22816539Y-9955926D01*
X22800681Y-9935738D01*
X22796976Y-9931021D01*
X22767292Y-9905262D01*
X22750326Y-9890540D01*
X22743812Y-9884470D01*
X21831817Y-8972475D01*
X21824885Y-8964265D01*
X21824649Y-8964469D01*
X21820734Y-8959933D01*
X21817263Y-8955040D01*
X21750770Y-8891387D01*
X21748806Y-8889464D01*
X21721470Y-8862128D01*
X21719161Y-8860221D01*
X21719151Y-8860212D01*
X21715826Y-8857466D01*
X21708933Y-8851336D01*
X21669897Y-8813968D01*
X21669896Y-8813968D01*
X21665569Y-8809825D01*
X21660535Y-8806575D01*
X21660533Y-8806573D01*
X21637673Y-8791813D01*
X21625789Y-8783115D01*
X21604812Y-8765792D01*
X21604813Y-8765792D01*
X21600190Y-8761975D01*
X21547510Y-8733193D01*
X21539590Y-8728482D01*
X21489154Y-8695915D01*
X21483586Y-8693671D01*
X21483584Y-8693670D01*
X21458361Y-8683505D01*
X21445048Y-8677212D01*
X21421166Y-8664164D01*
X21415906Y-8661290D01*
X21410198Y-8659463D01*
X21410196Y-8659462D01*
X21358736Y-8642990D01*
X21350049Y-8639854D01*
X21299947Y-8619662D01*
X21299945Y-8619661D01*
X21294381Y-8617419D01*
X21261800Y-8611057D01*
X21247537Y-8607395D01*
X21221620Y-8599099D01*
X21221619Y-8599099D01*
X21215906Y-8597270D01*
X21209954Y-8596555D01*
X21156304Y-8590110D01*
X21147184Y-8588673D01*
X21099922Y-8579444D01*
X21088278Y-8577170D01*
X21082757Y-8576900D01*
X21053879Y-8576900D01*
X21038851Y-8576001D01*
X21013356Y-8572938D01*
X21013352Y-8572938D01*
X21007409Y-8572224D01*
X21001433Y-8572647D01*
X21001430Y-8572647D01*
X20945815Y-8576585D01*
X20936916Y-8576900D01*
X15800781Y-8576900D01*
X15790081Y-8575997D01*
X15790058Y-8576308D01*
X15784084Y-8575869D01*
X15778166Y-8574863D01*
X15686186Y-8576870D01*
X15683437Y-8576900D01*
X15644731Y-8576900D01*
X15637437Y-8577596D01*
X15628236Y-8578135D01*
X15595496Y-8578849D01*
X15574217Y-8579313D01*
X15574215Y-8579313D01*
X15568220Y-8579444D01*
X15562361Y-8580705D01*
X15562356Y-8580706D01*
X15535751Y-8586434D01*
X15521200Y-8588686D01*
X15507885Y-8589957D01*
X15488154Y-8591839D01*
X15482394Y-8593529D01*
X15482393Y-8593529D01*
X15430565Y-8608734D01*
X15421616Y-8611008D01*
X15362929Y-8623642D01*
X15332371Y-8636644D01*
X15318531Y-8641600D01*
X15286651Y-8650953D01*
X15233278Y-8678442D01*
X15224936Y-8682358D01*
X15175220Y-8703512D01*
X15175217Y-8703514D01*
X15169698Y-8705862D01*
X15164721Y-8709213D01*
X15142155Y-8724405D01*
X15129481Y-8731901D01*
X15105296Y-8744357D01*
X15105294Y-8744358D01*
X15099961Y-8747105D01*
X15076171Y-8765792D01*
X15052762Y-8784180D01*
X15045297Y-8789614D01*
X14999267Y-8820603D01*
X14999262Y-8820607D01*
X14995501Y-8823139D01*
X14991406Y-8826852D01*
X14970988Y-8847270D01*
X14959727Y-8857260D01*
X14934821Y-8876824D01*
X14930890Y-8881354D01*
X14930889Y-8881355D01*
X14894340Y-8923474D01*
X14888270Y-8929988D01*
X13835075Y-9983183D01*
X13826865Y-9990115D01*
X13827069Y-9990351D01*
X13822533Y-9994266D01*
X13817640Y-9997737D01*
X13813494Y-10002068D01*
X13753987Y-10064230D01*
X13752064Y-10066194D01*
X13724728Y-10093530D01*
X13722821Y-10095839D01*
X13722812Y-10095849D01*
X13720066Y-10099174D01*
X13713936Y-10106067D01*
X13672425Y-10149431D01*
X13669175Y-10154465D01*
X13669173Y-10154467D01*
X13654413Y-10177327D01*
X13645715Y-10189211D01*
X13624575Y-10214810D01*
X13616551Y-10229497D01*
X13595793Y-10267490D01*
X13591082Y-10275410D01*
X13558515Y-10325846D01*
X13556271Y-10331414D01*
X13556270Y-10331416D01*
X13546105Y-10356639D01*
X13539812Y-10369952D01*
X13523890Y-10399094D01*
X13522063Y-10404802D01*
X13522062Y-10404804D01*
X13505590Y-10456264D01*
X13502454Y-10464951D01*
X13480019Y-10520619D01*
X13478869Y-10526508D01*
X13473657Y-10553199D01*
X13469995Y-10567463D01*
X13469050Y-10570416D01*
X13459870Y-10599094D01*
X13459155Y-10605046D01*
X13452710Y-10658696D01*
X13451273Y-10667816D01*
X13448428Y-10682385D01*
X13439770Y-10726722D01*
X13439500Y-10732243D01*
X13439500Y-10761121D01*
X13438601Y-10776149D01*
X13436099Y-10796981D01*
X13434824Y-10807591D01*
X13435247Y-10813567D01*
X13435247Y-10813570D01*
X13439185Y-10869185D01*
X13439500Y-10878084D01*
X13439500Y-11343498D01*
X13419498Y-11411619D01*
X13365842Y-11458112D01*
X13295568Y-11468216D01*
X13265287Y-11459909D01*
X13156762Y-11414956D01*
X13131415Y-11411619D01*
X13043448Y-11400038D01*
X13043447Y-11400038D01*
X13039361Y-11399500D01*
X12000127Y-11399500D01*
X10960640Y-11399501D01*
X10956556Y-11400039D01*
X10956550Y-11400039D01*
X10851425Y-11413878D01*
X10851423Y-11413878D01*
X10843238Y-11414956D01*
X10697159Y-11475464D01*
X10690608Y-11480491D01*
X10591018Y-11556909D01*
X10571718Y-11571718D01*
X10475464Y-11697159D01*
X10414956Y-11843238D01*
X10399500Y-11960639D01*
X10399501Y-14039360D01*
X10400039Y-14043444D01*
X10400039Y-14043450D01*
X10412544Y-14138442D01*
X10414956Y-14156762D01*
X10475464Y-14302841D01*
X10571718Y-14428282D01*
X10697159Y-14524536D01*
X10843238Y-14585044D01*
X10851426Y-14586122D01*
X10956545Y-14599961D01*
X10960639Y-14600500D01*
X11999873Y-14600500D01*
X13039360Y-14600499D01*
X13043444Y-14599961D01*
X13043450Y-14599961D01*
X13148575Y-14586122D01*
X13148577Y-14586122D01*
X13156762Y-14585044D01*
X13302841Y-14524536D01*
X13428282Y-14428282D01*
X13480527Y-14360195D01*
X13537865Y-14318328D01*
X13608736Y-14314106D01*
X13646325Y-14329467D01*
X13806911Y-14427875D01*
X13806921Y-14427880D01*
X13811141Y-14430466D01*
X13815711Y-14432359D01*
X13815715Y-14432361D01*
X14039316Y-14524979D01*
X14043889Y-14526873D01*
X14128289Y-14547135D01*
X14284039Y-14584528D01*
X14284045Y-14584529D01*
X14288852Y-14585683D01*
X14540000Y-14605449D01*
X14791148Y-14585683D01*
X14795955Y-14584529D01*
X14795961Y-14584528D01*
X14951711Y-14547135D01*
X15036111Y-14526873D01*
X15040684Y-14524979D01*
X15264285Y-14432361D01*
X15264289Y-14432359D01*
X15268859Y-14430466D01*
X15483659Y-14298836D01*
X15487419Y-14295624D01*
X15487424Y-14295621D01*
X15671457Y-14138442D01*
X15671462Y-14138437D01*
X15675224Y-14135224D01*
X15714189Y-14089602D01*
X15773640Y-14050793D01*
X15844634Y-14050287D01*
X15905811Y-14089602D01*
X15944776Y-14135224D01*
X15944305Y-14135626D01*
X15976621Y-14194807D01*
X15979500Y-14221590D01*
X15979500Y-14614219D01*
X15978597Y-14624919D01*
X15978908Y-14624942D01*
X15978469Y-14630916D01*
X15977463Y-14636834D01*
X15978053Y-14663882D01*
X15979470Y-14728815D01*
X15979500Y-14731564D01*
X15979500Y-14770269D01*
X15980196Y-14777563D01*
X15980735Y-14786764D01*
X15981059Y-14801617D01*
X15981785Y-14834891D01*
X15982044Y-14846781D01*
X15983305Y-14852640D01*
X15983306Y-14852645D01*
X15989034Y-14879250D01*
X15991286Y-14893801D01*
X15994439Y-14926846D01*
X15996129Y-14932606D01*
X15996129Y-14932607D01*
X16011338Y-14984453D01*
X16013610Y-14993400D01*
X16026242Y-15052071D01*
X16037143Y-15077689D01*
X16039242Y-15082623D01*
X16044200Y-15096469D01*
X16053553Y-15128349D01*
X16081042Y-15181722D01*
X16084958Y-15190064D01*
X16100379Y-15226305D01*
X16108462Y-15245302D01*
X16115479Y-15255724D01*
X16127005Y-15272845D01*
X16134501Y-15285519D01*
X16142960Y-15301942D01*
X16149705Y-15315039D01*
X16173074Y-15344789D01*
X16186780Y-15362238D01*
X16192214Y-15369703D01*
X16223203Y-15415733D01*
X16223207Y-15415738D01*
X16225739Y-15419499D01*
X16229452Y-15423594D01*
X16249870Y-15444012D01*
X16259860Y-15455273D01*
X16279424Y-15480179D01*
X16283954Y-15484110D01*
X16283955Y-15484111D01*
X16326074Y-15520660D01*
X16332588Y-15526730D01*
X17732595Y-16926737D01*
X17766621Y-16989049D01*
X17769500Y-17015832D01*
X17769500Y-17078410D01*
X17749498Y-17146531D01*
X17734835Y-17164726D01*
X17734776Y-17164776D01*
X17731568Y-17168532D01*
X17695811Y-17210398D01*
X17636360Y-17249207D01*
X17565366Y-17249713D01*
X17504189Y-17210398D01*
X17468439Y-17168540D01*
X17468437Y-17168538D01*
X17465224Y-17164776D01*
X17461462Y-17161563D01*
X17461457Y-17161558D01*
X17277424Y-17004379D01*
X17277417Y-17004374D01*
X17273659Y-17001164D01*
X17058859Y-16869534D01*
X17054289Y-16867641D01*
X17054285Y-16867639D01*
X16830684Y-16775021D01*
X16830682Y-16775020D01*
X16826111Y-16773127D01*
X16724727Y-16748787D01*
X16585961Y-16715472D01*
X16585955Y-16715471D01*
X16581148Y-16714317D01*
X16330000Y-16694551D01*
X16078852Y-16714317D01*
X16074045Y-16715471D01*
X16074039Y-16715472D01*
X15935273Y-16748787D01*
X15833889Y-16773127D01*
X15829318Y-16775020D01*
X15829316Y-16775021D01*
X15605715Y-16867639D01*
X15605711Y-16867641D01*
X15601141Y-16869534D01*
X15386341Y-17001164D01*
X15382583Y-17004374D01*
X15382576Y-17004379D01*
X15244720Y-17122120D01*
X15194776Y-17164776D01*
X15191563Y-17168538D01*
X15034379Y-17352576D01*
X15034376Y-17352581D01*
X15031164Y-17356341D01*
X14982425Y-17435876D01*
X14941296Y-17502992D01*
X14922958Y-17526252D01*
X14162022Y-18287188D01*
X14154408Y-18301132D01*
X14154539Y-18302965D01*
X14158790Y-18309580D01*
X14922958Y-19073748D01*
X14941295Y-19097007D01*
X15031164Y-19243659D01*
X15060000Y-19277422D01*
X15118460Y-19345870D01*
X15147491Y-19410660D01*
X15136886Y-19480860D01*
X15090011Y-19534182D01*
X15022649Y-19553700D01*
X14736680Y-19553700D01*
X14668559Y-19533698D01*
X14647585Y-19516795D01*
X12657042Y-17526252D01*
X12638704Y-17502992D01*
X12597575Y-17435876D01*
X12548836Y-17356341D01*
X12545624Y-17352581D01*
X12545621Y-17352576D01*
X12388437Y-17168538D01*
X12385224Y-17164776D01*
X12335280Y-17122120D01*
X12271785Y-17067890D01*
X12922093Y-17067890D01*
X12925876Y-17076666D01*
X13777188Y-17927978D01*
X13791132Y-17935592D01*
X13792965Y-17935461D01*
X13799580Y-17931210D01*
X14651080Y-17079710D01*
X14657840Y-17067330D01*
X14652113Y-17059680D01*
X14480958Y-16954795D01*
X14472163Y-16950313D01*
X14262012Y-16863266D01*
X14252627Y-16860217D01*
X14031446Y-16807115D01*
X14021699Y-16805572D01*
X13794930Y-16787725D01*
X13785070Y-16787725D01*
X13558301Y-16805572D01*
X13548554Y-16807115D01*
X13327373Y-16860217D01*
X13317988Y-16863266D01*
X13107837Y-16950313D01*
X13099042Y-16954795D01*
X12931555Y-17057432D01*
X12922093Y-17067890D01*
X12271785Y-17067890D01*
X12197424Y-17004379D01*
X12197417Y-17004374D01*
X12193659Y-17001164D01*
X11978859Y-16869534D01*
X11974289Y-16867641D01*
X11974285Y-16867639D01*
X11750684Y-16775021D01*
X11750682Y-16775020D01*
X11746111Y-16773127D01*
X11644727Y-16748787D01*
X11505961Y-16715472D01*
X11505955Y-16715471D01*
X11501148Y-16714317D01*
X11250000Y-16694551D01*
X10998852Y-16714317D01*
X10994045Y-16715471D01*
X10994039Y-16715472D01*
X10855273Y-16748787D01*
X10753889Y-16773127D01*
X10749318Y-16775020D01*
X10749316Y-16775021D01*
X10525715Y-16867639D01*
X10525711Y-16867641D01*
X10521141Y-16869534D01*
X10306341Y-17001164D01*
X10302583Y-17004374D01*
X10302576Y-17004379D01*
X10164720Y-17122120D01*
X10114776Y-17164776D01*
X10111563Y-17168538D01*
X9954379Y-17352576D01*
X9954376Y-17352581D01*
X9951164Y-17356341D01*
X9819534Y-17571141D01*
X9817641Y-17575711D01*
X9817639Y-17575715D01*
X9725021Y-17799316D01*
X9723127Y-17803889D01*
X9715088Y-17837373D01*
X9691540Y-17935461D01*
X9664317Y-18048852D01*
X9644551Y-18300000D01*
X9664317Y-18551148D01*
X9665471Y-18555955D01*
X9665472Y-18555961D01*
X9692468Y-18668405D01*
X9723127Y-18796111D01*
X9725020Y-18800682D01*
X9725021Y-18800684D01*
X9816698Y-19022012D01*
X9819534Y-19028859D01*
X9822120Y-19033079D01*
X9880933Y-19129053D01*
X9899500Y-19194888D01*
X9899500Y-19376900D01*
X9879498Y-19445021D01*
X9825842Y-19491514D01*
X9773500Y-19502900D01*
X7964986Y-19502900D01*
X7896865Y-19482898D01*
X7879513Y-19468914D01*
X7879501Y-19468929D01*
X7878759Y-19468306D01*
X7875891Y-19465995D01*
X7871401Y-19461505D01*
X7866893Y-19458348D01*
X7866890Y-19458346D01*
X7833868Y-19435224D01*
X7827420Y-19430709D01*
X7818700Y-19424018D01*
X7781791Y-19393047D01*
X7781787Y-19393044D01*
X7777574Y-19389509D01*
X7731081Y-19362666D01*
X7721811Y-19356760D01*
X7682344Y-19329125D01*
X7682338Y-19329121D01*
X7677830Y-19325965D01*
X7672848Y-19323642D01*
X7672838Y-19323636D01*
X7629169Y-19303273D01*
X7619421Y-19298199D01*
X7611494Y-19293622D01*
X7572926Y-19271355D01*
X7567767Y-19269477D01*
X7567760Y-19269474D01*
X7522473Y-19252992D01*
X7512315Y-19248784D01*
X7468650Y-19228422D01*
X7468645Y-19228420D01*
X7463663Y-19226097D01*
X7458356Y-19224675D01*
X7458345Y-19224671D01*
X7411807Y-19212201D01*
X7401326Y-19208897D01*
X7356043Y-19192416D01*
X7356039Y-19192415D01*
X7350871Y-19190534D01*
X7345458Y-19189580D01*
X7345452Y-19189578D01*
X7312873Y-19183834D01*
X7297988Y-19181210D01*
X7287264Y-19178832D01*
X7235408Y-19164937D01*
X7191325Y-19161080D01*
X7181931Y-19160258D01*
X7171034Y-19158824D01*
X7144117Y-19154078D01*
X7118153Y-19149500D01*
X7064473Y-19149500D01*
X7053491Y-19149021D01*
X7005475Y-19144820D01*
X7000000Y-19144341D01*
X6994525Y-19144820D01*
X6946509Y-19149021D01*
X6935527Y-19149500D01*
X6176387Y-19149500D01*
X6108266Y-19129498D01*
X6087292Y-19112596D01*
X5680005Y-18705310D01*
X5645980Y-18642997D01*
X5643100Y-18616214D01*
X5643100Y-17219621D01*
X5652690Y-17171405D01*
X5677644Y-17111162D01*
X5684759Y-17057115D01*
X5692562Y-16997848D01*
X5692562Y-16997847D01*
X5693100Y-16993761D01*
X5693099Y-15315040D01*
X5691583Y-15303519D01*
X5678722Y-15205825D01*
X5678722Y-15205823D01*
X5677644Y-15197638D01*
X5617136Y-15051559D01*
X5548659Y-14962318D01*
X5525905Y-14932664D01*
X5520882Y-14926118D01*
X5395441Y-14829864D01*
X5249362Y-14769356D01*
X5166712Y-14758475D01*
X5136048Y-14754438D01*
X5136047Y-14754438D01*
X5131961Y-14753900D01*
X4292702Y-14753900D01*
X3453240Y-14753901D01*
X3449156Y-14754439D01*
X3449150Y-14754439D01*
X3344025Y-14768278D01*
X3344023Y-14768278D01*
X3335838Y-14769356D01*
X3189759Y-14829864D01*
X3064318Y-14926118D01*
X3059295Y-14932664D01*
X3036541Y-14962318D01*
X2968064Y-15051559D01*
X2915132Y-15179347D01*
X2914157Y-15181703D01*
X2907556Y-15197638D01*
X2906478Y-15205825D01*
X2906478Y-15205826D01*
X2895595Y-15288495D01*
X2892100Y-15315039D01*
X2892101Y-16993760D01*
X2892639Y-16997844D01*
X2892639Y-16997850D01*
X2906478Y-17102974D01*
X2907556Y-17111162D01*
X2932510Y-17171405D01*
X2942100Y-17219621D01*
X2942100Y-19235138D01*
X2922098Y-19303259D01*
X2868442Y-19349752D01*
X2798168Y-19359856D01*
X2771873Y-19353121D01*
X2767608Y-19351522D01*
X2752351Y-19347895D01*
X2701486Y-19342369D01*
X2694672Y-19342000D01*
X2272115Y-19342000D01*
X2256876Y-19346475D01*
X2255671Y-19347865D01*
X2254000Y-19355548D01*
X2254000Y-20227885D01*
X1746000Y-20227885D01*
X1746000Y-19360116D01*
X1741525Y-19344877D01*
X1740135Y-19343672D01*
X1732452Y-19342001D01*
X1305331Y-19342001D01*
X1298510Y-19342371D01*
X1247648Y-19347895D01*
X1232396Y-19351521D01*
X1111946Y-19396676D01*
X1096351Y-19405214D01*
X994276Y-19481715D01*
X981715Y-19494276D01*
X905214Y-19596351D01*
X896676Y-19611946D01*
X851522Y-19732394D01*
X847895Y-19747649D01*
X842369Y-19798514D01*
X842000Y-19805328D01*
X842000Y-20227885D01*
X508000Y-20227885D01*
X508000Y-13740462D01*
X3571093Y-13740462D01*
X3580389Y-13752477D01*
X3631594Y-13788331D01*
X3641089Y-13793814D01*
X3838547Y-13885890D01*
X3848839Y-13889636D01*
X4059288Y-13946025D01*
X4070081Y-13947928D01*
X4287125Y-13966917D01*
X4298075Y-13966917D01*
X4515119Y-13947928D01*
X4525912Y-13946025D01*
X4736361Y-13889636D01*
X4746653Y-13885890D01*
X4944111Y-13793814D01*
X4953606Y-13788331D01*
X5005648Y-13751891D01*
X5014024Y-13741412D01*
X5006956Y-13727966D01*
X4305412Y-13026422D01*
X4291468Y-13018808D01*
X4289635Y-13018939D01*
X4283020Y-13023190D01*
X3577523Y-13728687D01*
X3571093Y-13740462D01*
X508000Y-13740462D01*
X508000Y-12659875D01*
X2980083Y-12659875D01*
X2999072Y-12876919D01*
X3000975Y-12887712D01*
X3057364Y-13098161D01*
X3061110Y-13108453D01*
X3153186Y-13305911D01*
X3158669Y-13315406D01*
X3195109Y-13367448D01*
X3205588Y-13375824D01*
X3219034Y-13368756D01*
X3920578Y-12667212D01*
X3926956Y-12655532D01*
X4657008Y-12655532D01*
X4657139Y-12657365D01*
X4661390Y-12663980D01*
X5366887Y-13369477D01*
X5378662Y-13375907D01*
X5390677Y-13366611D01*
X5426531Y-13315406D01*
X5432014Y-13305911D01*
X5524090Y-13108453D01*
X5527836Y-13098161D01*
X5584225Y-12887712D01*
X5586128Y-12876919D01*
X5605117Y-12659875D01*
X5605117Y-12648925D01*
X5586128Y-12431881D01*
X5584225Y-12421088D01*
X5527836Y-12210639D01*
X5524090Y-12200347D01*
X5432014Y-12002889D01*
X5426531Y-11993394D01*
X5390091Y-11941352D01*
X5379612Y-11932976D01*
X5366166Y-11940044D01*
X4664622Y-12641588D01*
X4657008Y-12655532D01*
X3926956Y-12655532D01*
X3928192Y-12653268D01*
X3928061Y-12651435D01*
X3923810Y-12644820D01*
X3218313Y-11939323D01*
X3206538Y-11932893D01*
X3194523Y-11942189D01*
X3158669Y-11993394D01*
X3153186Y-12002889D01*
X3061110Y-12200347D01*
X3057364Y-12210639D01*
X3000975Y-12421088D01*
X2999072Y-12431881D01*
X2980083Y-12648925D01*
X2980083Y-12659875D01*
X508000Y-12659875D01*
X508000Y-11567388D01*
X3571176Y-11567388D01*
X3578244Y-11580834D01*
X4279788Y-12282378D01*
X4293732Y-12289992D01*
X4295565Y-12289861D01*
X4302180Y-12285610D01*
X5007677Y-11580113D01*
X5014107Y-11568338D01*
X5004811Y-11556323D01*
X4953606Y-11520469D01*
X4944111Y-11514986D01*
X4746653Y-11422910D01*
X4736361Y-11419164D01*
X4525912Y-11362775D01*
X4515119Y-11360872D01*
X4298075Y-11341883D01*
X4287125Y-11341883D01*
X4070081Y-11360872D01*
X4059288Y-11362775D01*
X3848839Y-11419164D01*
X3838547Y-11422910D01*
X3641089Y-11514986D01*
X3631594Y-11520469D01*
X3579552Y-11556909D01*
X3571176Y-11567388D01*
X508000Y-11567388D01*
X508000Y-7496412D01*
X528002Y-7428291D01*
X581658Y-7381798D01*
X651932Y-7371694D01*
X716512Y-7401188D01*
X741260Y-7430296D01*
X837077Y-7585740D01*
X942807Y-7757266D01*
X1203974Y-8107011D01*
X1205835Y-8109089D01*
X1205836Y-8109090D01*
X1479585Y-8414724D01*
X1495198Y-8432156D01*
X1497235Y-8434059D01*
X1497242Y-8434066D01*
X1685691Y-8610105D01*
X1814172Y-8730125D01*
X1816368Y-8731838D01*
X1816372Y-8731841D01*
X1859906Y-8765792D01*
X2158372Y-8998560D01*
X2208308Y-9030803D01*
X2522727Y-9233821D01*
X2522735Y-9233826D01*
X2525071Y-9235334D01*
X2911366Y-9438574D01*
X2913959Y-9439656D01*
X3311614Y-9605592D01*
X3311619Y-9605594D01*
X3314198Y-9606670D01*
X3316863Y-9607513D01*
X3316869Y-9607515D01*
X3543094Y-9679060D01*
X3730379Y-9738290D01*
X3733109Y-9738893D01*
X3733110Y-9738893D01*
X4117157Y-9823683D01*
X4156612Y-9832394D01*
X4159386Y-9832752D01*
X4159387Y-9832752D01*
X4586752Y-9887878D01*
X4586762Y-9887879D01*
X4589523Y-9888235D01*
X4592310Y-9888345D01*
X4592316Y-9888345D01*
X4845621Y-9898297D01*
X5025685Y-9905372D01*
X5028476Y-9905233D01*
X5028482Y-9905233D01*
X5458839Y-9883808D01*
X5458848Y-9883807D01*
X5461643Y-9883668D01*
X5464420Y-9883280D01*
X5464422Y-9883280D01*
X5539233Y-9872833D01*
X5893945Y-9823297D01*
X5896655Y-9822669D01*
X5896665Y-9822667D01*
X6316443Y-9725367D01*
X6319170Y-9724735D01*
X6537089Y-9653298D01*
X6731296Y-9589634D01*
X6731302Y-9589632D01*
X6733949Y-9588764D01*
X7042628Y-9456145D01*
X7132426Y-9417565D01*
X7132428Y-9417564D01*
X7135000Y-9416459D01*
X7519145Y-9209185D01*
X7883345Y-8968584D01*
X8224714Y-8696559D01*
X8540551Y-8395266D01*
X8542388Y-8393172D01*
X8542396Y-8393163D01*
X8826505Y-8069198D01*
X8828354Y-8067090D01*
X8830006Y-8064829D01*
X8830013Y-8064820D01*
X9084186Y-7716898D01*
X9084189Y-7716893D01*
X9085844Y-7714628D01*
X9087288Y-7712230D01*
X9087295Y-7712219D01*
X9309533Y-7343084D01*
X9309538Y-7343075D01*
X9310984Y-7340673D01*
X9501989Y-6948185D01*
X9657349Y-6540271D01*
X9658372Y-6536646D01*
X9775067Y-6122873D01*
X9775832Y-6120161D01*
X9826541Y-5850504D01*
X9855985Y-5693928D01*
X9855986Y-5693920D01*
X9856501Y-5691182D01*
X9880409Y-5445134D01*
X9898501Y-5258948D01*
X9898502Y-5258936D01*
X9898716Y-5256731D01*
X9901220Y-5161110D01*
X9905381Y-5002233D01*
X9905381Y-5002220D01*
X9905439Y-5000000D01*
X9886019Y-4563934D01*
X9827912Y-4131322D01*
X9827161Y-4128000D01*
X9745762Y-3768270D01*
X9731578Y-3705587D01*
X9692713Y-3584897D01*
X9620827Y-3361670D01*
X9597780Y-3290101D01*
X9591786Y-3275945D01*
X9428675Y-2890746D01*
X9428671Y-2890738D01*
X9427577Y-2888154D01*
X9222318Y-2502928D01*
X8983626Y-2137474D01*
X8713393Y-1794685D01*
X8413758Y-1477275D01*
X8411667Y-1475422D01*
X8411659Y-1475414D01*
X8089193Y-1189619D01*
X8089191Y-1189617D01*
X8087093Y-1187758D01*
X7735985Y-928425D01*
X7429322Y-741605D01*
X7381553Y-689082D01*
X7369763Y-619071D01*
X7397695Y-553800D01*
X7456481Y-513992D01*
X7494875Y-508000D01*
X61509071Y-508000D01*
X61577192Y-528002D01*
G37*
%TD.AperFunction*%
%TA.AperFunction,Conductor*%
G36*
X43294031Y-18720030D02*
G01*
X43339094Y-18748991D01*
X44174703Y-19584600D01*
X44174709Y-19584605D01*
X44178599Y-19588495D01*
X44212090Y-19611946D01*
X44222580Y-19619291D01*
X44231299Y-19625982D01*
X44268207Y-19656951D01*
X44268215Y-19656956D01*
X44272426Y-19660490D01*
X44277189Y-19663240D01*
X44277192Y-19663242D01*
X44318918Y-19687333D01*
X44328188Y-19693239D01*
X44367658Y-19720876D01*
X44367666Y-19720881D01*
X44372171Y-19724035D01*
X44377151Y-19726357D01*
X44377161Y-19726363D01*
X44420832Y-19746727D01*
X44430581Y-19751802D01*
X44472310Y-19775894D01*
X44472315Y-19775896D01*
X44477074Y-19778644D01*
X44509751Y-19790537D01*
X44527524Y-19797006D01*
X44537677Y-19801212D01*
X44586337Y-19823903D01*
X44638208Y-19837802D01*
X44648687Y-19841106D01*
X44693963Y-19857585D01*
X44693965Y-19857586D01*
X44699129Y-19859465D01*
X44749981Y-19868431D01*
X44751992Y-19868786D01*
X44762723Y-19871165D01*
X44809276Y-19883639D01*
X44809281Y-19883640D01*
X44814592Y-19885063D01*
X44820076Y-19885543D01*
X44820077Y-19885543D01*
X44868069Y-19889742D01*
X44878965Y-19891176D01*
X44915517Y-19897621D01*
X44931846Y-19900500D01*
X46575112Y-19900500D01*
X46640948Y-19919067D01*
X46741141Y-19980466D01*
X46745711Y-19982359D01*
X46745715Y-19982361D01*
X46938646Y-20062275D01*
X46973889Y-20076873D01*
X47015553Y-20086876D01*
X47062630Y-20098178D01*
X47124199Y-20133530D01*
X47156882Y-20196557D01*
X47150301Y-20267248D01*
X47122312Y-20309792D01*
X46861500Y-20570605D01*
X46628602Y-20803503D01*
X46628599Y-20803505D01*
X46461505Y-20970599D01*
X46442565Y-20997649D01*
X46430714Y-21014574D01*
X46424023Y-21023294D01*
X46393047Y-21060209D01*
X46393044Y-21060213D01*
X46389509Y-21064426D01*
X46386756Y-21069195D01*
X46362664Y-21110923D01*
X46356758Y-21120194D01*
X46354191Y-21123861D01*
X46325965Y-21164171D01*
X46323642Y-21169152D01*
X46323636Y-21169163D01*
X46303275Y-21212828D01*
X46298200Y-21222577D01*
X46271355Y-21269074D01*
X46269474Y-21274242D01*
X46252993Y-21319523D01*
X46248788Y-21329676D01*
X46226097Y-21378337D01*
X46224675Y-21383644D01*
X46224671Y-21383655D01*
X46212201Y-21430193D01*
X46208897Y-21440674D01*
X46196190Y-21475588D01*
X46190534Y-21491129D01*
X46189580Y-21496542D01*
X46189578Y-21496548D01*
X46181211Y-21544007D01*
X46178832Y-21554736D01*
X46164937Y-21606592D01*
X46164457Y-21612080D01*
X46160258Y-21660069D01*
X46158824Y-21670964D01*
X46157873Y-21676362D01*
X46149500Y-21723847D01*
X46149500Y-22808415D01*
X46129498Y-22876536D01*
X46112595Y-22897510D01*
X43897510Y-25112595D01*
X43835198Y-25146621D01*
X43808415Y-25149500D01*
X42065221Y-25149500D01*
X42017005Y-25139910D01*
X41956762Y-25114956D01*
X41948574Y-25113878D01*
X41843448Y-25100038D01*
X41843447Y-25100038D01*
X41839361Y-25099500D01*
X41000102Y-25099500D01*
X40160640Y-25099501D01*
X40156556Y-25100039D01*
X40156550Y-25100039D01*
X40051425Y-25113878D01*
X40051423Y-25113878D01*
X40043238Y-25114956D01*
X39982995Y-25139910D01*
X39934779Y-25149500D01*
X35849185Y-25149500D01*
X35781064Y-25129498D01*
X35760090Y-25112595D01*
X33221957Y-22574462D01*
X36514893Y-22574462D01*
X36524189Y-22586477D01*
X36575394Y-22622331D01*
X36584889Y-22627814D01*
X36782347Y-22719890D01*
X36792639Y-22723636D01*
X37003088Y-22780025D01*
X37013881Y-22781928D01*
X37230925Y-22800917D01*
X37241875Y-22800917D01*
X37458919Y-22781928D01*
X37469712Y-22780025D01*
X37680161Y-22723636D01*
X37690453Y-22719890D01*
X37887911Y-22627814D01*
X37897406Y-22622331D01*
X37949448Y-22585891D01*
X37957824Y-22575412D01*
X37950756Y-22561966D01*
X37833459Y-22444669D01*
X42092001Y-22444669D01*
X42092371Y-22451490D01*
X42097895Y-22502352D01*
X42101521Y-22517604D01*
X42146676Y-22638054D01*
X42155214Y-22653649D01*
X42231715Y-22755724D01*
X42244276Y-22768285D01*
X42346351Y-22844786D01*
X42361946Y-22853324D01*
X42482394Y-22898478D01*
X42497649Y-22902105D01*
X42548514Y-22907631D01*
X42555328Y-22908000D01*
X42977885Y-22908000D01*
X42993124Y-22903525D01*
X42994329Y-22902135D01*
X42996000Y-22894452D01*
X42996000Y-22889884D01*
X43504000Y-22889884D01*
X43508475Y-22905123D01*
X43509865Y-22906328D01*
X43517548Y-22907999D01*
X43944669Y-22907999D01*
X43951490Y-22907629D01*
X44002352Y-22902105D01*
X44017604Y-22898479D01*
X44138054Y-22853324D01*
X44153649Y-22844786D01*
X44255724Y-22768285D01*
X44268285Y-22755724D01*
X44344786Y-22653649D01*
X44353324Y-22638054D01*
X44398478Y-22517606D01*
X44402105Y-22502351D01*
X44407631Y-22451486D01*
X44408000Y-22444672D01*
X44408000Y-22022115D01*
X44403525Y-22006876D01*
X44402135Y-22005671D01*
X44394452Y-22004000D01*
X43522115Y-22004000D01*
X43506876Y-22008475D01*
X43505671Y-22009865D01*
X43504000Y-22017548D01*
X43504000Y-22889884D01*
X42996000Y-22889884D01*
X42996000Y-22022115D01*
X42991525Y-22006876D01*
X42990135Y-22005671D01*
X42982452Y-22004000D01*
X42110116Y-22004000D01*
X42094877Y-22008475D01*
X42093672Y-22009865D01*
X42092001Y-22017548D01*
X42092001Y-22444669D01*
X37833459Y-22444669D01*
X37249212Y-21860422D01*
X37235268Y-21852808D01*
X37233435Y-21852939D01*
X37226820Y-21857190D01*
X36521323Y-22562687D01*
X36514893Y-22574462D01*
X33221957Y-22574462D01*
X33196097Y-22548602D01*
X33196095Y-22548599D01*
X33029001Y-22381505D01*
X32985020Y-22350710D01*
X32976306Y-22344023D01*
X32939391Y-22313047D01*
X32939387Y-22313044D01*
X32935174Y-22309509D01*
X32888677Y-22282664D01*
X32879406Y-22276758D01*
X32839938Y-22249122D01*
X32839936Y-22249121D01*
X32835429Y-22245965D01*
X32830448Y-22243642D01*
X32830437Y-22243636D01*
X32786772Y-22223275D01*
X32777023Y-22218200D01*
X32735289Y-22194105D01*
X32735290Y-22194105D01*
X32730526Y-22191355D01*
X32680074Y-22172992D01*
X32669922Y-22168787D01*
X32626245Y-22148420D01*
X32626244Y-22148420D01*
X32621263Y-22146097D01*
X32615956Y-22144675D01*
X32615945Y-22144671D01*
X32569407Y-22132201D01*
X32558926Y-22128897D01*
X32542336Y-22122859D01*
X32485164Y-22080765D01*
X32459825Y-22014444D01*
X32474365Y-21944952D01*
X32496334Y-21915362D01*
X32636095Y-21775601D01*
X32636097Y-21775598D01*
X32917820Y-21493875D01*
X35923883Y-21493875D01*
X35942872Y-21710919D01*
X35944775Y-21721712D01*
X36001164Y-21932161D01*
X36004910Y-21942453D01*
X36096986Y-22139911D01*
X36102469Y-22149406D01*
X36138909Y-22201448D01*
X36149388Y-22209824D01*
X36162834Y-22202756D01*
X36864378Y-21501212D01*
X36870756Y-21489532D01*
X37600808Y-21489532D01*
X37600939Y-21491365D01*
X37605190Y-21497980D01*
X38310687Y-22203477D01*
X38322462Y-22209907D01*
X38334477Y-22200611D01*
X38370331Y-22149406D01*
X38375814Y-22139911D01*
X38467890Y-21942453D01*
X38471636Y-21932161D01*
X38528025Y-21721712D01*
X38529928Y-21710919D01*
X38548917Y-21493875D01*
X38548917Y-21482925D01*
X38548476Y-21477885D01*
X42092000Y-21477885D01*
X42096475Y-21493124D01*
X42097865Y-21494329D01*
X42105548Y-21496000D01*
X42977885Y-21496000D01*
X42993124Y-21491525D01*
X42994329Y-21490135D01*
X42996000Y-21482452D01*
X42996000Y-21477885D01*
X43504000Y-21477885D01*
X43508475Y-21493124D01*
X43509865Y-21494329D01*
X43517548Y-21496000D01*
X44389884Y-21496000D01*
X44405123Y-21491525D01*
X44406328Y-21490135D01*
X44407999Y-21482452D01*
X44407999Y-21055331D01*
X44407629Y-21048510D01*
X44402105Y-20997648D01*
X44398479Y-20982396D01*
X44353324Y-20861946D01*
X44344786Y-20846351D01*
X44268285Y-20744276D01*
X44255724Y-20731715D01*
X44153649Y-20655214D01*
X44138054Y-20646676D01*
X44017606Y-20601522D01*
X44002351Y-20597895D01*
X43951486Y-20592369D01*
X43944672Y-20592000D01*
X43522115Y-20592000D01*
X43506876Y-20596475D01*
X43505671Y-20597865D01*
X43504000Y-20605548D01*
X43504000Y-21477885D01*
X42996000Y-21477885D01*
X42996000Y-20610116D01*
X42991525Y-20594877D01*
X42990135Y-20593672D01*
X42982452Y-20592001D01*
X42555331Y-20592001D01*
X42548510Y-20592371D01*
X42497648Y-20597895D01*
X42482396Y-20601521D01*
X42361946Y-20646676D01*
X42346351Y-20655214D01*
X42244276Y-20731715D01*
X42231715Y-20744276D01*
X42155214Y-20846351D01*
X42146676Y-20861946D01*
X42101522Y-20982394D01*
X42097895Y-20997649D01*
X42092369Y-21048514D01*
X42092000Y-21055328D01*
X42092000Y-21477885D01*
X38548476Y-21477885D01*
X38529928Y-21265881D01*
X38528025Y-21255088D01*
X38471636Y-21044639D01*
X38467890Y-21034347D01*
X38375814Y-20836889D01*
X38370331Y-20827394D01*
X38333891Y-20775352D01*
X38323412Y-20766976D01*
X38309966Y-20774044D01*
X37608422Y-21475588D01*
X37600808Y-21489532D01*
X36870756Y-21489532D01*
X36871992Y-21487268D01*
X36871861Y-21485435D01*
X36867610Y-21478820D01*
X36162113Y-20773323D01*
X36150338Y-20766893D01*
X36138323Y-20776189D01*
X36102469Y-20827394D01*
X36096986Y-20836889D01*
X36004910Y-21034347D01*
X36001164Y-21044639D01*
X35944775Y-21255088D01*
X35942872Y-21265881D01*
X35923883Y-21482925D01*
X35923883Y-21493875D01*
X32917820Y-21493875D01*
X34010307Y-20401388D01*
X36514976Y-20401388D01*
X36522044Y-20414834D01*
X37223588Y-21116378D01*
X37237532Y-21123992D01*
X37239365Y-21123861D01*
X37245980Y-21119610D01*
X37951477Y-20414113D01*
X37957907Y-20402338D01*
X37948611Y-20390323D01*
X37897406Y-20354469D01*
X37887911Y-20348986D01*
X37690453Y-20256910D01*
X37680161Y-20253164D01*
X37469712Y-20196775D01*
X37458919Y-20194872D01*
X37241875Y-20175883D01*
X37230925Y-20175883D01*
X37013881Y-20194872D01*
X37003088Y-20196775D01*
X36792639Y-20253164D01*
X36782347Y-20256910D01*
X36584889Y-20348986D01*
X36575394Y-20354469D01*
X36523352Y-20390909D01*
X36514976Y-20401388D01*
X34010307Y-20401388D01*
X35024290Y-19387405D01*
X35086602Y-19353379D01*
X35113385Y-19350500D01*
X36199183Y-19350500D01*
X36247401Y-19360091D01*
X36279638Y-19373444D01*
X36287826Y-19374522D01*
X36392945Y-19388361D01*
X36397039Y-19388900D01*
X37236298Y-19388900D01*
X38075760Y-19388899D01*
X38079844Y-19388361D01*
X38079850Y-19388361D01*
X38184975Y-19374522D01*
X38184977Y-19374522D01*
X38193162Y-19373444D01*
X38265959Y-19343290D01*
X38314175Y-19333700D01*
X42134953Y-19333700D01*
X42140373Y-19332744D01*
X42140377Y-19332744D01*
X42187836Y-19324376D01*
X42198731Y-19322942D01*
X42198888Y-19322928D01*
X42252208Y-19318263D01*
X42304064Y-19304368D01*
X42314788Y-19301990D01*
X42329673Y-19299366D01*
X42362252Y-19293622D01*
X42362258Y-19293620D01*
X42367671Y-19292666D01*
X42372839Y-19290785D01*
X42372843Y-19290784D01*
X42418126Y-19274303D01*
X42428607Y-19270999D01*
X42475145Y-19258529D01*
X42475156Y-19258525D01*
X42480463Y-19257103D01*
X42529124Y-19234412D01*
X42539277Y-19230207D01*
X42544182Y-19228422D01*
X42589726Y-19211845D01*
X42626638Y-19190534D01*
X42636223Y-19185000D01*
X42645972Y-19179925D01*
X42689637Y-19159564D01*
X42689648Y-19159558D01*
X42694629Y-19157235D01*
X42704311Y-19150456D01*
X42738606Y-19126442D01*
X42747877Y-19120536D01*
X42762971Y-19111822D01*
X42794374Y-19093691D01*
X42798587Y-19090156D01*
X42798591Y-19090153D01*
X42835506Y-19059177D01*
X42844220Y-19052490D01*
X42888201Y-19021695D01*
X43055295Y-18854601D01*
X43055297Y-18854598D01*
X43160904Y-18748991D01*
X43223216Y-18714965D01*
X43294031Y-18720030D01*
G37*
%TD.AperFunction*%
%TD*%
M02*
